<svg width="20" height="20" viewBox="0 0 20 20" fill="none" xmlns="http://www.w3.org/2000/svg">
<path d="M14.5696 10.0004C14.5696 10.4604 14.1971 10.8337 13.7362 10.8337H10.8338V13.7371C10.8338 14.1971 10.4604 14.5704 10.0004 14.5704C9.77042 14.5704 9.56208 14.4771 9.41125 14.3262C9.26042 14.1754 9.16708 13.9671 9.16708 13.7362V10.8337H6.26458C6.03458 10.8337 5.82625 10.7404 5.67542 10.5896C5.52458 10.4396 5.43125 10.2312 5.43125 10.0004C5.43125 9.54042 5.80458 9.16708 6.26458 9.16708H9.16708V6.26375C9.16708 5.80375 9.54042 5.43042 10.0004 5.43042C10.4604 5.43042 10.8338 5.80292 10.8338 6.26375V9.16708H13.7362C14.1971 9.16708 14.5696 9.53958 14.5696 10.0004ZM17.0713 17.0712C13.1663 20.9762 6.83458 20.9762 2.92875 17.0712C-0.97625 13.1663 -0.97625 6.83458 2.92875 2.92875C6.83375 -0.97625 13.1654 -0.97625 17.0713 2.92875C20.9771 6.83458 20.9771 13.1663 17.0713 17.0712ZM15.8929 4.10792C12.6438 0.85875 7.35708 0.85875 4.10792 4.10792C0.85875 7.35708 0.85875 12.6437 4.10792 15.8929C7.35708 19.1421 12.6438 19.1421 15.8929 15.8929C19.1421 12.6437 19.1421 7.35708 15.8929 4.10792Z" fill="currentColor"/>
</svg>
