<svg width="14" height="10" viewBox="0 0 14 10" fill="none" xmlns="http://www.w3.org/2000/svg">
<path d="M13.9617 5.19988C14.0365 5.01102 14.002 4.78689 13.8564 4.63332L9.60628 0.151755C9.41439 -0.050585 9.10245 -0.050585 8.91056 0.151755C8.71867 0.354095 8.71867 0.683027 8.91056 0.885367L12.3311 4.4922H0.492024C0.220427 4.49324 0 4.72464 0 5.01206C0 5.29949 0.220427 5.53088 0.492024 5.53088H12.3104L8.91154 9.11489C8.71965 9.31723 8.71965 9.64616 8.91154 9.84851C9.00798 9.95019 9.13393 10 9.25989 10C9.38585 10 9.51181 9.94916 9.60825 9.84851L13.8298 5.39599C13.8869 5.34203 13.9331 5.27666 13.9617 5.19988Z" fill="currentColor"/>
</svg>
