<svg width="73" height="15" viewBox="0 0 73 15" fill="none" xmlns="http://www.w3.org/2000/svg">
<path d="M72.9598 7.69197C73.0372 7.51118 73.002 7.29561 72.8532 7.14859L65.7624 0.145281C65.5663 -0.0484271 65.2475 -0.0484271 65.0514 0.145281C64.8553 0.33899 64.8553 0.653891 65.0514 0.847599L71.3015 7.02045H0.502824C0.225265 7.02045 0 7.24296 0 7.51714C0 7.79131 0.225265 8.01382 0.502824 8.01382H71.2663L65.0524 14.1519C64.8563 14.3456 64.8563 14.6605 65.0524 14.8542C65.1509 14.9516 65.2796 14.9993 65.4084 14.9993C65.5371 14.9993 65.6658 14.9506 65.7644 14.8542L72.8089 7.89462C72.8753 7.83998 72.9286 7.77343 72.9598 7.69197Z" fill="currentColor"/>
</svg>
