<svg width="25" height="24" viewBox="0 0 25 24" fill="none" xmlns="http://www.w3.org/2000/svg">
<path d="M9.791 18.6003C8.303 18.6003 7.096 19.8102 7.096 21.3022C7.096 22.7943 8.303 24.0042 9.791 24.0042C11.279 24.0042 12.486 22.7943 12.486 21.3022C12.486 19.8102 11.279 18.6003 9.791 18.6003ZM9.791 22.0042C9.408 22.0042 9.096 21.6892 9.096 21.3022C9.096 20.9153 9.408 20.6003 9.791 20.6003C10.174 20.6003 10.486 20.9153 10.486 21.3022C10.486 21.6892 10.174 22.0042 9.791 22.0042ZM17.719 18.6003C16.231 18.6003 15.024 19.8102 15.024 21.3022C15.024 22.7943 16.231 24.0042 17.719 24.0042C19.207 24.0042 20.414 22.7943 20.414 21.3022C20.414 19.8102 19.207 18.6003 17.719 18.6003ZM17.719 22.0042C17.336 22.0042 17.024 21.6892 17.024 21.3022C17.024 20.9153 17.336 20.6003 17.719 20.6003C18.102 20.6003 18.414 20.9153 18.414 21.3022C18.414 21.6892 18.102 22.0042 17.719 22.0042ZM24.332 6.97225L22.064 15.3523C21.782 16.4013 20.823 17.1353 19.733 17.1353H8.232C7.144 17.1353 6.185 16.4032 5.901 15.3542L2.885 4.23825H1C0.447 4.23825 0 3.79025 0 3.23825C0 2.68625 0.447 2.23825 1 2.23825H3.649C4.1 2.23825 4.496 2.54025 4.614 2.97625L7.831 14.8303C7.88 15.0093 8.045 15.1353 8.232 15.1353H19.733C19.921 15.1353 20.086 15.0103 20.133 14.8313L22.401 6.45025C22.446 6.28125 22.376 6.15525 22.33 6.09525C22.284 6.03325 22.18 5.93225 22 5.93225H21.885C21.332 5.93225 20.885 5.48425 20.885 4.93225C20.885 4.38025 21.332 3.93225 21.885 3.93225H22C22.759 3.93225 23.458 4.27725 23.918 4.87825C24.378 5.47825 24.528 6.24125 24.332 6.97225ZM8.513 5.53725C8.122 5.14725 8.122 4.51425 8.513 4.12325C8.904 3.73225 9.536 3.73225 9.927 4.12325L12.653 6.84925L19.21 0.29325C19.601 -0.09775 20.233 -0.09775 20.624 0.29325C21.015 0.68425 21.015 1.31625 20.624 1.70725L13.364 8.96625L13.362 8.96725L13.36 8.97025C13.165 9.16525 12.909 9.26325 12.653 9.26325C12.397 9.26325 12.141 9.16525 11.946 8.97025L8.513 5.53725Z" fill="currentColor"/>
</svg>
