<svg width="24" height="24" viewBox="0 0 24 24" fill="none" xmlns="http://www.w3.org/2000/svg">
<path d="M9.62418 18.596C8.16153 18.596 6.9751 19.806 6.9751 21.298C6.9751 22.79 8.16055 24 9.62418 24C11.0878 24 12.2733 22.79 12.2733 21.298C12.2733 19.806 11.0868 18.596 9.62418 18.596ZM9.62418 22C9.24771 22 8.94102 21.685 8.94102 21.298C8.94102 20.911 9.24771 20.596 9.62418 20.596C10.0007 20.596 10.3073 20.911 10.3073 21.298C10.3073 21.685 10.0007 22 9.62418 22ZM17.4171 18.596C15.9545 18.596 14.768 19.806 14.768 21.298C14.768 22.79 15.9545 24 17.4171 24C18.8797 24 20.0662 22.79 20.0662 21.298C20.0662 19.806 18.8797 18.596 17.4171 18.596ZM17.4171 22C17.0406 22 16.7339 21.685 16.7339 21.298C16.7339 20.911 17.0406 20.596 17.4171 20.596C17.7936 20.596 18.1003 20.911 18.1003 21.298C18.1003 21.685 17.7936 22 17.4171 22ZM23.9174 6.968L21.6881 15.348C21.4109 16.397 20.4682 17.131 19.3968 17.131H8.09174C7.02228 17.131 6.07962 16.399 5.80046 15.35L2.83585 4.234H0.982962C0.439384 4.234 0 3.786 0 3.234C0 2.682 0.439384 2.234 0.982962 2.234H3.58683C4.03014 2.234 4.4194 2.536 4.53539 2.972L7.69758 14.826C7.74574 15.005 7.90793 15.131 8.09174 15.131H19.3968C19.5816 15.131 19.7438 15.006 19.79 14.827L22.0193 6.446C22.0636 6.277 21.9948 6.151 21.9495 6.091C21.9043 6.029 21.8021 5.928 21.6252 5.928H19.2651C18.7215 5.928 18.2821 5.48 18.2821 4.928C18.2821 4.376 18.7215 3.928 19.2651 3.928H21.6252C22.3712 3.928 23.0583 4.273 23.5105 4.874C23.9626 5.475 24.1101 6.237 23.9174 6.968ZM7.59338 4.93C7.59338 4.378 8.03277 3.93 8.57634 3.93H11.4574V1C11.4574 0.448 11.8968 0 12.4404 0C12.9839 0 13.4233 0.448 13.4233 1V3.93H16.3044C16.848 3.93 17.2874 4.378 17.2874 4.93C17.2874 5.482 16.848 5.93 16.3044 5.93H13.4233V8.861C13.4233 9.413 12.9839 9.861 12.4404 9.861C11.8968 9.861 11.4574 9.413 11.4574 8.861V5.93H8.57634C8.03277 5.93 7.59338 5.482 7.59338 4.93Z" fill="currentColor"/>
</svg>
