<svg width="20" height="20" viewBox="0 0 20 20" fill="none" xmlns="http://www.w3.org/2000/svg">
<path d="M10 0C4.4775 0 0 4.4775 0 10C0 15.5225 4.4775 20 10 20C15.5225 20 20 15.5225 20 10C20 4.4775 15.5225 0 10 0ZM10 18.3333C5.405 18.3333 1.66667 14.595 1.66667 10C1.66667 5.405 5.405 1.66667 10 1.66667C14.595 1.66667 18.3333 5.405 18.3333 10C18.3333 14.595 14.595 18.3333 10 18.3333ZM14.62 5.79C13.8117 5.17167 12.6867 4.86333 11.2442 4.86333H6.795V12.9892H5.25167V14.07H6.79583V15.6767H8.805V14.07H12.2033V12.9892H8.805V12.1083H11.245C12.6867 12.1083 13.8125 11.7992 14.6208 11.1808C15.4283 10.5633 15.8333 9.6675 15.8333 8.49333C15.8333 7.30917 15.4283 6.4075 14.62 5.79ZM13.1375 9.96833C12.6883 10.3133 12.0525 10.4858 11.2292 10.4858H8.80417V6.5625H11.2292C12.0642 6.5625 12.7017 6.73 13.145 7.065C13.5875 7.39917 13.8092 7.88167 13.8092 8.50917C13.8092 9.13667 13.585 9.62333 13.1375 9.96833Z" fill="currentColor"/>
</svg>
