<svg width="30" height="26" viewBox="0 0 30 26" fill="none" xmlns="http://www.w3.org/2000/svg">
<path d="M12.7062 19.495C10.9253 19.495 9.48221 20.9513 9.48221 22.7475C9.48221 24.5437 10.9253 26 12.7062 26C14.487 26 15.9301 24.5437 15.9301 22.7475C15.9301 20.9513 14.487 19.495 12.7062 19.495ZM12.7062 24.0009C12.0238 24.0009 11.4686 23.4382 11.4686 22.7475C11.4686 22.0568 12.0238 21.4941 12.7062 21.4941C13.3885 21.4941 13.9437 22.0568 13.9437 22.7475C13.9437 23.4382 13.3885 24.0009 12.7062 24.0009ZM22.1904 19.495C20.4095 19.495 18.9664 20.9513 18.9664 22.7475C18.9664 24.5437 20.4095 26 22.1904 26C23.9712 26 25.4143 24.5437 25.4143 22.7475C25.4143 20.9513 23.9712 19.495 22.1904 19.495ZM22.1904 24.0009C21.508 24.0009 20.9528 23.4382 20.9528 22.7475C20.9528 22.0568 21.508 21.4941 22.1904 21.4941C22.8727 21.4941 23.4279 22.0568 23.4279 22.7475C23.4279 23.4382 22.8727 24.0009 22.1904 24.0009ZM29.9056 5.44149L27.1942 15.5308C26.8783 16.7063 25.8106 17.5269 24.6009 17.5269H10.8419C9.63119 17.5269 8.56547 16.7073 8.24963 15.5328L4.59957 1.99908H0.993213C0.443966 1.99908 0 1.55128 0 0.999539C0 0.447793 0.443966 0 0.993213 0H5.35938C5.80732 0 6.19964 0.301861 6.31684 0.73766L10.1655 15.0091C10.248 15.3139 10.5261 15.5268 10.8419 15.5268H24.6009C24.9167 15.5268 25.1958 15.3139 25.2783 15.0071L27.9887 4.91973C28.0652 4.63086 27.947 4.41696 27.8696 4.31501C27.7355 4.13909 27.5319 4.03914 27.3114 4.03914H11.4349C10.8856 4.03914 10.4416 3.59134 10.4416 3.0396C10.4416 2.48785 10.8856 2.04006 11.4349 2.04006H27.3114C28.1556 2.04006 28.9333 2.42688 29.4458 3.10057C29.9573 3.77126 30.1251 4.62487 29.9056 5.44149Z" fill="currentColor"/>
</svg>
