<svg width="24" height="24" viewBox="0 0 24 24" fill="none" xmlns="http://www.w3.org/2000/svg">
<path d="M9.62414 18.6003C8.1615 18.6003 6.97507 19.8102 6.97507 21.3022C6.97507 22.7943 8.1615 24.0042 9.62414 24.0042C11.0868 24.0042 12.2732 22.7943 12.2732 21.3022C12.2732 19.8102 11.0868 18.6003 9.62414 18.6003ZM9.62414 22.0042C9.24767 22.0042 8.94098 21.6892 8.94098 21.3022C8.94098 20.9153 9.24767 20.6003 9.62414 20.6003C10.0006 20.6003 10.3073 20.9153 10.3073 21.3022C10.3073 21.6892 10.0006 22.0042 9.62414 22.0042ZM17.417 18.6003C15.9544 18.6003 14.768 19.8102 14.768 21.3022C14.768 22.7943 15.9544 24.0042 17.417 24.0042C18.8797 24.0042 20.0661 22.7943 20.0661 21.3022C20.0661 19.8102 18.8797 18.6003 17.417 18.6003ZM17.417 22.0042C17.0406 22.0042 16.7339 21.6892 16.7339 21.3022C16.7339 20.9153 17.0406 20.6003 17.417 20.6003C17.7935 20.6003 18.1002 20.9153 18.1002 21.3022C18.1002 21.6892 17.7935 22.0042 17.417 22.0042ZM23.9173 6.97225L21.688 15.3523C21.4108 16.4013 20.4681 17.1353 19.3967 17.1353H8.09171C7.02225 17.1353 6.07959 16.4032 5.80043 15.3542L2.83583 4.23825H0.982958C0.439382 4.23825 0 3.79025 0 3.23825C0 2.68625 0.439382 2.23825 0.982958 2.23825H3.58681C4.03013 2.23825 4.41938 2.54025 4.53537 2.97625L7.69754 14.8303C7.74571 15.0093 7.90789 15.1353 8.09171 15.1353H19.3967C19.5815 15.1353 19.7437 15.0103 19.7899 14.8313L22.0192 6.45025C22.0635 6.28125 21.9947 6.15525 21.9494 6.09525C21.9042 6.03325 21.802 5.93225 21.6251 5.93225H21.512C20.9685 5.93225 20.5291 5.48425 20.5291 4.93225C20.5291 4.38025 20.9685 3.93225 21.512 3.93225H21.6251C22.3711 3.93225 23.0582 4.27725 23.5104 4.87825C23.9625 5.47825 24.11 6.24125 23.9173 6.97225ZM8.36792 5.53725C7.98358 5.14725 7.98358 4.51425 8.36792 4.12325C8.75225 3.73225 9.37348 3.73225 9.75782 4.12325L12.4374 6.84925L18.8826 0.29325C19.267 -0.09775 19.8882 -0.09775 20.2725 0.29325C20.6569 0.68425 20.6569 1.31625 20.2725 1.70725L13.1362 8.96625L13.1343 8.96725L13.1323 8.97025C12.9406 9.16525 12.689 9.26325 12.4374 9.26325C12.1857 9.26325 11.9341 9.16525 11.7424 8.97025L8.36792 5.53725Z" fill="currentColor"/>
</svg>
