<svg width="12" height="12" viewBox="0 0 12 12" fill="none" xmlns="http://www.w3.org/2000/svg">
<path d="M7.05221 5.99988L11.782 1.27061C12.0727 0.979931 12.0727 0.508691 11.782 0.21801C11.4913 -0.0726702 11.02 -0.0726702 10.7293 0.21801L6.0005 4.94827L1.27074 0.219003C0.980032 -0.0716781 0.508744 -0.0716781 0.218033 0.219003C-0.0726777 0.509683 -0.0726777 0.980923 0.218033 1.2716L4.94779 6.00087L0.219025 10.7291C-0.0716855 11.0198 -0.0716855 11.4911 0.219025 11.7817C0.363884 11.9266 0.554384 12 0.744884 12C0.935384 12 1.12588 11.9276 1.27074 11.7817L6.0005 7.05248L10.7302 11.7817C10.8751 11.9266 11.0656 12 11.2561 12C11.4466 12 11.6371 11.9276 11.782 11.7817C12.0727 11.4911 12.0727 11.0198 11.782 10.7291L7.05221 5.99988Z" fill="currentColor"/>
</svg>
