<svg width="20" height="20" viewBox="0 0 20 20" fill="none" xmlns="http://www.w3.org/2000/svg">
<path d="M17.5 0H2.5C1.11917 0 0 1.11917 0 2.5V17.5C0 18.8808 1.11917 20 2.5 20H17.5C18.8808 20 20 18.8808 20 17.5V2.5C20 1.11917 18.8808 0 17.5 0ZM18.3333 17.5C18.3333 17.9592 17.9592 18.3333 17.5 18.3333H2.5C2.04083 18.3333 1.66667 17.9592 1.66667 17.5V6.66667H18.3333V17.5ZM18.3333 5H1.66667V2.5C1.66667 2.04083 2.04083 1.66667 2.5 1.66667H17.5C17.9592 1.66667 18.3333 2.04083 18.3333 2.5V5ZM3.33333 9.16667C3.33333 8.70667 3.70667 8.33333 4.16667 8.33333H5.83333C6.29333 8.33333 6.66667 8.70667 6.66667 9.16667C6.66667 9.62667 6.29333 10 5.83333 10H4.16667C3.70667 10 3.33333 9.62667 3.33333 9.16667ZM8.33333 9.16667C8.33333 8.70667 8.70667 8.33333 9.16667 8.33333H10.8333C11.2933 8.33333 11.6667 8.70667 11.6667 9.16667C11.6667 9.62667 11.2933 10 10.8333 10H9.16667C8.70667 10 8.33333 9.62667 8.33333 9.16667ZM13.3333 9.16667C13.3333 8.70667 13.7067 8.33333 14.1667 8.33333H15.8333C16.2933 8.33333 16.6667 8.70667 16.6667 9.16667C16.6667 9.62667 16.2933 10 15.8333 10H14.1667C13.7067 10 13.3333 9.62667 13.3333 9.16667ZM3.33333 12.5C3.33333 12.04 3.70667 11.6667 4.16667 11.6667H5.83333C6.29333 11.6667 6.66667 12.04 6.66667 12.5C6.66667 12.96 6.29333 13.3333 5.83333 13.3333H4.16667C3.70667 13.3333 3.33333 12.96 3.33333 12.5ZM8.33333 12.5C8.33333 12.04 8.70667 11.6667 9.16667 11.6667H10.8333C11.2933 11.6667 11.6667 12.04 11.6667 12.5C11.6667 12.96 11.2933 13.3333 10.8333 13.3333H9.16667C8.70667 13.3333 8.33333 12.96 8.33333 12.5ZM13.3333 12.5C13.3333 12.04 13.7067 11.6667 14.1667 11.6667H15.8333C16.2933 11.6667 16.6667 12.04 16.6667 12.5C16.6667 12.96 16.2933 13.3333 15.8333 13.3333H14.1667C13.7067 13.3333 13.3333 12.96 13.3333 12.5ZM3.33333 15.8333C3.33333 15.3733 3.70667 15 4.16667 15H5.83333C6.29333 15 6.66667 15.3733 6.66667 15.8333C6.66667 16.2933 6.29333 16.6667 5.83333 16.6667H4.16667C3.70667 16.6667 3.33333 16.2933 3.33333 15.8333ZM8.33333 15.8333C8.33333 15.3733 8.70667 15 9.16667 15H10.8333C11.2933 15 11.6667 15.3733 11.6667 15.8333C11.6667 16.2933 11.2933 16.6667 10.8333 16.6667H9.16667C8.70667 16.6667 8.33333 16.2933 8.33333 15.8333ZM13.3333 15.8333C13.3333 15.3733 13.7067 15 14.1667 15H15.8333C16.2933 15 16.6667 15.3733 16.6667 15.8333C16.6667 16.2933 16.2933 16.6667 15.8333 16.6667H14.1667C13.7067 16.6667 13.3333 16.2933 13.3333 15.8333Z" fill="currentColor"/>
</svg>
