<svg width="20" height="18" viewBox="0 0 20 18" fill="none" xmlns="http://www.w3.org/2000/svg">
<path d="M18 3.217H15.446V2C15.446 0.895 14.551 0 13.446 0H6.554C5.449 0 4.554 0.895 4.554 2V3.217H2C0.896 3.217 0 4.112 0 5.217V16C0 17.105 0.896 18 2 18H18C19.105 18 20 17.105 20 16V5.217C20 4.112 19.105 3.217 18 3.217ZM6.054 2C6.054 1.724 6.278 1.5 6.554 1.5H13.445C13.721 1.5 13.945 1.724 13.945 2V3.217H6.054V2ZM2 4.717H18C18.276 4.717 18.5 4.941 18.5 5.217V8.165H1.5V5.217C1.5 4.941 1.724 4.717 2 4.717ZM8.054 9.665H12.054V10.336C12.054 10.612 11.83 10.836 11.554 10.836H8.554C8.278 10.836 8.054 10.612 8.054 10.336V9.665ZM18 16.5H2C1.724 16.5 1.5 16.276 1.5 16V9.665H6.554V10.336C6.554 11.441 7.449 12.336 8.554 12.336H11.554C12.659 12.336 13.554 11.441 13.554 10.336V9.665H18.5V16C18.5 16.276 18.276 16.5 18 16.5Z" fill="currentColor"/>
</svg>
