<svg width="22" height="20" viewBox="0 0 22 20" fill="none" xmlns="http://www.w3.org/2000/svg">
<path d="M21.707 13.357L19.244 15.82L21.707 18.283C22.098 18.674 22.098 19.306 21.707 19.697C21.512 19.892 21.256 19.99 21 19.99C20.744 19.99 20.488 19.892 20.293 19.697L17.83 17.234L15.367 19.697C15.172 19.892 14.916 19.99 14.66 19.99C14.404 19.99 14.148 19.892 13.953 19.697C13.562 19.306 13.562 18.674 13.953 18.283L16.416 15.82L13.953 13.357C13.562 12.966 13.562 12.334 13.953 11.943C14.344 11.552 14.976 11.552 15.367 11.943L17.83 14.406L20.293 11.943C20.684 11.552 21.316 11.552 21.707 11.943C22.098 12.334 22.098 12.966 21.707 13.357ZM1 11.441C0.448 11.441 0 11.889 0 12.441V19C0 19.552 0.448 20 1 20C1.552 20 2 19.552 2 19V12.441C2 11.889 1.552 11.441 1 11.441ZM21 6C20.448 6 20 6.448 20 7V10.926C20.302 10.75 20.642 10.649 21 10.649C21.358 10.649 21.698 10.75 22 10.926V7C22 6.448 21.552 6 21 6ZM11 0C10.448 0 10 0.448 10 1V19C10 19.552 10.448 20 11 20C11.552 20 12 19.552 12 19V1C12 0.448 11.552 0 11 0Z" fill="currentColor"/>
</svg>
