<svg width="26" height="26" viewBox="0 0 26 26" fill="none" xmlns="http://www.w3.org/2000/svg">
<path d="M15.5076 15.5076C13.4651 17.6155 13.3159 20.2434 13.1396 26C18.5072 26 22.2117 25.9817 24.1241 24.1241C25.9817 22.2117 26 18.33 26 13.1396C20.2424 13.3245 17.6155 13.4641 15.5076 15.5076ZM0 13.1396C0 18.33 0.0182962 22.2117 1.87585 24.1251C3.7883 25.9817 7.49378 26 12.8604 26C12.6745 20.2424 12.5359 17.6155 10.4924 15.5076C8.38548 13.4641 5.75756 13.3159 0 13.1396ZM12.8604 0C7.50244 0 3.7883 0.0182962 1.87585 1.87585C0.0182962 3.7883 0 7.67 0 12.8604C5.75756 12.6745 8.38452 12.5359 10.4924 10.4924C12.5359 8.38548 12.6841 5.75756 12.8604 0ZM15.5076 10.4924C13.4641 8.38452 13.3159 5.75756 13.1396 0C18.5072 0 22.2117 0.0182962 24.1251 1.87585C25.9817 3.7883 26 7.67 26 12.8604C20.2424 12.6755 17.6155 12.5359 15.5076 10.4924Z" fill="currentColor"/>
</svg>
