<svg width="20" height="20" viewBox="0 0 20 20" fill="none" xmlns="http://www.w3.org/2000/svg">
<path d="M10 0C4.4775 0 0 4.4775 0 10C0 15.5225 4.4775 20 10 20C15.5225 20 20 15.5225 20 10C20 4.4775 15.5225 0 10 0ZM10 18.3333C5.405 18.3333 1.66667 14.595 1.66667 10C1.66667 5.405 5.405 1.66667 10 1.66667C14.595 1.66667 18.3333 5.405 18.3333 10C18.3333 14.595 14.595 18.3333 10 18.3333ZM13.2308 7.9475L11.1783 10L13.2308 12.0525C13.5567 12.3783 13.5567 12.9058 13.2308 13.2308C13.0683 13.3933 12.855 13.475 12.6417 13.475C12.4283 13.475 12.215 13.3933 12.0525 13.2308L10 11.1783L7.9475 13.2308C7.785 13.3942 7.57167 13.475 7.35833 13.475C7.145 13.475 6.93167 13.3933 6.76917 13.2308C6.44333 12.9058 6.44333 12.3783 6.76917 12.0525L8.82167 10L6.76917 7.9475C6.44333 7.62167 6.44333 7.09417 6.76917 6.76917C7.095 6.44333 7.62167 6.44333 7.9475 6.76917L10 8.82167L12.0525 6.76917C12.3783 6.44333 12.905 6.44333 13.2308 6.76917C13.5567 7.09417 13.5567 7.62167 13.2308 7.9475Z" fill="currentColor"/>
</svg>
