<svg width="22" height="16" viewBox="0 0 22 16" fill="none" xmlns="http://www.w3.org/2000/svg">
<path d="M3.18304 16.0002C3.05399 16.0002 2.92493 15.9512 2.82612 15.8542C2.62951 15.6592 2.62951 15.3422 2.82612 15.1472L17.9499 0.147227C18.1465 -0.0477734 18.4661 -0.0477734 18.6627 0.147227C18.8593 0.342227 18.8593 0.659227 18.6627 0.854227L3.53895 15.8542C3.44115 15.9512 3.3121 16.0002 3.18304 16.0002ZM1.26434 7.72423C2.27259 6.47723 6.41549 1.72523 11 1.72523C12.1071 1.72523 13.1879 2.00723 14.2062 2.44623L14.9725 1.68623C13.7374 1.10823 12.3974 0.725227 11 0.725227C5.24491 0.725227 0.421448 7.15523 0.21879 7.42823L0 7.72423L0.21879 8.02023C0.334739 8.17623 1.96205 10.3392 4.40504 12.1672L5.13501 11.4432C3.23043 10.0392 1.80073 8.38723 1.26434 7.72423ZM21.7822 7.42823C21.6663 7.27223 20.0521 5.12423 17.6232 3.30023L16.8922 4.02523C18.7837 5.42523 20.2023 7.06423 20.7367 7.72423C19.7284 8.97123 15.5855 13.7232 11.001 13.7232C9.90605 13.7232 8.83731 13.4462 7.82805 13.0152L7.06178 13.7752C8.28781 14.3452 9.61668 14.7222 11.001 14.7222C16.7561 14.7222 21.5796 8.29223 21.7822 8.01923L22.001 7.72323L21.7822 7.42823ZM7.22007 7.72423C7.22007 8.21223 7.3209 8.67623 7.49331 9.10423L8.29487 8.30923C8.25353 8.12023 8.22832 7.92523 8.22832 7.72423C8.22832 6.20823 9.47149 4.97423 11 4.97423C11.2027 4.97423 11.3993 4.99923 11.5898 5.04023L12.3914 4.24523C11.9599 4.07423 11.492 3.97423 11 3.97423C8.91595 3.97523 7.22007 5.65723 7.22007 7.72423ZM14.7809 7.72423C14.7809 7.24823 14.6821 6.79723 14.5188 6.37823L13.7162 7.17323C13.7525 7.35123 13.7727 7.53523 13.7727 7.72323C13.7727 9.23923 12.5295 10.4732 11 10.4732C10.8104 10.4732 10.6249 10.4542 10.4455 10.4172L9.6429 11.2132C10.0654 11.3752 10.5201 11.4732 10.999 11.4732C13.0851 11.4742 14.7809 9.79223 14.7809 7.72423Z" fill="currentColor"/>
</svg>
