<svg width="22" height="16" viewBox="0 0 22 16" fill="none" xmlns="http://www.w3.org/2000/svg">
<path d="M21.7822 7.70396C21.5786 7.43092 16.7551 1 11 1C5.24491 1 0.421448 7.43092 0.21879 7.70396L0 8L0.21879 8.29604C0.421448 8.56908 5.24491 15 11 15C16.7551 15 21.5786 8.56908 21.7812 8.29604L22 8L21.7822 7.70396ZM11 13.9999C6.42154 13.9999 2.2736 9.24618 1.26434 8C2.27259 6.75282 6.41549 2.00014 11 2.00014C15.5785 2.00014 19.7264 6.75382 20.7357 8C19.7274 9.24718 15.5845 13.9999 11 13.9999ZM11 4.25046C8.91595 4.25046 7.22007 5.9327 7.22007 8.001C7.22007 10.0693 8.91595 11.7515 11 11.7515C13.0841 11.7515 14.7809 10.0693 14.7809 8.001C14.7809 5.9327 13.0851 4.25046 11 4.25046ZM11 10.7504C9.47149 10.7504 8.22832 9.51722 8.22832 8C8.22832 6.48278 9.47149 5.24961 11 5.24961C12.5295 5.24961 13.7727 6.48278 13.7727 8C13.7727 9.51722 12.5295 10.7504 11 10.7504Z" fill="currentColor"/>
</svg>
