<svg width="20" height="16" viewBox="0 0 20 16" fill="none" xmlns="http://www.w3.org/2000/svg">
<path d="M18 0H2C0.896 0 0 0.895 0 2V14C0 15.105 0.896 16 2 16H18C19.105 16 20 15.105 20 14V2C20 0.895 19.105 0 18 0ZM10.003 6.96L2.499 1.5H17.576L10.003 6.96ZM18 14.5H2C1.724 14.5 1.5 14.276 1.5 14V2.629L9.559 8.493C9.582 8.509 9.609 8.516 9.633 8.53C9.657 8.544 9.679 8.555 9.704 8.566C9.8 8.608 9.899 8.636 10 8.636H10.001C10.101 8.636 10.201 8.608 10.296 8.567C10.321 8.556 10.343 8.545 10.367 8.531C10.391 8.518 10.417 8.511 10.439 8.495L18.5 2.683V14C18.5 14.276 18.276 14.5 18 14.5ZM7.443 11.915C7.443 12.329 7.107 12.665 6.693 12.665H4.061C3.647 12.665 3.311 12.329 3.311 11.915C3.311 11.501 3.647 11.165 4.061 11.165H6.693C7.107 11.165 7.443 11.501 7.443 11.915Z" fill="currentColor"/>
</svg>
