<svg width="22" height="20" viewBox="0 0 22 20" fill="none" xmlns="http://www.w3.org/2000/svg">
<path d="M18.4159 18.29C18.8069 18.681 18.8069 19.314 18.4159 19.704C18.2209 19.899 17.9649 19.997 17.7089 19.997C17.4529 19.997 17.1969 19.899 17.0019 19.704L14.5389 17.241L12.0759 19.704C11.8809 19.899 11.6249 19.997 11.3689 19.997C11.1129 19.997 10.8569 19.899 10.6619 19.704C10.2709 19.314 10.2709 18.681 10.6619 18.29L13.1249 15.827L10.6619 13.364C10.2709 12.973 10.2709 12.34 10.6619 11.95C11.0529 11.559 11.6849 11.559 12.0759 11.95L14.5389 14.413L17.0019 11.95C17.3929 11.559 18.0249 11.559 18.4159 11.95C18.8069 12.34 18.8069 12.973 18.4159 13.364L15.9529 15.827L18.4159 18.29ZM21.2959 5.323C20.7699 3.318 19.4159 1.558 17.7639 0.73C16.7019 0.197 15.6329 0 14.6339 0C13.0819 0 11.6979 0.475 10.7689 0.9C9.83986 0.475 8.45686 0 6.90486 0C5.90586 0 4.83686 0.197 3.77386 0.73C2.11986 1.559 0.767857 3.319 0.241857 5.323C-0.297143 7.378 0.069857 9.492 1.27386 11.281C2.14686 12.717 6.62886 16.563 9.38186 18.856C9.41586 18.375 9.60986 17.926 9.95386 17.582L10.4199 17.116C5.87486 13.321 3.40686 10.941 2.98186 10.242C2.96586 10.216 2.94886 10.19 2.93186 10.164C2.05486 8.86 1.78586 7.321 2.17686 5.83C2.55486 4.387 3.53286 3.087 4.67086 2.517C5.35486 2.174 6.10686 2 6.90486 2C8.11386 2 9.22086 2.391 9.93586 2.719C10.2009 2.84 10.4849 2.9 10.7689 2.9C11.0529 2.9 11.3369 2.839 11.6019 2.718C12.3179 2.391 13.4249 2 14.6339 2C15.4319 2 16.1829 2.174 16.8679 2.518C18.0039 3.087 18.9829 4.388 19.3619 5.831C19.7519 7.32 19.4839 8.86 18.6049 10.167C18.5879 10.192 18.5719 10.218 18.5559 10.243C18.4879 10.354 18.3499 10.523 18.1789 10.719C18.5329 10.804 18.8589 10.979 19.1229 11.243C19.3659 11.485 19.5299 11.782 19.6219 12.103C19.9069 11.784 20.1309 11.503 20.2649 11.283C21.4679 9.492 21.8349 7.378 21.2959 5.323Z" fill="currentColor"/>
</svg>
