<svg width="20" height="20" viewBox="0 0 20 20" fill="none" xmlns="http://www.w3.org/2000/svg">
<path d="M19.7068 13.3453L17.2318 15.8195L19.7068 18.2936C20.0977 18.6845 20.0977 19.3172 19.7068 19.7071C19.5118 19.902 19.2558 20 18.9998 20C18.7438 20 18.4878 19.902 18.2928 19.7071L15.8178 17.233L13.3428 19.7071C13.1478 19.902 12.8918 20 12.6358 20C12.3798 20 12.1238 19.902 11.9289 19.7071C11.5379 19.3162 11.5379 18.6835 11.9289 18.2936L14.4038 15.8195L11.9289 13.3453C11.5379 12.9545 11.5379 12.3217 11.9289 11.9318C12.1238 11.7369 12.3798 11.6389 12.6358 11.6389C12.8918 11.6389 13.1478 11.7369 13.3428 11.9318L15.8178 14.406L18.2928 11.9318C18.4878 11.7369 18.7438 11.6389 18.9998 11.6389C19.2558 11.6389 19.5118 11.7369 19.7068 11.9318C20.0977 12.3217 20.0977 12.9545 19.7068 13.3453ZM0 3.00195C0 2.45014 0.447994 2.0023 0.999987 2.0023H2.47597C2.88996 0.838706 3.98995 0 5.29593 0C6.60192 0 7.7019 0.838706 8.1159 2.0023H18.9998C19.5518 2.0023 19.9998 2.45014 19.9998 3.00195C19.9998 3.55376 19.5518 4.0016 18.9998 4.0016H8.1159C7.7029 5.16519 6.60192 6.0039 5.29593 6.0039C3.98995 6.0039 2.88996 5.16619 2.47597 4.0016H0.999987C0.447994 4.0016 0 3.55476 0 3.00195ZM4.29295 3.00195C4.29295 3.55476 4.74294 4.0046 5.29593 4.0046C5.84893 4.0046 6.29992 3.55576 6.29992 3.00195C6.29992 2.44814 5.84893 1.9993 5.29593 1.9993C4.74294 1.9993 4.29295 2.44914 4.29295 3.00195ZM18.9998 8.99985H10.7999H8.2339H0.999987C0.447994 8.99985 0 9.44769 0 9.9995C0 10.5513 0.447994 10.9992 0.999987 10.9992H8.2339H10.7999H11.4959C11.8289 10.7672 12.2218 10.6383 12.6358 10.6383C13.0498 10.6383 13.4438 10.7662 13.7758 10.9992H17.8588C18.1918 10.7672 18.5848 10.6383 18.9988 10.6383C19.2208 10.6383 19.4348 10.6823 19.6388 10.7512C19.8548 10.5683 19.9988 10.3044 19.9988 9.9995C19.9998 9.44769 19.5518 8.99985 18.9998 8.99985ZM12.8108 15.9974L11.2219 17.5858C11.0979 17.7098 10.9999 17.8498 10.9149 17.9967H8.1159C7.7029 19.1603 6.60192 19.999 5.29593 19.999C3.98995 19.999 2.88996 19.1603 2.47597 17.9967H0.999987C0.447994 17.9967 0 17.5489 0 16.9971C0 16.4452 0.447994 15.9974 0.999987 15.9974H2.47597C2.88996 14.8338 3.98995 13.9951 5.29593 13.9951C6.60192 13.9951 7.7019 14.8338 8.1159 15.9974H12.8108ZM6.29992 16.9971C6.29992 16.4442 5.84893 15.9944 5.29593 15.9944C4.74294 15.9944 4.29295 16.4442 4.29295 16.9971C4.29295 17.5499 4.74294 17.9997 5.29593 17.9997C5.84893 17.9997 6.29992 17.5509 6.29992 16.9971Z" fill="currentColor"/>
</svg>
