<svg width="28" height="26" viewBox="0 0 28 26" fill="none" xmlns="http://www.w3.org/2000/svg">
<path d="M8.97681 2C10.6568 2 12.1828 2.538 13.1668 2.989C13.4308 3.11 13.7158 3.171 13.9998 3.171C14.2838 3.171 14.5678 3.11 14.8328 2.989C15.8168 2.538 17.3438 2 19.0238 2C20.1548 2 21.2228 2.248 22.1968 2.737C23.8218 3.551 25.2158 5.392 25.7498 7.427C26.3018 9.532 25.9228 11.707 24.6828 13.55C24.6658 13.575 24.6498 13.601 24.6338 13.626C24.0748 14.545 20.9488 17.65 13.9988 23.411C8.23281 18.633 4.09781 14.832 3.3648 13.627C3.3488 13.601 3.3318 13.574 3.31481 13.549C2.07481 11.708 1.69681 9.534 2.24881 7.427C2.78181 5.392 4.17581 3.551 5.80181 2.736C6.7768 2.248 7.84481 2 8.97681 2ZM8.97681 0C7.67681 0 6.28781 0.256 4.90581 0.949C2.75681 2.026 0.997805 4.315 0.314805 6.921C-0.385195 9.593 0.0908049 12.341 1.6568 14.667C2.9518 16.797 10.3648 23.014 13.5628 25.645L14.0048 26L14.4368 25.645C17.6358 23.012 25.0488 16.793 26.3428 14.667C27.9078 12.34 28.3848 9.592 27.6848 6.921C27.0008 4.314 25.2408 2.026 23.0928 0.95C21.7128 0.256 20.3228 0 19.0238 0C17.0068 0 15.2078 0.617 13.9998 1.171C12.7918 0.617 10.9938 0 8.97681 0Z" fill="currentColor"/>
</svg>
