<svg width="20" height="20" viewBox="0 0 20 20" fill="none" xmlns="http://www.w3.org/2000/svg">
<path d="M1 4.0016H2.476C2.89 5.16619 3.99 6.0049 5.296 6.0049C6.602 6.0049 7.702 5.16619 8.116 4.0026H19C19.552 4.0026 20 3.55476 20 3.00295C20 2.45114 19.552 2.0033 19 2.0033H8.116C7.703 0.838706 6.602 0 5.296 0C3.99 0 2.89 0.838706 2.476 2.0023H1C0.448 2.0023 0 2.45014 0 3.00195C0 3.55376 0.448 4.0016 1 4.0016ZM5.296 1.9993C5.849 1.9993 6.3 2.44914 6.3 3.00195C6.3 3.55476 5.85 4.0046 5.297 4.0046C4.744 4.0046 4.294 3.55476 4.294 3.00195C4.294 2.44914 4.743 1.9993 5.296 1.9993ZM19 8.99985H17.524C17.11 7.83626 16.01 6.99755 14.704 6.99755C13.398 6.99755 12.298 7.83626 11.884 8.99985H1C0.448 8.99985 0 9.44769 0 9.9995C0 10.5513 0.448 10.9992 1 10.9992H11.884C12.297 12.1627 13.398 13.0014 14.704 13.0014C16.01 13.0014 17.11 12.1627 17.524 10.9992H19C19.552 10.9992 20 10.5513 20 9.9995C20 9.44769 19.552 8.99985 19 8.99985ZM14.704 11.0031C14.151 11.0031 13.701 10.5533 13.701 10.0005C13.701 9.44769 14.151 8.99685 14.704 8.99685C15.257 8.99685 15.707 9.44669 15.707 9.9995C15.707 10.5523 15.257 11.0031 14.704 11.0031ZM19 15.9974H8.116C7.703 14.8338 6.602 13.9951 5.296 13.9951C3.99 13.9951 2.89 14.8338 2.476 15.9974H1C0.448 15.9974 0 16.4452 0 16.9971C0 17.5489 0.448 17.9967 1 17.9967H2.476C2.889 19.1603 3.99 19.999 5.296 19.999C6.602 19.999 7.702 19.1603 8.116 17.9967H19C19.552 17.9967 20 17.5489 20 16.9971C20 16.4452 19.552 15.9974 19 15.9974ZM5.296 18.0007C4.743 18.0007 4.293 17.5509 4.293 16.9981C4.293 16.4452 4.743 15.9944 5.296 15.9944C5.849 15.9944 6.3 16.4442 6.3 16.9971C6.3 17.5499 5.849 18.0007 5.296 18.0007Z" fill="currentColor"/>
</svg>
