<svg width="20" height="16" viewBox="0 0 20 16" fill="none" xmlns="http://www.w3.org/2000/svg">
<path d="M4 1C4 0.448 4.448 0 5 0H19C19.552 0 20 0.448 20 1C20 1.552 19.552 2 19 2H5C4.448 2 4 1.552 4 1ZM19 7H5C4.448 7 4 7.448 4 8C4 8.552 4.448 9 5 9H19C19.552 9 20 8.552 20 8C20 7.448 19.552 7 19 7ZM19 14H5C4.448 14 4 14.448 4 15C4 15.552 4.448 16 5 16H19C19.552 16 20 15.552 20 15C20 14.448 19.552 14 19 14ZM1 0C0.448 0 0 0.448 0 1C0 1.552 0.448 2 1 2C1.552 2 2 1.552 2 1C2 0.448 1.552 0 1 0ZM1 7C0.448 7 0 7.448 0 8C0 8.552 0.448 9 1 9C1.552 9 2 8.552 2 8C2 7.448 1.552 7 1 7ZM1 14C0.448 14 0 14.448 0 15C0 15.552 0.448 16 1 16C1.552 16 2 15.552 2 15C2 14.448 1.552 14 1 14Z" fill="currentColor"/>
</svg>
