<svg width="20" height="25" viewBox="0 0 20 25" fill="none" xmlns="http://www.w3.org/2000/svg">
<path d="M10.197 1.46404C10.764 1.46404 11.42 1.57141 12.263 1.80077C15.935 2.8012 18.5 6.10311 18.5 9.82959C18.5 12.8728 15.943 15.6506 13.47 18.3367C12.173 19.7451 10.928 21.0969 10 22.5092C9.072 21.0969 7.827 19.7451 6.53 18.3367C4.057 15.6506 1.5 12.8738 1.5 9.82959C1.5 6.10311 4.065 2.8012 7.737 1.80077C8.579 1.57141 9.236 1.46404 9.803 1.46404C9.852 1.46404 9.9 1.46502 9.949 1.466L10 1.46795L10.052 1.466C10.1 1.46502 10.149 1.46404 10.197 1.46404ZM10.197 0C10.131 0 10.066 0.000976029 10 0.00292809C9.934 0.000976029 9.869 0 9.803 0C8.984 0 8.157 0.165925 7.334 0.390411C3.103 1.5431 0 5.33302 0 9.82959C0 15.7189 7.419 20.0457 9.502 24.6711C9.601 24.8907 9.798 24.9902 10 25C10.202 24.9902 10.399 24.8907 10.498 24.6711C12.581 20.0457 20 15.7189 20 9.82959C20 5.33302 16.897 1.5431 12.666 0.390411C11.844 0.165925 11.016 0 10.197 0ZM10 6.61943C11.758 6.61943 13.188 8.01515 13.188 9.73101C13.188 11.4469 11.758 12.8426 10 12.8426C8.242 12.8426 6.812 11.4469 6.812 9.73101C6.812 8.01515 8.242 6.61943 10 6.61943ZM10 5.15538C7.411 5.15538 5.312 7.20407 5.312 9.73101C5.312 12.2579 7.411 14.3057 10 14.3057C12.589 14.3057 14.688 12.257 14.688 9.73003C14.688 7.20309 12.589 5.15538 10 5.15538Z" fill="currentColor"/>
</svg>
