<svg width="16" height="14" viewBox="0 0 16 14" fill="none" xmlns="http://www.w3.org/2000/svg">
<path d="M0 1C0 0.448 0.448 0 1 0H15C15.552 0 16 0.448 16 1C16 1.552 15.552 2 15 2H1C0.448 2 0 1.552 0 1ZM15.707 5.929C15.512 5.734 15.256 5.636 15 5.636C14.744 5.636 14.488 5.734 14.293 5.929L11.818 8.404L9.343 5.929C9.148 5.734 8.892 5.636 8.636 5.636C8.38 5.636 8.124 5.734 7.929 5.929C7.538 6.32 7.538 6.953 7.929 7.343L10.404 9.818L7.929 12.293C7.538 12.684 7.538 13.317 7.929 13.707C8.124 13.902 8.38 14 8.636 14C8.892 14 9.148 13.902 9.343 13.707L11.818 11.232L14.293 13.707C14.488 13.902 14.744 14 15 14C15.256 14 15.512 13.902 15.707 13.707C16.098 13.316 16.098 12.683 15.707 12.293L13.232 9.818L15.707 7.343C16.098 6.953 16.098 6.319 15.707 5.929ZM6.748 6H1C0.448 6 0 6.448 0 7C0 7.552 0.448 8 1 8H7.181C6.832 7.628 6.636 7.148 6.636 6.636C6.636 6.415 6.68 6.203 6.748 6ZM6.913 12H1C0.448 12 0 12.448 0 13C0 13.552 0.448 14 1 14H6.913C6.737 13.698 6.636 13.358 6.636 13C6.636 12.642 6.737 12.302 6.913 12Z" fill="currentColor"/>
</svg>
