<svg width="26" height="26" viewBox="0 0 26 26" fill="none" xmlns="http://www.w3.org/2000/svg">
<path d="M10.5647 7.27711C10.5647 5.93282 11.6538 4.8437 12.999 4.8437C14.3433 4.8437 15.4324 5.93282 15.4324 7.27711C15.4324 8.62141 14.3433 9.71148 12.999 9.71148C11.6538 9.71244 10.5647 8.62141 10.5647 7.27711ZM26 13C26 20.1799 20.1799 26 13 26C5.82015 26 0 20.1799 0 13C0 5.82015 5.82015 0 13 0C20.1799 0 26 5.82015 26 13ZM8.13126 7.27711C8.13126 9.96474 10.3124 12.1449 12.999 12.1449C15.6867 12.1449 17.8678 9.96474 17.8678 7.27711C17.8678 4.58852 15.6876 2.40837 12.999 2.40837C10.3124 2.40933 8.13126 4.58852 8.13126 7.27711ZM19.2593 14.2316C19.2593 13.4641 18.6353 12.8401 17.8678 12.8401C17.1716 12.8401 15.781 14.2316 12.999 14.2316C10.218 14.2316 8.82652 12.8401 8.13126 12.8401C7.36474 12.8401 6.74074 13.4651 6.74074 14.2316C6.74074 14.9279 7.13556 15.2601 7.43696 15.4382C8.26126 15.9197 10.9133 17.0136 10.9133 17.0136L7.95793 20.7942C7.95793 20.7942 7.43696 21.4461 7.43696 21.8804C7.43696 22.6479 8.05904 23.2719 8.82748 23.2719C9.53719 23.2719 9.85978 22.8155 9.85978 22.8155C9.85978 22.8155 12.9952 19.0956 13 19.0984C13.0039 19.0956 16.1402 22.8155 16.1402 22.8155C16.1402 22.8155 16.4628 23.2719 17.1725 23.2719C17.941 23.2719 18.563 22.647 18.563 21.8804C18.563 21.4461 18.0421 20.7942 18.0421 20.7942L15.0867 17.0136C15.0867 17.0136 17.7407 15.9207 18.564 15.4382C18.8625 15.2601 19.2593 14.9279 19.2593 14.2316Z" fill="currentColor"/>
</svg>
