<svg width="20" height="20" viewBox="0 0 20 20" fill="none" xmlns="http://www.w3.org/2000/svg">
<path d="M13.9238 20C10.7732 20 6.49793 15.9714 5.26254 14.737C4.02715 13.5027 -0.00179764 9.22683 6.01761e-07 6.0757C0.000899721 2.28266 3.25661 0 4.10628 0H4.10897C4.65294 0 5.16993 0.241841 5.52598 0.664389L8.38159 4.06455C8.6729 4.36932 8.85362 4.82064 8.85362 5.29444C8.85183 5.7943 8.66031 6.25551 8.31325 6.59624C8.22514 6.68525 8.10106 6.82909 7.97429 6.97294C7.83222 7.13477 7.68926 7.29659 7.57328 7.41616C7.32962 7.756 7.31163 8.37634 7.7585 8.89778L11.1581 12.2934C11.6256 12.689 12.2442 12.6701 12.5841 12.4265C12.7045 12.3096 12.8673 12.1649 13.0309 12.0219C13.1739 11.8961 13.316 11.7729 13.4113 11.6785C13.7457 11.3387 14.2079 11.1472 14.7033 11.1463H14.7051C15.178 11.1463 15.6294 11.3261 15.9755 11.6524L19.3347 14.4718C19.7572 14.826 20 15.3439 20 15.8923C20.0009 16.7428 17.7189 19.9973 13.9238 20ZM4.17551 1.85202C3.56141 2.23681 1.79914 3.70673 1.79824 6.0766C1.79734 7.6616 3.70077 10.6311 6.5348 13.4649C9.36882 16.2978 12.3386 18.2019 13.9238 18.2019H13.9247C16.2759 18.201 17.7405 16.4668 18.1397 15.8401L14.7797 12.9956L14.7078 12.9452C14.6934 12.9452 14.6862 12.9488 14.6844 12.9497C14.563 13.0702 14.3922 13.2213 14.2187 13.3741C14.0667 13.5071 13.9139 13.6402 13.8141 13.7409L13.7358 13.811C12.8187 14.5428 11.2174 14.7083 9.93347 13.6078L6.44668 10.125C5.29311 8.7845 5.45765 7.18331 6.18953 6.2654L6.25877 6.18808C6.35857 6.08918 6.49164 5.93725 6.62291 5.78621C6.77666 5.6109 6.93041 5.43828 7.0455 5.32231L7.00503 5.22071L4.17551 1.85202Z" fill="currentColor"/>
</svg>
