<svg width="14" height="14" viewBox="0 0 14 14" fill="none" xmlns="http://www.w3.org/2000/svg">
<path d="M12.99 5.98947H8.01053V1.01003C8.01053 0.452493 7.55905 0 7.0005 0C6.44196 0 5.99048 0.452493 5.99048 1.01003V5.98947H1.01003C0.451483 5.98947 0 6.44196 0 6.99949C0 7.55703 0.451483 8.00952 1.01003 8.00952H5.99048V12.99C5.99048 13.5475 6.44196 14 7.0005 14C7.55905 14 8.01053 13.5475 8.01053 12.99V8.00952H12.991C13.5495 8.00952 14.001 7.55703 14.001 6.99949C14.001 6.44196 13.5485 5.98947 12.99 5.98947Z" fill="currentColor"/>
</svg>
