<svg width="20" height="21" viewBox="0 0 20 21" fill="none" xmlns="http://www.w3.org/2000/svg">
<path d="M14.4593 21C14.2339 21 14.0578 20.9843 13.9417 20.9695C9.27354 20.7121 -0.252682 10.0686 0.00512902 5.3708C0.100578 3.61687 1.26466 1.87079 2.22604 0.715254L2.29689 0.631734C2.65802 0.202338 3.18152 -0.033485 3.74634 0.00385369C4.2659 0.032349 4.74806 0.290772 5.0659 0.712307L7.95004 4.5523C8.21671 4.86673 8.36332 5.30497 8.33872 5.755C8.31216 6.22861 8.1065 6.658 7.75717 6.96458C7.65484 7.05792 7.5092 7.20728 7.3616 7.35663C7.17759 7.54431 6.99161 7.73297 6.85287 7.85579C6.54487 8.20756 6.44549 9.02803 6.98866 9.7355L11.03 14.1631C11.6175 14.7271 12.6103 14.3341 12.8416 14.1277C12.8416 14.1277 13.5117 13.5146 13.5865 13.4478C13.9496 13.1402 14.3756 12.983 14.848 13.0193C15.2494 13.041 15.6362 13.2041 15.9343 13.4762L19.2081 16.5046C19.584 16.8662 19.7759 17.3605 19.7474 17.8704C19.7218 18.3892 19.4649 18.8697 19.0428 19.1871C17.0994 20.7475 15.3705 21 14.4593 21ZM3.64794 1.47578C3.52789 1.47578 3.45212 1.55046 3.42359 1.58289L3.35667 1.66248C2.20538 3.04794 1.53625 4.39607 1.48016 5.45039C1.25974 9.43286 10.0716 19.2795 14.0509 19.4996C14.5715 19.5634 16.1537 19.6214 18.1277 18.0316L18.1513 18.0129C18.1946 17.9815 18.2674 17.9107 18.2733 17.7918C18.2782 17.7054 18.2497 17.6287 18.1946 17.5756L14.9346 14.561C14.9109 14.5384 14.8519 14.4962 14.7663 14.4913C14.6531 14.4824 14.598 14.5247 14.5567 14.5591C14.4986 14.6121 13.8354 15.2194 13.8354 15.2194C13.1633 15.8247 11.2878 16.4525 9.97317 15.1909L5.85705 10.6798C4.78152 9.28056 5.03146 7.68875 5.81277 6.81326C5.99186 6.64818 6.15028 6.48507 6.30871 6.3249C6.47796 6.15098 6.64721 5.98001 6.77414 5.86603C6.83023 5.8169 6.86074 5.7491 6.86467 5.67344C6.86959 5.59778 6.84499 5.52998 6.79579 5.47004L3.88607 1.59861C3.83097 1.52688 3.74831 1.4807 3.66467 1.47578C3.65876 1.47578 3.65384 1.47578 3.64794 1.47578ZM14.2221 10.7662C14.5104 10.4783 14.5104 10.0116 14.2221 9.72371L11.4856 6.99012C11.1973 6.70222 10.7299 6.70222 10.4416 6.99012C10.1532 7.27802 10.1532 7.74476 10.4416 8.03266L13.1781 10.7662C13.3218 10.9097 13.5107 10.9824 13.6996 10.9824C13.8885 10.9824 14.0775 10.9107 14.2221 10.7662ZM17.0029 9.43679C17.2913 9.14889 17.2913 8.68216 17.0029 8.39425L12.817 4.21428C12.5286 3.92638 12.0612 3.92638 11.7729 4.21428C11.4846 4.50219 11.4846 4.96892 11.7729 5.25682L15.9589 9.43679C16.1026 9.58025 16.2915 9.65296 16.4804 9.65296C16.6694 9.65296 16.8583 9.58025 17.0029 9.43679ZM19.7838 8.10635C20.0721 7.81845 20.0721 7.35172 19.7838 7.06382L14.1483 1.43648C13.86 1.14858 13.3926 1.14858 13.1043 1.43648C12.816 1.72438 12.816 2.19112 13.1043 2.47902L18.7397 8.10635C18.8834 8.24981 19.0723 8.32253 19.2613 8.32253C19.4502 8.32253 19.6391 8.2508 19.7838 8.10635Z" fill="currentColor"/>
</svg>
