<svg width="20" height="20" viewBox="0 0 20 20" fill="none" xmlns="http://www.w3.org/2000/svg">
<path d="M17.5 4.16667H15.8333V2.5C15.8333 1.11917 14.7142 0 13.3333 0H6.66667C5.28583 0 4.16667 1.11917 4.16667 2.5V4.16667H2.5C1.11917 4.16667 0 5.28583 0 6.66667V17.5C0 18.8808 1.11917 20 2.5 20H17.5C18.8808 20 20 18.8808 20 17.5V6.66667C20 5.28583 18.8808 4.16667 17.5 4.16667ZM5.83333 2.5C5.83333 2.04083 6.2075 1.66667 6.66667 1.66667H13.3333C13.7925 1.66667 14.1667 2.04083 14.1667 2.5V4.16667H5.83333V2.5ZM18.3333 17.5C18.3333 17.9592 17.9592 18.3333 17.5 18.3333H2.5C2.04083 18.3333 1.66667 17.9592 1.66667 17.5V6.66667C1.66667 6.2075 2.04083 5.83333 2.5 5.83333H4.16667H15.8333H17.5C17.9592 5.83333 18.3333 6.2075 18.3333 6.66667V17.5ZM10 7.7775C8.17333 7.7775 6.68583 9.26417 6.68583 11.0917C6.68583 12.0092 7.07167 12.8825 7.73583 13.505V14.19C7.73583 15.4025 8.7225 16.3892 9.935 16.3892C11.1475 16.3892 12.1342 15.4025 12.1342 14.19V13.6183C12.8808 12.9933 13.3142 12.0783 13.3142 11.0917C13.3133 9.26417 11.8267 7.7775 10 7.7775ZM10.8617 12.4867C10.6158 12.6383 10.4667 12.9067 10.4667 13.195V14.1892C10.4667 14.4825 10.2283 14.7217 9.93417 14.7217C9.64 14.7217 9.40167 14.4825 9.40167 14.1892V13.1117C9.40167 12.8417 9.27083 12.5883 9.05083 12.4325C8.61333 12.1217 8.35167 11.6208 8.35167 11.0917C8.35167 10.1833 9.09083 9.44417 9.99917 9.44417C10.9075 9.44417 11.6467 10.1833 11.6467 11.0917C11.6467 11.6608 11.3533 12.1825 10.8617 12.4867Z" fill="currentColor"/>
</svg>
