<svg width="24" height="24" viewBox="0 0 24 24" fill="none" xmlns="http://www.w3.org/2000/svg">
<path d="M12 0C5.373 0 0 5.373 0 12C0 18.627 5.373 24 12 24C18.627 24 24 18.627 24 12C24 5.373 18.627 0 12 0ZM12 22C6.486 22 2 17.514 2 12C2 6.486 6.486 2 12 2C17.514 2 22 6.486 22 12C22 17.514 17.514 22 12 22ZM12.672 16.327C12.877 16.534 12.979 16.794 12.979 17.108C12.979 17.411 12.879 17.665 12.68 17.869C12.481 18.073 12.199 18.175 11.833 18.175C11.467 18.175 11.187 18.073 10.991 17.869C10.794 17.665 10.696 17.411 10.696 17.108C10.696 16.782 10.798 16.52 11.003 16.318C11.208 16.117 11.484 16.016 11.833 16.016C12.188 16.017 12.467 16.12 12.672 16.327ZM14.635 6.672C15.259 7.237 15.569 8.027 15.569 9.04C15.569 9.943 15.148 10.832 14.307 11.707L13.286 12.712C12.921 13.128 12.732 13.734 12.722 14.531H10.838C10.838 13.795 10.929 13.207 11.112 12.77C11.295 12.333 11.656 11.852 12.195 11.329C12.736 10.806 13.077 10.433 13.221 10.212C13.443 9.875 13.553 9.511 13.553 9.118C13.553 8.599 13.424 8.202 13.168 7.929C12.91 7.656 12.533 7.519 12.035 7.519C11.56 7.519 11.176 7.653 10.885 7.92C10.596 8.187 10.45 8.55 10.45 9.007H8.431C8.442 8.027 8.775 7.252 9.432 6.681C10.087 6.111 10.954 5.826 12.033 5.826C13.145 5.825 14.013 6.107 14.635 6.672Z" fill="currentColor"/>
</svg>
