<svg width="20" height="20" viewBox="0 0 20 20" fill="none" xmlns="http://www.w3.org/2000/svg">
<path d="M17.5 0H9.16667C7.78583 0 6.66667 1.11917 6.66667 2.5V17.5C6.66667 18.8808 7.78583 20 9.16667 20H17.5C18.8808 20 20 18.8808 20 17.5V2.5C20 1.11917 18.8808 0 17.5 0ZM18.3333 17.5C18.3333 17.9592 17.9592 18.3333 17.5 18.3333H9.16667C8.7075 18.3333 8.33333 17.9592 8.33333 17.5V2.5C8.33333 2.04083 8.7075 1.66667 9.16667 1.66667H17.5C17.9592 1.66667 18.3333 2.04083 18.3333 2.5V17.5ZM1.66667 2.5V17.5C1.66667 17.9592 2.04083 18.3333 2.5 18.3333H5.11833C5.28917 18.9917 5.65417 19.5658 6.15167 20H2.5C1.11917 20 0 18.8808 0 17.5V2.5C0 1.11917 1.11917 0 2.5 0H6.15167C5.65417 0.434167 5.28917 1.00833 5.11833 1.66667H2.5C2.04083 1.66667 1.66667 2.04083 1.66667 2.5ZM11.6667 4.16667V15.8333C11.6667 16.2933 11.2933 16.6667 10.8333 16.6667C10.3733 16.6667 10 16.2933 10 15.8333V4.16667C10 3.70667 10.3733 3.33333 10.8333 3.33333C11.2933 3.33333 11.6667 3.70667 11.6667 4.16667Z" fill="currentColor"/>
</svg>
