<svg width="19" height="20" viewBox="0 0 19 20" fill="none" xmlns="http://www.w3.org/2000/svg">
<path d="M14.954 12.9495C13.97 12.9495 13.081 13.355 12.44 14.0062L6.958 10.807C7.019 10.5473 7.06 10.2797 7.06 10.001C7.06 9.72233 7.019 9.45465 6.958 9.19397L12.441 5.99481C13.082 6.64602 13.971 7.05154 14.955 7.05154C16.901 7.05154 18.484 5.47044 18.484 3.52577C18.484 1.5811 16.9 0 14.954 0C13.008 0 11.424 1.5811 11.424 3.52577C11.424 3.76848 11.449 4.00419 11.496 4.23292L5.966 7.45905C5.331 6.85278 4.476 6.47423 3.53 6.47423C1.584 6.47423 0 8.05633 0 10C0 11.9437 1.584 13.5258 3.53 13.5258C4.475 13.5258 5.331 13.1482 5.965 12.5409L11.495 15.7681C11.448 15.9968 11.423 16.2325 11.423 16.4752C11.423 18.4189 13.007 20 14.953 20C16.899 20 18.482 18.4189 18.482 16.4752C18.482 14.5316 16.9 12.9495 14.954 12.9495ZM14.954 1.9976C15.797 1.9976 16.483 2.68278 16.483 3.52577C16.483 4.36876 15.796 5.05394 14.954 5.05394C14.11 5.05394 13.424 4.36876 13.424 3.52577C13.424 2.68278 14.11 1.9976 14.954 1.9976ZM3.53 11.5282C2.686 11.5282 2 10.843 2 10C2 9.15701 2.687 8.47183 3.53 8.47183C4.373 8.47183 5.059 9.15701 5.059 10C5.059 10.843 4.373 11.5282 3.53 11.5282ZM14.954 18.0024C14.11 18.0024 13.424 17.3172 13.424 16.4752C13.424 15.6322 14.111 14.9471 14.954 14.9471C15.797 14.9471 16.483 15.6322 16.483 16.4752C16.483 17.3172 15.797 18.0024 14.954 18.0024Z" fill="currentColor"/>
</svg>
