<svg width="20" height="20" viewBox="0 0 20 20" fill="none" xmlns="http://www.w3.org/2000/svg">
<path d="M11.5442 0C6.88153 0 3.08836 3.79317 3.08836 8.45582C3.08836 10.4257 3.77109 12.2359 4.90463 13.6747L0.294184 18.2861C-0.0983867 18.6787 -0.0983867 19.3133 0.294184 19.7058C0.489967 19.9016 0.746995 20 1.00402 20C1.26105 20 1.51808 19.9016 1.71386 19.7058L6.3243 15.0944C7.76306 16.2279 9.5743 16.9106 11.5442 16.9106C16.2068 16.9106 20 13.1175 20 8.45482C20 3.79217 16.2068 0 11.5442 0ZM11.5442 14.9036C7.98896 14.9036 5.09639 12.011 5.09639 8.45582C5.09639 4.9006 7.98896 2.00803 11.5442 2.00803C15.0994 2.00803 17.992 4.9006 17.992 8.45582C17.992 12.011 15.0994 14.9036 11.5442 14.9036Z" fill="currentColor"/>
</svg>
