<svg width="24" height="24" viewBox="0 0 24 24" fill="none" xmlns="http://www.w3.org/2000/svg">
<path d="M18.5965 7.029C18.9875 7.42 18.9875 8.052 18.5965 8.443L11.3375 15.702L11.3335 15.705L11.3325 15.706C11.1375 15.902 10.8815 16 10.6255 16C10.3695 16 10.1135 15.902 9.9185 15.707L6.4855 12.274C6.0945 11.883 6.0945 11.25 6.4855 10.86C6.8765 10.469 7.5085 10.469 7.8995 10.86L10.6255 13.587L17.1815 7.03C17.5725 6.639 18.2055 6.639 18.5965 7.029ZM20.4845 20.485C18.1415 22.828 15.0705 24 11.9995 24C8.9285 24 5.8575 22.828 3.5145 20.485C-1.1715 15.799 -1.1715 8.201 3.5145 3.514C5.8575 1.172 8.9285 0 11.9995 0C15.0705 0 18.1415 1.172 20.4845 3.515C25.1715 8.201 25.1715 15.799 20.4845 20.485ZM19.0705 4.929C17.1815 3.04 14.6705 2 11.9995 2C9.3285 2 6.8175 3.04 4.9285 4.929C1.0295 8.828 1.0295 15.172 4.9285 19.071C6.8175 20.96 9.3285 22 11.9995 22C14.6705 22 17.1815 20.96 19.0705 19.071C22.9695 15.172 22.9695 8.828 19.0705 4.929Z" fill="currentColor"/>
</svg>
