<svg width="20" height="20" viewBox="0 0 20 20" fill="none" xmlns="http://www.w3.org/2000/svg">
<path d="M17.5 5.83333H17.375C16.7842 2.51917 13.9008 0 10.4167 0H9.58333C6.09917 0 3.21583 2.51917 2.625 5.83333H2.5C1.11917 5.83333 0 6.9525 0 8.33333V11.6667C0 13.0475 1.11917 14.1667 2.5 14.1667H4.16667C5.5475 14.1667 6.66667 13.0475 6.66667 11.6667V8.33333C6.66667 7.005 5.6275 5.92917 4.32 5.84917C4.88 3.45667 7.0225 1.66667 9.58333 1.66667H10.4167C12.9775 1.66667 15.12 3.45667 15.68 5.84917C14.3725 5.92917 13.3333 7.005 13.3333 8.33333V11.6667C13.3333 12.995 14.3725 14.0708 15.68 14.1508C15.2775 15.8692 14.0608 17.2767 12.4558 17.9325C12.4808 17.7917 12.5 17.6483 12.5 17.5C12.5 16.1192 11.3808 15 10 15C8.61917 15 7.5 16.1192 7.5 17.5C7.5 18.8808 8.61917 20 10 20H10.4167C13.9008 20 16.7842 17.4808 17.375 14.1667H17.5C18.8808 14.1667 20 13.0475 20 11.6667V8.33333C20 6.9525 18.8808 5.83333 17.5 5.83333ZM5 8.33333V11.6667C5 12.1258 4.62583 12.5 4.16667 12.5H2.5C2.04083 12.5 1.66667 12.1258 1.66667 11.6667V8.33333C1.66667 7.87417 2.04083 7.5 2.5 7.5H4.16667C4.62583 7.5 5 7.87417 5 8.33333ZM9.16667 17.5C9.16667 17.0408 9.54083 16.6667 10 16.6667C10.4592 16.6667 10.8333 17.0408 10.8333 17.5C10.8333 17.9592 10.4592 18.3333 10 18.3333C9.54083 18.3333 9.16667 17.9592 9.16667 17.5ZM18.3333 11.6667C18.3333 12.1258 17.9592 12.5 17.5 12.5H15.8333C15.3742 12.5 15 12.1258 15 11.6667V8.33333C15 7.87417 15.3742 7.5 15.8333 7.5H17.5C17.9592 7.5 18.3333 7.87417 18.3333 8.33333V11.6667Z" fill="currentColor"/>
</svg>
