<svg width="20" height="20" viewBox="0 0 20 20" fill="none" xmlns="http://www.w3.org/2000/svg">
<path d="M17.002 10C17.002 10.414 16.666 10.75 16.252 10.75H10C9.586 10.75 9.25 10.414 9.25 10V3.748C9.25 3.334 9.586 2.998 10 2.998C10.414 2.998 10.75 3.334 10.75 3.748V9.25H16.252C16.666 9.25 17.002 9.586 17.002 10ZM20 10C20 15.523 15.523 20 10 20C4.477 20 0 15.523 0 10C0 4.477 4.477 0 10 0C15.523 0 20 4.477 20 10ZM18.5 10C18.5 5.313 14.687 1.5 10 1.5C5.313 1.5 1.5 5.313 1.5 10C1.5 14.687 5.313 18.5 10 18.5C14.687 18.5 18.5 14.687 18.5 10Z" fill="currentColor"/>
</svg>
