<svg width="24" height="26" viewBox="0 0 24 26" fill="none" xmlns="http://www.w3.org/2000/svg">
<path d="M16.249 12.831C17.991 11.532 19.123 9.463 19.123 7.123C19.124 3.189 15.934 0 12 0C8.066 0 4.877 3.189 4.877 7.124C4.877 9.463 6.01 11.533 7.751 12.832C3.262 14.332 0 18.577 0 23.553V26H24V23.553C24 18.577 20.738 14.332 16.249 12.831ZM6.877 7.124C6.877 4.298 9.175 2 12 2C14.825 2 17.124 4.298 17.124 7.124C17.124 9.945 14.832 12.239 12.013 12.246H11.988C9.168 12.239 6.877 9.944 6.877 7.124ZM22 24H2V23.553C2 18.421 6.175 14.245 11.308 14.245H11.975C11.984 14.245 11.992 14.246 12 14.246C12.008 14.246 12.017 14.245 12.025 14.245H12.692C17.824 14.245 22 18.42 22 23.553V24Z" fill="currentColor"/>
</svg>
