<svg width="36" height="22" viewBox="0 0 36 22" fill="none" xmlns="http://www.w3.org/2000/svg">
<path d="M19.2228 21.988C20.4203 21.988 20.4203 20.2275 20.4203 19.5443C20.4203 18.3235 21.6189 17.1027 22.8175 17.1027C24.015 17.1027 26.0713 19.1967 27.6119 20.7672C28.8095 21.988 28.8095 21.988 30.0081 21.988C31.2056 21.988 33.6028 21.988 33.6028 21.988C33.6028 21.988 36 21.893 36 19.5443C36 18.7801 35.1794 17.487 32.4031 14.659C30.007 12.2153 28.7798 13.4771 32.4031 8.55299C34.6119 5.55016 36.2202 2.83229 35.9428 2.04974C35.6802 1.30173 29.5358 0.109017 28.8084 1.22186C26.4112 4.88634 25.9718 5.78331 25.2136 7.33006C24.014 9.77377 23.8954 10.9945 22.8164 10.9945C21.7258 10.9945 21.6168 8.62423 21.6168 7.33006C21.6168 3.28994 22.1907 0.436069 20.4182 0C20.4182 0 18.022 0 16.8245 0C14.8942 0 13.2276 1.22186 13.2276 1.22186C13.2276 1.22186 11.741 2.40485 12.0301 2.44263C12.3859 2.4912 14.4273 1.9364 14.4273 3.66449C14.4273 4.88634 14.4273 6.1082 14.4273 6.1082C14.4273 6.1082 14.4379 10.9935 13.2276 10.9935C12.0301 10.9935 9.63289 6.1082 7.23781 2.44155C6.29756 1.0049 6.04132 1.22078 4.84166 1.22078C3.55624 1.22078 2.44764 1.27259 1.24692 1.27259C0.049378 1.27259 -0.104153 2.05082 0.0493781 2.44155C2.44552 8.55191 4.16719 12.3869 8.72018 17.2182C12.8973 21.6512 15.6873 21.8865 18.0242 21.988C18.6213 22.015 18.0242 21.988 19.2228 21.988Z" fill="currentColor"/>
</svg>
