<svg width="18" height="18" viewBox="0 0 18 18" fill="none" xmlns="http://www.w3.org/2000/svg">
<path fill-rule="evenodd" clip-rule="evenodd" d="M15.3774 2.6154C13.6854 0.9297 11.4354 0.0009 9.03798 0C4.09757 0 0.076869 4.0014 0.0750603 8.919C0.0741559 10.4913 0.48744 12.0258 1.2715 13.3785L0 18L4.75141 16.7598C6.06089 17.4708 7.53406 17.8452 9.03436 17.8452H9.03798C13.9775 17.8452 17.9982 13.8438 18.0009 8.9262C18.0009 6.543 17.0694 4.302 15.3774 2.6154ZM13.4222 12.1068C13.2359 12.627 12.3406 13.1022 11.9111 13.1661C11.5249 13.2237 11.0366 13.2471 10.5003 13.0779C10.1747 12.9753 9.75784 12.8385 9.22337 12.6081C6.97699 11.6424 5.51015 9.3915 5.39801 9.243C5.28587 9.0945 4.48372 8.0343 4.48372 6.9372C4.48372 5.8401 5.0625 5.301 5.26779 5.0778C5.47307 4.8546 5.71543 4.7988 5.86465 4.7988C6.01387 4.7988 6.16308 4.7997 6.29421 4.8069C6.43167 4.815 6.61616 4.7556 6.79793 5.1903C6.98422 5.6367 7.43187 6.7338 7.48794 6.8454C7.54401 6.957 7.58199 7.0866 7.50693 7.2351C7.43187 7.3845 7.39479 7.4772 7.28266 7.6077C7.17142 7.7373 7.04753 7.8975 6.94715 7.9974C6.83501 8.109 6.71835 8.2296 6.84857 8.4528C6.9797 8.676 7.42826 9.4059 8.09476 9.9972C8.95026 10.7568 9.67193 10.9917 9.8953 11.1033C10.1196 11.2149 10.2498 11.196 10.38 11.0475C10.5102 10.899 10.9398 10.3968 11.089 10.1736C11.2382 9.9504 11.3875 9.9873 11.5927 10.062C11.798 10.1367 12.8986 10.6758 13.1229 10.7874C13.3472 10.899 13.4964 10.9548 13.5525 11.0475C13.6094 11.1402 13.6094 11.5857 13.4222 12.1068Z" fill="currentColor"/>
</svg>
