<svg width="20" height="16" viewBox="0 0 20 16" fill="none" xmlns="http://www.w3.org/2000/svg">
<path d="M19.5819 13.751L10.8159 0.476C10.6199 0.179 10.3279 0.007 10.0139 0.002L10.0959 0.011L10.0479 0H9.95291C9.93591 0.004 9.91791 0.008 9.90091 0.012L9.98391 0.002C9.67091 0.008 9.37991 0.179 9.18391 0.476L0.417913 13.751C0.0249135 14.326 -0.0970865 14.884 0.0789135 15.315C0.173913 15.549 0.400913 15.852 0.936913 15.968C0.989913 15.982 1.04491 15.992 1.09991 15.996L1.12491 16H18.8739L18.9009 15.997C18.9829 15.987 19.0499 15.975 19.0969 15.962C19.6009 15.854 19.8269 15.55 19.9219 15.317C20.0969 14.884 19.9749 14.326 19.5819 13.751ZM9.99991 13.889C9.50491 13.889 9.10391 13.495 9.10391 13.009C9.10391 12.523 9.50491 12.129 9.99991 12.128C10.4949 12.128 10.8959 12.523 10.8959 13.009C10.8949 13.495 10.4949 13.888 9.99991 13.889ZM10.9609 7.841C10.5789 9.591 10.0669 11.276 10.0669 11.276C10.0619 11.31 10.0339 11.337 9.99891 11.341V11.344L9.99591 11.343L9.99191 11.344V11.34C9.95691 11.336 9.92891 11.31 9.92391 11.275C9.92391 11.275 9.41191 9.59 9.02991 7.84C8.79791 6.749 8.61291 4.328 9.99191 4.306V4.305H9.99891V4.306C11.3779 4.328 11.1929 6.749 10.9609 7.841Z" fill="currentColor"/>
</svg>
