<svg width="24" height="24" viewBox="0 0 24 24" fill="none" xmlns="http://www.w3.org/2000/svg">
<path d="M13.8887 0C8.31359 0 3.77832 4.53632 3.77832 10.1114C3.77832 12.5413 4.641 14.7731 6.07481 16.5194L0.291788 22.3025C-0.0972627 22.6915 -0.0972627 23.3204 0.291788 23.7095C0.485816 23.9025 0.74054 24 0.995263 24C1.24999 24 1.50471 23.9025 1.69874 23.7085L7.48176 17.9254C9.22702 19.3592 11.4588 20.2219 13.8887 20.2219C19.4647 20.2219 24 15.6856 24 10.1104C24 4.53532 19.4647 0 13.8887 0ZM13.8887 18.2318C9.4111 18.2318 5.76835 14.5891 5.76835 10.1104C5.76835 5.63184 9.4111 1.99005 13.8887 1.99005C18.3672 1.99005 22.01 5.63284 22.01 10.1114C22.01 14.59 18.3672 18.2318 13.8887 18.2318ZM19.7125 10.1114C19.7125 10.6607 19.2677 11.1065 18.7175 11.1065H14.8837V14.9393C14.8837 15.4886 14.4389 15.9343 13.8887 15.9343C13.3384 15.9343 12.8936 15.4886 12.8936 14.9393V11.1065H9.06085C8.51061 11.1065 8.06584 10.6607 8.06584 10.1114C8.06584 9.56219 8.51061 9.11642 9.06085 9.11642H12.8936V5.28358C12.8936 4.73433 13.3384 4.28856 13.8887 4.28856C14.4389 4.28856 14.8837 4.73433 14.8837 5.28358V9.11642H18.7175C19.2667 9.11642 19.7125 9.56119 19.7125 10.1114Z" fill="currentColor"/>
</svg>
