<svg width="190" height="93" viewBox="0 0 190 93" fill="none" xmlns="http://www.w3.org/2000/svg">
<g id="logo" clip-path="url(#clip0_202_825)">
<path id="path150_2_" d="M108.311 63.1691C109.742 63.1691 110.782 62.7798 111.52 62.0431C112.257 61.3074 112.604 60.1378 112.604 58.6226C112.604 57.1074 112.257 55.9378 111.52 55.202C110.783 54.4662 109.699 54.0761 108.311 54.0333H106.49V63.2118L108.311 63.1691ZM103.455 72.0011C103.065 72.0011 102.891 71.8283 102.891 71.4381V51.9988C102.891 51.6095 103.064 51.4358 103.455 51.4358H108.875C109.959 51.4358 110.956 51.6087 111.867 51.9988C112.778 52.3881 113.515 52.8646 114.165 53.514C114.815 54.1634 115.335 54.9428 115.682 55.8086C116.029 56.6745 116.246 57.6267 116.246 58.6226C116.246 59.5748 116.073 60.5279 115.682 61.3938C115.335 62.2596 114.815 63.039 114.165 63.6447C113.515 64.2941 112.734 64.8134 111.823 65.2036C110.912 65.5929 109.915 65.7666 108.875 65.7666H106.49V71.4381C106.49 71.8274 106.317 72.0011 105.927 72.0011H103.455ZM89.0601 72.0011C88.6703 72.0011 88.4963 71.8283 88.4963 71.4381V51.9988C88.4963 51.6095 88.6694 51.4358 89.0601 51.4358H99.1629C99.5527 51.4358 99.7266 51.6087 99.7266 51.9988V53.4276C99.7266 53.8169 99.5536 53.9906 99.1629 53.9906H92.095V60.3115H97.732C98.1218 60.3115 98.2958 60.4843 98.2958 60.8744V62.3032C98.2958 62.6925 98.1227 62.8662 97.732 62.8662H92.095V69.4036H99.1629C99.5527 69.4036 99.7266 69.5764 99.7266 69.9665V71.3953C99.7266 71.7846 99.5536 71.9583 99.1629 71.9583L89.0601 72.0011ZM82.7728 72.0011C82.383 72.0011 82.0788 71.8283 81.862 71.5245L74.968 62.6489V71.4381C74.968 71.8274 74.795 72.0011 74.4043 72.0011H71.9332C71.5434 72.0011 71.3694 71.8283 71.3694 71.4381V51.9988C71.3694 51.6095 71.5425 51.4358 71.9332 51.4358H74.4043C74.7941 51.4358 74.968 51.6087 74.968 51.9988V60.788L82.0788 51.8688C82.2955 51.5659 82.5988 51.3922 82.9896 51.3922H85.9379C86.3277 51.3922 86.4151 51.565 86.1546 51.8688L78.1768 61.4802L86.3714 71.5681C86.5882 71.871 86.5445 72.0447 86.1546 72.0447L82.7728 72.0011ZM65.4728 72.0011C65.083 72.0011 64.909 71.8283 64.909 71.4381V62.7353H57.5378V71.4381C57.5378 71.8274 57.3648 72.0011 56.974 72.0011H54.503C54.1132 72.0011 53.9392 71.8283 53.9392 71.4381V51.9988C53.9392 51.6095 54.1123 51.4358 54.503 51.4358H56.974C57.3639 51.4358 57.5378 51.6087 57.5378 51.9988V60.1814H64.909V51.9988C64.909 51.6095 65.0821 51.4358 65.4728 51.4358H67.9439C68.3337 51.4358 68.5077 51.6087 68.5077 51.9988V71.439C68.5077 71.8282 68.3346 72.002 67.9439 72.002L65.4728 72.0011ZM50.817 71.4381C50.817 71.8274 50.6439 72.0011 50.2532 72.0011H47.7821C47.3923 72.0011 47.2183 71.8283 47.2183 71.4381V58.1897H47.1746L39.0229 71.5681C38.7624 71.871 38.4591 72.0447 38.0692 72.0447H36.0745C35.6847 72.0447 35.5108 71.8719 35.5108 71.4817V52.0416C35.5108 51.6523 35.6838 51.4786 36.0745 51.4786H38.5456C38.9354 51.4786 39.1094 51.6514 39.1094 52.0416V65.29H39.1531L47.3049 51.9115C47.5653 51.6087 47.8686 51.435 48.2585 51.435H50.2532C50.643 51.435 50.817 51.6078 50.817 51.9979V71.4381ZM11.4034 72.0011C11.0135 72.0011 10.7093 71.8283 10.4926 71.5245L3.59862 62.6489V71.4381C3.59862 71.8274 3.42556 72.0011 3.03483 72.0011H0.56379C0.173062 72.0011 0 71.8283 0 71.4381V51.9988C0 51.6095 0.173062 51.4358 0.56379 51.4358H3.03483C3.42467 51.4358 3.59862 51.6087 3.59862 51.9988V60.788L10.7093 51.8688C10.9261 51.5659 11.2294 51.3922 11.6201 51.3922H14.5684C14.9583 51.3922 15.0457 51.565 14.7852 51.8688L6.80741 61.4365L15.002 71.5245C15.2188 71.8274 15.1751 72.0011 14.7852 72.0011H11.4034ZM189.87 70.0529C189.956 70.313 190 70.5295 190 70.6159C190 70.746 189.956 70.8324 189.827 70.9188C189.654 71.0488 189.393 71.1789 189.004 71.3517C188.614 71.5245 188.18 71.6546 187.659 71.8283C187.139 71.9583 186.575 72.0884 185.968 72.1748C185.36 72.2612 184.754 72.3048 184.103 72.3048C182.673 72.3048 181.328 72.0884 180.114 71.6554C178.9 71.2225 177.816 70.5732 176.905 69.6637C175.994 68.7979 175.301 67.6719 174.78 66.3295C174.26 64.9871 174 63.4283 174 61.6539C174 59.8795 174.26 58.3197 174.78 56.9782C175.3 55.6358 175.994 54.5535 176.905 53.6441C177.816 52.7782 178.9 52.0852 180.114 51.6523C181.328 51.2194 182.673 51.0029 184.103 51.0029C184.754 51.0029 185.361 51.0466 185.968 51.133C186.574 51.2194 187.138 51.3494 187.659 51.4795C188.179 51.6095 188.613 51.7824 189.004 51.9561C189.393 52.1289 189.698 52.2589 189.827 52.389C189.913 52.4754 189.957 52.5618 190 52.6918C190 52.7782 189.956 52.9519 189.87 53.1684L189.393 54.3807C189.306 54.4671 189.219 54.5108 189.089 54.5108C188.959 54.5108 188.829 54.4671 188.656 54.4244C188.222 54.2943 187.572 54.1643 186.747 53.9915C185.924 53.8187 185.056 53.7314 184.103 53.7314C183.235 53.7314 182.411 53.8614 181.674 54.1643C180.894 54.4244 180.243 54.9001 179.637 55.5067C179.03 56.1124 178.596 56.9355 178.292 57.9741C177.945 58.97 177.772 60.2251 177.772 61.6539C177.772 63.0827 177.945 64.3387 178.292 65.3336C178.639 66.3295 179.073 67.1517 179.68 67.8011C180.243 68.4504 180.937 68.8834 181.717 69.1435C182.497 69.4036 183.278 69.5764 184.145 69.5764C185.099 69.5764 185.966 69.49 186.79 69.3163C187.614 69.1435 188.221 69.0134 188.698 68.8834C188.829 68.8397 188.959 68.8397 189.132 68.797C189.262 68.797 189.393 68.8406 189.479 68.927L189.87 70.0529ZM162.467 72.0011C162.12 72.0011 161.99 71.8283 162.12 71.4817L164.115 66.3295L158.565 51.9124C158.435 51.5659 158.565 51.3931 158.912 51.3931H160.993C161.383 51.3931 161.644 51.5659 161.73 51.9561L166.023 62.8662L170.316 51.9561C170.446 51.6095 170.705 51.3931 171.096 51.3931H173.567C173.914 51.3931 174.044 51.5659 173.914 51.9124L165.849 71.439C165.719 71.7855 165.459 71.9583 165.068 71.9583L162.467 72.0011ZM149.199 56.3716L146.077 64.5542H152.321L149.199 56.3716ZM155.79 72.0011C155.4 72.0011 155.14 71.8283 155.009 71.4381L153.231 66.9352H145.123L143.345 71.4381C143.215 71.7846 142.956 72.0011 142.565 72.0011H140.7C140.527 72.0011 140.397 71.9574 140.311 71.871C140.224 71.7846 140.224 71.6546 140.354 71.4817L148.159 51.9552C148.289 51.6087 148.549 51.4358 148.94 51.4358H150.197C150.587 51.4358 150.848 51.6087 150.978 51.9552L158.783 71.4817C158.956 71.8283 158.827 72.0011 158.436 72.0011H155.79ZM135.454 72.0011C134.977 72.0011 134.631 71.8283 134.413 71.4381L130.337 64.3378L126.088 71.4381C125.958 71.6546 125.828 71.7846 125.611 71.871C125.438 71.9574 125.221 72.0011 124.961 72.0011H122.923C122.62 72.0011 122.446 71.9574 122.403 71.871C122.403 71.7846 122.447 71.6109 122.576 71.3944L128.43 61.5229L122.923 52.0416C122.793 51.8251 122.75 51.6523 122.793 51.565C122.837 51.4786 122.966 51.435 123.27 51.435H125.959C126.479 51.435 126.826 51.6078 127 51.9979L130.642 58.5353L134.544 51.9979C134.761 51.6514 135.108 51.435 135.672 51.435H137.667C137.97 51.435 138.144 51.4786 138.187 51.565C138.187 51.6514 138.143 51.8251 137.97 52.0416L132.42 61.1773L138.447 71.3517C138.62 71.5681 138.664 71.6982 138.62 71.8283C138.576 71.9147 138.403 72.0011 138.1 72.0011H135.454ZM24.5846 56.3716C20.1617 67.9748 22.8505 61.0045 18.7309 71.4817C18.6006 71.8283 18.341 72.0447 17.9503 72.0447H16.0859C15.9128 72.0447 15.7826 72.0011 15.696 71.9147C15.6095 71.8283 15.6095 71.6982 15.7397 71.5254L23.5445 51.9988C23.6747 51.6523 23.9343 51.4795 24.3251 51.4795H25.5829C25.9727 51.4795 26.2332 51.6523 26.3634 51.9988L34.1682 71.5254C34.3412 71.8719 34.2119 72.0447 33.8212 72.0447H31.0888C30.6989 72.0447 30.4384 71.8719 30.3082 71.4817C27.0566 62.909 28.3572 66.2431 24.5846 56.3716Z" fill="#ECECEC"/>
<path id="path152_2_" d="M159.172 85.3361L157.871 88.9731H160.43L159.172 85.3361ZM160.992 90.4456H157.394L156.527 92.8702H154.835L158.391 82.9551H159.995L163.551 92.8702H161.817L160.992 90.4456ZM120.842 85.3361L119.541 88.9731H122.1L120.842 85.3361ZM122.62 90.4456H119.021L118.154 92.8702H116.463L120.019 82.9551H121.623L125.178 92.8702H123.444L122.62 90.4456ZM111.65 87.9772H113.688C114.729 87.9772 115.466 87.2842 115.466 86.2019C115.466 85.1624 114.729 84.4703 113.688 84.4703H111.65V87.9772ZM111.65 89.4497V92.8702H110.002V83.0415H113.904C115.769 83.0415 117.156 84.3839 117.156 86.2456C117.156 88.1073 115.769 89.4497 113.904 89.4497H111.65ZM85.9379 87.718V84.4712H83.6399C82.6863 84.4712 82.0788 85.1642 82.0788 86.0728C82.0788 86.9823 82.6426 87.718 83.6399 87.718H85.9379ZM82.2527 88.9304C81.0823 88.4538 80.432 87.3715 80.432 86.0728C80.432 84.2975 81.6898 82.9987 83.4669 82.9987H87.5427V92.8266H85.8951V89.1032H83.8139L82.036 92.8266H80.2152L82.2527 88.9304ZM74.7076 85.3361L73.4069 88.9731H75.9654L74.7076 85.3361ZM76.4855 90.4456H72.8869L72.0198 92.8702H70.3721L73.9279 82.9551H75.5319L79.0877 92.8702H77.3535L76.4855 90.4456ZM148.462 87.1978H149.892L152.147 82.9978H153.967L151.322 87.8899L154.054 92.8694H152.189L149.978 88.713H148.547V92.8694H146.899V83.0415H148.547L148.462 87.1978ZM143.476 86.0728L139.227 92.8702H137.752V83.0415H139.356V89.2332V89.7526L143.605 82.9987H145.036V92.8266H143.432V87.1114L143.476 86.0728ZM131.205 89.4497L134.067 82.9987H135.845V92.8266H134.241V86.6785V86.3756L131.856 91.788H130.556L128.128 86.3756V86.6785V92.8266H126.524V82.9987H128.344L131.205 89.4497ZM103.715 84.4703V87.3279H107.921L107.965 88.8003H103.716V91.4414H108.703V92.9139H102.068V83.0851H108.529V84.5576H103.716L103.715 84.4703ZM95.2172 87.1978H96.6481L98.9024 82.9978H100.723L98.0781 87.8899L100.81 92.8694H98.9452L96.7338 88.713H95.3029V92.8694H93.6552V83.0415H95.3029L95.2172 87.1978ZM67.4666 88.7139H63.4345V92.8702H61.7868V83.0415H63.4345V87.2415H67.4666V83.0415H69.1143V92.8694H67.4666V88.7139ZM57.5379 84.4703V92.8694H55.8902V84.4703H53.0284V82.9978H60.4424V84.4703H57.5379ZM49.9062 86.0728L45.6572 92.8702H44.1826V83.0415H45.7866V89.2332V89.7526L50.0355 82.9987H51.4664V92.8266H49.8625V87.1114L49.9062 86.0728ZM38.5465 85.3798L35.9015 92.8702H34.2101L37.7659 82.9551H39.3699L42.9257 92.8702H41.1915L38.5465 85.3798ZM32.3029 87.2851C32.0861 85.5535 31.0022 84.4275 29.1378 84.4275C28.4875 84.4275 27.7069 84.6003 27.1003 84.8604L26.5365 85.1205L26.4928 83.4753L26.7533 83.3889C27.5339 83.086 28.401 82.956 29.2681 82.956C32.3029 82.956 34.038 85.0341 34.038 87.9781C34.038 90.9221 32.2601 93.0003 29.2252 93.0003C28.3581 93.0003 27.4473 92.8702 26.6668 92.5674L26.4054 92.4801V90.8348L26.9692 91.0949C27.5758 91.3978 28.4001 91.5279 29.0941 91.5279C30.9148 91.5279 32.0424 90.4883 32.2592 88.8003H28.0968V87.3279L32.3029 87.2851Z" fill="#930000"/>
<path id="path154_2_" d="M102.761 28.9652L137.319 0L147.335 11.906L112.778 40.8712L102.761 28.9652ZM72.7138 28.9652L107.271 0L117.287 11.906L82.7291 40.8712L72.7138 28.9652ZM42.6652 28.9652L77.2223 0L87.2385 11.906L52.6814 40.8712L42.6652 28.9652Z" fill="#930000"/>
</g>
<defs>
<clipPath id="clip0_202_825">
<rect width="190" height="93" fill="white"/>
</clipPath>
</defs>
</svg>
