<svg width="60" height="60" viewBox="0 0 60 60" fill="none" xmlns="http://www.w3.org/2000/svg">
<g id="ico" clip-path="url(#clip0_92_799)">
<path id="Vector" d="M47.526 60H4.321C1.934 60 0 57.707 0 54.879V25.607C0 24.051 0.597 22.58 1.622 21.608L23.224 1.122C24.802 -0.374 27.044 -0.374 28.622 1.122L50.225 21.607C51.25 22.579 51.847 24.05 51.847 25.606V54.878C51.847 57.707 49.912 60 47.526 60Z" fill="url(#paint0_linear_92_799)"/>
<path id="Vector_2" d="M55.6791 60H12.4741C10.0881 60 8.15308 57.707 8.15308 54.879V25.607C8.15308 24.051 8.75008 22.58 9.77508 21.608L31.3781 1.122C32.9561 -0.374 35.1981 -0.374 36.7761 1.122L58.3791 21.607C59.4031 22.579 60.0001 24.051 60.0001 25.607V54.879C60.0001 57.707 58.0661 60 55.6791 60Z" fill="url(#paint1_linear_92_799)"/>
<path id="Vector_3" d="M43.6269 60.0001H24.5259V41.5601C24.5259 38.7991 26.7649 36.5601 29.5259 36.5601H38.6269C41.3879 36.5601 43.6269 38.7991 43.6269 41.5601V60.0001Z" fill="url(#paint2_linear_92_799)"/>
<path id="Vector_4" d="M40.9269 31.5169H27.2259C25.7349 31.5169 24.5259 30.3079 24.5259 28.8169C24.5259 27.3259 25.7349 26.1169 27.2259 26.1169H40.9269C42.4179 26.1169 43.6269 27.3259 43.6269 28.8169C43.6269 30.3079 42.4179 31.5169 40.9269 31.5169Z" fill="url(#paint3_linear_92_799)"/>
<path id="Vector_5" d="M40.9269 21.1161H27.2259C25.7349 21.1161 24.5259 19.9071 24.5259 18.4161C24.5259 16.9251 25.7349 15.7161 27.2259 15.7161H40.9269C42.4179 15.7161 43.6269 16.9251 43.6269 18.4161C43.6269 19.9071 42.4179 21.1161 40.9269 21.1161Z" fill="url(#paint4_linear_92_799)"/>
</g>
<defs>
<linearGradient id="paint0_linear_92_799" x1="45.9583" y1="25.7504" x2="-2.2968" y2="47.9613" gradientUnits="userSpaceOnUse">
<stop stop-color="#AAAAAA"/>
<stop offset="1" stop-color="white"/>
</linearGradient>
<linearGradient id="paint1_linear_92_799" x1="54.1117" y1="25.7504" x2="5.85658" y2="47.9613" gradientUnits="userSpaceOnUse">
<stop stop-color="#AAAAAA"/>
<stop offset="1" stop-color="white"/>
</linearGradient>
<linearGradient id="paint2_linear_92_799" x1="32.4444" y1="48.2799" x2="56.3495" y2="48.2799" gradientUnits="userSpaceOnUse">
<stop stop-color="#930000"/>
<stop offset="1" stop-color="#6D0707"/>
</linearGradient>
<linearGradient id="paint3_linear_92_799" x1="34.0766" y1="25.6108" x2="34.0766" y2="41.9056" gradientUnits="userSpaceOnUse">
<stop stop-color="#AAAAAA"/>
<stop offset="1" stop-color="white"/>
</linearGradient>
<linearGradient id="paint4_linear_92_799" x1="34.0766" y1="15.2102" x2="34.0766" y2="31.5049" gradientUnits="userSpaceOnUse">
<stop stop-color="#AAAAAA"/>
<stop offset="1" stop-color="white"/>
</linearGradient>
<clipPath id="clip0_92_799">
<rect width="60" height="60" fill="white"/>
</clipPath>
</defs>
</svg>
