<svg width="60" height="60" viewBox="0 0 60 60" fill="none" xmlns="http://www.w3.org/2000/svg">
<g id="ico" clip-path="url(#clip0_92_881)">
<path id="Vector" d="M30 60C46.5685 60 60 46.5685 60 30C60 13.4315 46.5685 0 30 0C13.4315 0 0 13.4315 0 30C0 46.5685 13.4315 60 30 60Z" fill="url(#paint0_linear_92_881)"/>
<path id="Vector_2" d="M29.9999 52.2349C42.2799 52.2349 52.2349 42.2799 52.2349 29.9999C52.2349 17.7198 42.2799 7.76489 29.9999 7.76489C17.7198 7.76489 7.76489 17.7198 7.76489 29.9999C7.76489 42.2799 17.7198 52.2349 29.9999 52.2349Z" fill="url(#paint1_linear_92_881)"/>
<path id="Vector_3" d="M52.3189 16.683L48.6749 13.039C48.2329 12.597 47.5159 12.597 47.0739 13.039L30.8409 29.272C30.3989 29.714 29.6819 29.714 29.2399 29.272L23.4979 23.53C23.0559 23.088 22.3389 23.088 21.8969 23.53L18.2529 27.174C17.8109 27.616 17.8109 28.333 18.2529 28.775L24.7959 35.318L29.2409 39.763C29.6829 40.205 30.3999 40.205 30.8419 39.763L35.2869 35.318L52.3209 18.284C52.7619 17.842 52.7619 17.125 52.3189 16.683Z" fill="url(#paint2_linear_92_881)"/>
</g>
<defs>
<linearGradient id="paint0_linear_92_881" x1="48.5304" y1="6.975" x2="11.3762" y2="53.141" gradientUnits="userSpaceOnUse">
<stop stop-color="#AAAAAA"/>
<stop offset="1" stop-color="white"/>
</linearGradient>
<linearGradient id="paint1_linear_92_881" x1="29.9999" y1="7.76539" x2="29.9999" y2="52.2344" gradientUnits="userSpaceOnUse">
<stop stop-color="#AAAAAA"/>
<stop offset="1" stop-color="white"/>
</linearGradient>
<linearGradient id="paint2_linear_92_881" x1="36.4283" y1="23.8722" x2="45.1488" y2="32.5927" gradientUnits="userSpaceOnUse">
<stop stop-color="#930000"/>
<stop offset="1" stop-color="#6D0707"/>
</linearGradient>
<clipPath id="clip0_92_881">
<rect width="60" height="60" fill="white"/>
</clipPath>
</defs>
</svg>
