<svg width="60" height="60" viewBox="0 0 60 60" fill="none" xmlns="http://www.w3.org/2000/svg">
<g id="ico" clip-path="url(#clip0_92_822)">
<path id="Vector" d="M32.1929 1.60197C32.9969 -0.905029 36.6989 -0.319029 36.6889 2.31397C36.6809 4.55397 39.5509 5.48697 40.8609 3.66897C42.4009 1.53297 45.7399 3.23497 44.9169 5.73597C44.2169 7.86397 46.6579 9.63797 48.4659 8.31397C50.5899 6.75797 53.2409 9.40897 51.6849 11.533C50.3619 13.34 52.1349 15.782 54.2629 15.082C56.7639 14.259 58.466 17.599 56.3299 19.138C54.5129 20.448 55.4449 23.318 57.6849 23.31C60.3179 23.3 60.9039 27.002 58.3969 27.806C56.2639 28.49 56.2639 31.508 58.3969 32.192C60.9039 32.996 60.3179 36.698 57.6849 36.688C55.4449 36.68 54.5119 39.55 56.3299 40.86C58.466 42.4 56.7639 45.739 54.2629 44.916C52.1349 44.216 50.3609 46.657 51.6849 48.465C53.2409 50.589 50.5899 53.24 48.4659 51.684C46.6589 50.361 44.2169 52.134 44.9169 54.262C45.7399 56.763 42.3999 58.465 40.8609 56.329C39.5509 54.512 36.6809 55.444 36.6889 57.684C36.6989 60.317 32.9969 60.903 32.1929 58.396C31.5089 56.263 28.4909 56.263 27.8069 58.396C27.0029 60.903 23.3009 60.317 23.3109 57.684C23.3189 55.444 20.4489 54.511 19.1389 56.329C17.5989 58.465 14.2599 56.763 15.0829 54.262C15.7829 52.134 13.3419 50.36 11.5339 51.684C9.40995 53.24 6.75895 50.589 8.31495 48.465C9.63795 46.658 7.86495 44.216 5.73695 44.916C3.23595 45.739 1.53395 42.399 3.66995 40.86C5.48695 39.55 4.55495 36.68 2.31495 36.688C-0.318052 36.698 -0.904052 32.996 1.60295 32.192C3.73595 31.508 3.73595 28.49 1.60295 27.806C-0.904052 27.002 -0.318052 23.3 2.31495 23.31C4.55495 23.318 5.48795 20.448 3.66995 19.138C1.53395 17.598 3.23595 14.259 5.73695 15.082C7.86495 15.782 9.63895 13.341 8.31495 11.533C6.75895 9.40897 9.40995 6.75797 11.5339 8.31397C13.3409 9.63697 15.7829 7.86397 15.0829 5.73597C14.2599 3.23497 17.5999 1.53297 19.1389 3.66897C20.4489 5.48597 23.3189 4.55397 23.3109 2.31397C23.3009 -0.319029 27.0029 -0.905029 27.8069 1.60197C28.4909 3.73497 31.5089 3.73497 32.1929 1.60197Z" fill="url(#paint0_linear_92_822)"/>
<path id="Vector_2" d="M30 10.428C40.792 10.428 49.572 19.208 49.572 30C49.572 40.792 40.792 49.572 30 49.572C19.208 49.572 10.428 40.792 10.428 30C10.428 19.208 19.208 10.428 30 10.428ZM30 8.42798C18.086 8.42798 8.42798 18.086 8.42798 30C8.42798 41.914 18.086 51.572 30 51.572C41.914 51.572 51.572 41.914 51.572 30C51.572 18.086 41.914 8.42798 30 8.42798Z" fill="url(#paint1_linear_92_822)"/>
<path id="Vector_3" d="M17.7661 35.8771C17.6541 35.8771 17.5601 35.8371 17.4801 35.7591C17.4021 35.6811 17.3621 35.5851 17.3621 35.4731V24.5231C17.3621 24.4121 17.4021 24.3171 17.4801 24.2371C17.5591 24.1591 17.6541 24.1191 17.7661 24.1191H19.3451C19.4681 24.1191 19.5661 24.1591 19.6391 24.2371C19.7131 24.3161 19.7481 24.4121 19.7481 24.5231V35.4731C19.7481 35.5851 19.7121 35.6811 19.6391 35.7591C19.5671 35.8371 19.4681 35.8771 19.3451 35.8771H17.7661ZM26.4641 36.0451C25.4241 36.0451 24.5531 35.8911 23.8541 35.5831C23.1541 35.2751 22.6211 34.8721 22.2581 34.3731C21.8941 33.8761 21.7021 33.3521 21.6791 32.8031C21.6791 32.7031 21.7131 32.6181 21.7801 32.5521C21.8471 32.4861 21.9321 32.4511 22.0311 32.4511H23.5261C23.6711 32.4511 23.7801 32.4821 23.8541 32.5441C23.9261 32.6061 23.9911 32.6811 24.0471 32.7711C24.1141 32.9831 24.2421 33.1931 24.4341 33.4011C24.6241 33.6071 24.8841 33.7781 25.2141 33.9121C25.5451 34.0471 25.9621 34.1141 26.4651 34.1141C27.2711 34.1141 27.8741 33.9791 28.2701 33.7111C28.6681 33.4421 28.8671 33.0781 28.8671 32.6191C28.8671 32.2951 28.7601 32.0341 28.5471 31.8391C28.3341 31.6441 28.0071 31.4631 27.5641 31.3021C27.1231 31.1391 26.5381 30.9691 25.8091 30.7891C24.9701 30.5871 24.2671 30.3431 23.7021 30.0581C23.1361 29.7721 22.7111 29.4121 22.4261 28.9761C22.1401 28.5391 21.9981 27.9851 21.9981 27.3131C21.9981 26.6641 22.1741 26.0871 22.5271 25.5831C22.8801 25.0801 23.3841 24.6821 24.0391 24.3911C24.6941 24.1001 25.4741 23.9551 26.3811 23.9551C27.1081 23.9551 27.7521 24.0521 28.3121 24.2491C28.8721 24.4441 29.3371 24.7011 29.7061 25.0211C30.0751 25.3391 30.3581 25.6811 30.5551 26.0451C30.7501 26.4101 30.8541 26.7651 30.8651 27.1121C30.8651 27.2011 30.8341 27.2831 30.7721 27.3551C30.7101 27.4271 30.6241 27.4641 30.5121 27.4641H28.9501C28.8601 27.4641 28.7711 27.4411 28.6811 27.3971C28.5921 27.3521 28.5201 27.2671 28.4641 27.1441C28.3971 26.7971 28.1781 26.5001 27.8081 26.2541C27.4391 26.0081 26.9631 25.8851 26.3811 25.8851C25.7771 25.8851 25.2891 25.9971 24.9201 26.2201C24.5511 26.4441 24.3651 26.7911 24.3651 27.2611C24.3651 27.5751 24.4581 27.8351 24.6421 28.0431C24.8271 28.2491 25.1231 28.4311 25.5321 28.5881C25.9411 28.7451 26.4821 28.9131 27.1531 29.0921C28.1041 29.3041 28.8831 29.5511 29.4871 29.8301C30.0921 30.1101 30.5341 30.4661 30.8141 30.8971C31.0941 31.3281 31.2341 31.8731 31.2341 32.5341C31.2341 33.2721 31.0361 33.9021 30.6381 34.4231C30.2401 34.9441 29.6841 35.3441 28.9671 35.6241C28.2511 35.9051 27.4171 36.0451 26.4641 36.0451ZM37.6831 36.0451C36.6871 36.0451 35.8301 35.8801 35.1141 35.5491C34.3981 35.2201 33.8381 34.7101 33.4341 34.0211C33.0311 33.3321 32.8121 32.4741 32.7791 31.4431C32.7681 30.9621 32.7631 30.4861 32.7631 30.0151C32.7631 29.5451 32.7681 29.0641 32.7791 28.5721C32.8121 27.5521 33.0361 26.7021 33.4501 26.0191C33.8641 25.3361 34.4331 24.8201 35.1561 24.4731C35.8781 24.1271 36.7191 23.9541 37.6831 23.9541C38.6451 23.9541 39.4911 24.1281 40.2181 24.4731C40.9461 24.8201 41.5181 25.3351 41.9321 26.0191C42.3461 26.7021 42.5701 27.5521 42.6031 28.5721C42.6261 29.0641 42.6371 29.5451 42.6371 30.0151C42.6371 30.4871 42.6261 30.9621 42.6031 31.4431C42.5701 32.4731 42.3521 33.3321 41.9481 34.0211C41.5451 34.7101 40.9831 35.2201 40.2601 35.5491C39.5391 35.8801 38.6801 36.0451 37.6831 36.0451ZM37.6831 34.1141C38.4101 34.1141 39.0031 33.8981 39.4621 33.4681C39.9211 33.0361 40.1691 32.3341 40.2011 31.3611C40.2231 30.8681 40.2351 30.4111 40.2351 29.9921C40.2351 29.5721 40.2231 29.1211 40.2011 28.6401C40.1791 27.9911 40.0591 27.4621 39.8401 27.0531C39.6211 26.6441 39.3271 26.3481 38.9581 26.1621C38.5881 25.9771 38.1631 25.8861 37.6821 25.8861C37.2121 25.8861 36.7921 25.9781 36.4221 26.1621C36.0531 26.3481 35.7591 26.6441 35.5401 27.0531C35.3211 27.4621 35.2011 27.9911 35.1791 28.6401C35.1681 29.1211 35.1631 29.5721 35.1631 29.9921C35.1631 30.4121 35.1681 30.8681 35.1791 31.3611C35.2131 32.3341 35.4591 33.0371 35.9181 33.4681C36.3801 33.8981 36.9671 34.1141 37.6831 34.1141Z" fill="url(#paint2_linear_92_822)"/>
</g>
<defs>
<linearGradient id="paint0_linear_92_822" x1="49.371" y1="14.2161" x2="8.44475" y2="47.5635" gradientUnits="userSpaceOnUse">
<stop stop-color="#AAAAAA"/>
<stop offset="1" stop-color="white"/>
</linearGradient>
<linearGradient id="paint1_linear_92_822" x1="-1.24282" y1="56.7312" x2="68.7361" y2="-3.14252" gradientUnits="userSpaceOnUse">
<stop stop-color="#AAAAAA"/>
<stop offset="1" stop-color="white"/>
</linearGradient>
<linearGradient id="paint2_linear_92_822" x1="30.0001" y1="29.1054" x2="30.0001" y2="45.5896" gradientUnits="userSpaceOnUse">
<stop stop-color="#930000"/>
<stop offset="1" stop-color="#6D0707"/>
</linearGradient>
<clipPath id="clip0_92_822">
<rect width="60" height="60" fill="white"/>
</clipPath>
</defs>
</svg>
