<svg width="60" height="60" viewBox="0 0 60 60" fill="none" xmlns="http://www.w3.org/2000/svg">
<g id="ico" clip-path="url(#clip0_92_862)">
<path id="Vector" d="M55 59.9999H5C2.239 59.9999 0 57.7609 0 54.9999V16.4319H60V54.9999C60 57.7609 57.761 59.9999 55 59.9999Z" fill="url(#paint0_linear_92_862)"/>
<path id="Vector_2" d="M60 18.4H0V11.432C0 8.671 2.427 7.144 5 6.432L29.93 0L55 6.432C57.932 7.189 60 8.671 60 11.432V18.4Z" fill="url(#paint1_linear_92_862)"/>
<path id="Vector_3" d="M44.6949 44.6949H31.2019V36.2019C31.2019 33.4409 33.4409 31.2019 36.2019 31.2019H44.6949V44.6949Z" fill="url(#paint2_linear_92_862)"/>
<path id="Vector_4" d="M60.0001 31.2019H46.5071V44.6949H60.0001V31.2019Z" fill="url(#paint3_linear_92_862)"/>
<path id="Vector_5" d="M29.39 60.0001H15.896V51.5071C15.896 48.7461 18.135 46.5071 20.896 46.5071H29.389L29.39 60.0001Z" fill="url(#paint4_linear_92_862)"/>
<path id="Vector_6" d="M44.6949 46.5071H31.2019V60.0001H44.6949V46.5071Z" fill="url(#paint5_linear_92_862)"/>
<path id="Vector_7" d="M55.0001 60.0001H46.5071V46.5071H60.0001V55.0001C60.0001 57.7611 57.7611 60.0001 55.0001 60.0001Z" fill="url(#paint6_linear_92_862)"/>
</g>
<defs>
<linearGradient id="paint0_linear_92_862" x1="40.268" y1="26.1021" x2="4.9203" y2="62.6772" gradientUnits="userSpaceOnUse">
<stop stop-color="#AAAAAA"/>
<stop offset="1" stop-color="white"/>
</linearGradient>
<linearGradient id="paint1_linear_92_862" x1="30" y1="0.698" x2="30" y2="26.1659" gradientUnits="userSpaceOnUse">
<stop stop-color="#AAAAAA"/>
<stop offset="1" stop-color="white"/>
</linearGradient>
<linearGradient id="paint2_linear_92_862" x1="31.2015" y1="37.9481" x2="44.6947" y2="37.9481" gradientUnits="userSpaceOnUse">
<stop stop-color="#930000"/>
<stop offset="1" stop-color="#6D0707"/>
</linearGradient>
<linearGradient id="paint3_linear_92_862" x1="46.507" y1="37.9481" x2="60.0001" y2="37.9481" gradientUnits="userSpaceOnUse">
<stop stop-color="#930000"/>
<stop offset="1" stop-color="#6D0707"/>
</linearGradient>
<linearGradient id="paint4_linear_92_862" x1="15.8964" y1="53.2535" x2="29.3895" y2="53.2535" gradientUnits="userSpaceOnUse">
<stop stop-color="#930000"/>
<stop offset="1" stop-color="#6D0707"/>
</linearGradient>
<linearGradient id="paint5_linear_92_862" x1="31.2015" y1="53.2535" x2="44.6947" y2="53.2535" gradientUnits="userSpaceOnUse">
<stop stop-color="#930000"/>
<stop offset="1" stop-color="#6D0707"/>
</linearGradient>
<linearGradient id="paint6_linear_92_862" x1="46.507" y1="53.2535" x2="60.0001" y2="53.2535" gradientUnits="userSpaceOnUse">
<stop stop-color="#930000"/>
<stop offset="1" stop-color="#6D0707"/>
</linearGradient>
<clipPath id="clip0_92_862">
<rect width="60" height="60" fill="white"/>
</clipPath>
</defs>
</svg>
