<svg width="60" height="60" viewBox="0 0 60 60" fill="none" xmlns="http://www.w3.org/2000/svg">
<g id="ico" clip-path="url(#clip0_92_886)">
<path id="Vector" d="M29.9999 52.3489C42.3429 52.3489 52.3489 42.3429 52.3489 29.9999C52.3489 17.6569 42.3429 7.65088 29.9999 7.65088C17.6569 7.65088 7.65088 17.6569 7.65088 29.9999C7.65088 42.3429 17.6569 52.3489 29.9999 52.3489Z" fill="url(#paint0_linear_92_886)"/>
<path id="Vector_2" d="M30.0001 15.634C34.3173 15.634 37.8171 12.1342 37.8171 7.817C37.8171 3.49979 34.3173 0 30.0001 0C25.6829 0 22.1831 3.49979 22.1831 7.817C22.1831 12.1342 25.6829 15.634 30.0001 15.634Z" fill="url(#paint1_linear_92_886)"/>
<path id="Vector_3" d="M30.0001 60C34.3173 60 37.8171 56.5002 37.8171 52.183C37.8171 47.8658 34.3173 44.366 30.0001 44.366C25.6829 44.366 22.1831 47.8658 22.1831 52.183C22.1831 56.5002 25.6829 60 30.0001 60Z" fill="url(#paint2_linear_92_886)"/>
<path id="Vector_4" d="M52.183 37.8171C56.5002 37.8171 60 34.3173 60 30.0001C60 25.6829 56.5002 22.1831 52.183 22.1831C47.8658 22.1831 44.366 25.6829 44.366 30.0001C44.366 34.3173 47.8658 37.8171 52.183 37.8171Z" fill="url(#paint3_linear_92_886)"/>
<path id="Vector_5" d="M7.817 37.8171C12.1342 37.8171 15.634 34.3173 15.634 30.0001C15.634 25.6829 12.1342 22.1831 7.817 22.1831C3.49979 22.1831 0 25.6829 0 30.0001C0 34.3173 3.49979 37.8171 7.817 37.8171Z" fill="url(#paint4_linear_92_886)"/>
<path id="Vector_6" d="M30.0001 39.5361C35.2667 39.5361 39.5361 35.2667 39.5361 30.0001C39.5361 24.7335 35.2667 20.4641 30.0001 20.4641C24.7335 20.4641 20.4641 24.7335 20.4641 30.0001C20.4641 35.2667 24.7335 39.5361 30.0001 39.5361Z" fill="url(#paint5_linear_92_886)"/>
<path id="Vector_7" d="M30 12.1519C32.3942 12.1519 34.335 10.2111 34.335 7.81693C34.335 5.42278 32.3942 3.48193 30 3.48193C27.6059 3.48193 25.665 5.42278 25.665 7.81693C25.665 10.2111 27.6059 12.1519 30 12.1519Z" fill="url(#paint6_linear_92_886)"/>
<path id="Vector_8" d="M30 56.5179C32.3942 56.5179 34.335 54.5771 34.335 52.1829C34.335 49.7887 32.3942 47.8479 30 47.8479C27.6059 47.8479 25.665 49.7887 25.665 52.1829C25.665 54.5771 27.6059 56.5179 30 56.5179Z" fill="url(#paint7_linear_92_886)"/>
<path id="Vector_9" d="M7.81693 34.335C10.2111 34.335 12.1519 32.3942 12.1519 30C12.1519 27.6059 10.2111 25.665 7.81693 25.665C5.42278 25.665 3.48193 27.6059 3.48193 30C3.48193 32.3942 5.42278 34.335 7.81693 34.335Z" fill="url(#paint8_linear_92_886)"/>
<path id="Vector_10" d="M52.1829 34.335C54.5771 34.335 56.5179 32.3942 56.5179 30C56.5179 27.6059 54.5771 25.665 52.1829 25.665C49.7887 25.665 47.8479 27.6059 47.8479 30C47.8479 32.3942 49.7887 34.335 52.1829 34.335Z" fill="url(#paint9_linear_92_886)"/>
</g>
<defs>
<linearGradient id="paint0_linear_92_886" x1="32.2421" y1="58.0274" x2="26.875" y2="-9.06092" gradientUnits="userSpaceOnUse">
<stop stop-color="#AAAAAA"/>
<stop offset="1" stop-color="white"/>
</linearGradient>
<linearGradient id="paint1_linear_92_886" x1="30.7844" y1="17.6205" x2="28.9071" y2="-5.8455" gradientUnits="userSpaceOnUse">
<stop stop-color="#AAAAAA"/>
<stop offset="1" stop-color="white"/>
</linearGradient>
<linearGradient id="paint2_linear_92_886" x1="30.7844" y1="61.9863" x2="28.9071" y2="38.5203" gradientUnits="userSpaceOnUse">
<stop stop-color="#AAAAAA"/>
<stop offset="1" stop-color="white"/>
</linearGradient>
<linearGradient id="paint3_linear_92_886" x1="42.3795" y1="30.7844" x2="65.8455" y2="28.9071" gradientUnits="userSpaceOnUse">
<stop stop-color="#AAAAAA"/>
<stop offset="1" stop-color="white"/>
</linearGradient>
<linearGradient id="paint4_linear_92_886" x1="-1.9863" y1="30.7844" x2="21.4797" y2="28.9071" gradientUnits="userSpaceOnUse">
<stop stop-color="#AAAAAA"/>
<stop offset="1" stop-color="white"/>
</linearGradient>
<linearGradient id="paint5_linear_92_886" x1="25.4748" y1="21.0098" x2="37.3308" y2="44.5638" gradientUnits="userSpaceOnUse">
<stop stop-color="#AAAAAA"/>
<stop offset="1" stop-color="white"/>
</linearGradient>
<linearGradient id="paint6_linear_92_886" x1="30" y1="2.73393" x2="30" y2="12.8104" gradientUnits="userSpaceOnUse">
<stop stop-color="#930000"/>
<stop offset="1" stop-color="#6D0707"/>
</linearGradient>
<linearGradient id="paint7_linear_92_886" x1="30" y1="47.0997" x2="30" y2="57.1763" gradientUnits="userSpaceOnUse">
<stop stop-color="#930000"/>
<stop offset="1" stop-color="#6D0707"/>
</linearGradient>
<linearGradient id="paint8_linear_92_886" x1="7.81703" y1="24.9169" x2="7.81703" y2="34.9935" gradientUnits="userSpaceOnUse">
<stop stop-color="#930000"/>
<stop offset="1" stop-color="#6D0707"/>
</linearGradient>
<linearGradient id="paint9_linear_92_886" x1="52.1828" y1="24.9169" x2="52.1828" y2="34.9935" gradientUnits="userSpaceOnUse">
<stop stop-color="#930000"/>
<stop offset="1" stop-color="#6D0707"/>
</linearGradient>
<clipPath id="clip0_92_886">
<rect width="60" height="60" fill="white"/>
</clipPath>
</defs>
</svg>
