<svg width="60" height="60" viewBox="0 0 60 60" fill="none" xmlns="http://www.w3.org/2000/svg">
<g id="ico" clip-path="url(#clip0_92_856)">
<path id="Vector" d="M32.132 51.0771L16.066 44.4231L0 51.0771V6.9231H32.132V51.0771Z" fill="url(#paint0_linear_92_856)"/>
<path id="Vector_2" d="M60 51.0771L43.934 44.4231L27.868 51.0771V6.9231H60V51.0771Z" fill="url(#paint1_linear_92_856)"/>
<path id="Vector_3" d="M51.832 60L30 50.958L8.16797 60V0H51.832V60Z" fill="url(#paint2_linear_92_856)"/>
<path id="Vector_4" d="M25.501 24.88C24.362 26.074 22.834 26.67 20.921 26.67C19.008 26.67 17.48 26.074 16.341 24.88C15.202 23.688 14.632 22.016 14.632 19.864C14.632 17.735 15.202 16.076 16.341 14.882C17.48 13.688 19.008 13.092 20.921 13.092C22.834 13.092 24.362 13.688 25.501 14.882C26.64 16.076 27.21 17.735 27.21 19.864C27.21 22.017 26.64 23.689 25.501 24.88ZM20.921 23.09C22.449 23.09 23.21 22.016 23.21 19.864C23.21 17.735 22.449 16.672 20.921 16.672C19.393 16.672 18.632 17.735 18.632 19.864C18.632 22.017 19.393 23.09 20.921 23.09ZM38.628 13.478L25.727 36.057H21.341L34.242 13.479H38.628V13.478ZM34.483 24.67C35.633 23.468 37.166 22.864 39.079 22.864C40.992 22.864 42.52 23.462 43.659 24.654C44.798 25.848 45.368 27.52 45.368 29.67C45.368 31.799 44.798 33.46 43.659 34.652C42.52 35.846 40.992 36.442 39.079 36.442C37.166 36.442 35.633 35.846 34.483 34.652C33.333 33.46 32.759 31.799 32.759 29.67C32.759 27.541 33.333 25.875 34.483 24.67ZM39.079 26.445C37.551 26.445 36.79 27.521 36.79 29.671C36.79 31.8 37.551 32.863 39.079 32.863C40.607 32.863 41.37 31.8 41.37 29.671C41.371 27.521 40.607 26.445 39.079 26.445Z" fill="url(#paint3_linear_92_856)"/>
</g>
<defs>
<linearGradient id="paint0_linear_92_856" x1="16.0661" y1="8.6422" x2="16.0661" y2="67.1401" gradientUnits="userSpaceOnUse">
<stop stop-color="#AAAAAA"/>
<stop offset="1" stop-color="white"/>
</linearGradient>
<linearGradient id="paint1_linear_92_856" x1="43.9339" y1="8.6422" x2="43.9339" y2="67.1401" gradientUnits="userSpaceOnUse">
<stop stop-color="#AAAAAA"/>
<stop offset="1" stop-color="white"/>
</linearGradient>
<linearGradient id="paint2_linear_92_856" x1="52.3226" y1="-0.1592" x2="4.82787" y2="64.0092" gradientUnits="userSpaceOnUse">
<stop stop-color="#AAAAAA"/>
<stop offset="1" stop-color="white"/>
</linearGradient>
<linearGradient id="paint3_linear_92_856" x1="30" y1="18.2741" x2="30" y2="46.35" gradientUnits="userSpaceOnUse">
<stop stop-color="#930000"/>
<stop offset="1" stop-color="#6D0707"/>
</linearGradient>
<clipPath id="clip0_92_856">
<rect width="60" height="60" fill="white"/>
</clipPath>
</defs>
</svg>
