<svg width="32" height="30" viewBox="0 0 32 30" fill="none" xmlns="http://www.w3.org/2000/svg">
<g id="excel" clip-path="url(#clip0_356_5110)">
<path id="Vector" d="M32 7.48438H19.665V14.9974H32V7.48438Z" fill="#5FA168"/>
<path id="Vector_2" d="M32 15H19.665V22.513H32V15Z" fill="#487B46"/>
<path id="Vector_3" d="M19.6651 7.48438H7.35596V14.9974H19.6651V7.48438Z" fill="#487B46"/>
<path id="Vector_4" d="M19.6651 22.513V15H7.38074V22.513V23.597V28.538C7.38074 29.345 8.03078 30 8.83167 30H30.5233C31.3242 30 31.9742 29.345 31.9742 28.538V22.513H19.6651Z" fill="#385B3C"/>
<path id="Vector_5" d="M30.5233 0H19.6403V7.513H32V1.463C31.9742 0.655 31.3242 0 30.5233 0Z" fill="#75C283"/>
<path id="Vector_6" d="M19.665 0H8.85645C8.05655 0 7.40552 0.655 7.40552 1.462V7.487H19.6898V0H19.665Z" fill="#5FA168"/>
<path id="Vector_7" d="M14.8617 23.1907H1.60079C0.725468 23.1907 0 22.4597 0 21.5777V8.41769C0 7.53569 0.725468 6.80469 1.60079 6.80469H14.8607C15.736 6.80469 16.4615 7.53569 16.4615 8.41769V21.5777C16.4625 22.4597 15.7618 23.1907 14.8617 23.1907Z" fill="#4E8450"/>
<g id="Group">
<path id="Vector_8" d="M10.108 19.6359L9.1324 17.8459C8.73245 17.1399 8.48236 16.6609 8.20646 16.1319H8.18165C7.95637 16.6609 7.73108 17.1399 7.35594 17.8459L6.48062 19.6359H4.57812L7.28052 15.0729L4.65355 10.5859H6.57986L7.55542 12.4519C7.85613 13.0069 8.08042 13.4599 8.3057 13.9649H8.35532C8.60542 13.4099 8.78108 13.0069 9.08079 12.4519L10.0564 10.5859H11.9579L9.28226 14.9969L12.0591 19.6359H10.108Z" fill="white"/>
</g>
<path id="Vector_9" opacity="0.2" d="M16.6629 8.26562C16.6629 8.31563 16.6629 8.36663 16.6629 8.41663V21.5766C16.6629 22.4586 15.9375 23.1896 15.0621 23.1896H7.58118V24.6266H16.388C17.2634 24.6266 17.9888 23.8956 17.9888 23.0136V9.85363C18.0136 9.04663 17.4132 8.36663 16.6629 8.26562Z" fill="black"/>
</g>
<defs>
<clipPath id="clip0_356_5110">
<rect width="32" height="30" fill="white"/>
</clipPath>
</defs>
</svg>
