<svg width="32" height="30" viewBox="0 0 32 30" fill="none" xmlns="http://www.w3.org/2000/svg">
<g id="jpeg" clip-path="url(#clip0_356_5166)">
<path id="Vector" d="M32 7.487H7.38074V1.462C7.38074 0.655 8.03078 0 8.83167 0H30.5233C31.3242 0 31.9742 0.655 31.9742 1.462V7.487H32Z" fill="#EF8137"/>
<path id="Vector_2" d="M32 7.48438H7.38074V14.9974H32V7.48438Z" fill="#DD7517"/>
<path id="Vector_3" d="M32 15H7.38074V22.513H32V15Z" fill="#CE6200"/>
<path id="Vector_4" d="M30.5481 30.0026H8.85645C8.05556 30.0026 7.40552 29.3476 7.40552 28.5406V22.5156H32V28.5406C32 29.3476 31.3489 30.0026 30.5481 30.0026Z" fill="#BA5800"/>
<path id="Vector_5" opacity="0.2" d="M21.4246 8.26562C21.4246 8.31563 21.4246 8.36663 21.4246 8.41663V21.5766C21.4246 22.4586 20.6992 23.1896 19.8238 23.1896H7.40552V24.6266H21.1745C22.0499 24.6266 22.7753 23.8956 22.7753 23.0136V9.85363C22.7763 9.04663 22.2007 8.36663 21.4246 8.26562Z" fill="black"/>
<path id="Vector_6" d="M19.8238 23.1907H1.60079C0.725468 23.1907 0 22.4597 0 21.5777V8.41769C0 7.53569 0.725468 6.80469 1.60079 6.80469H19.8229C20.6982 6.80469 21.4236 7.53569 21.4236 8.41769V21.5777C21.4246 22.4597 20.724 23.1907 19.8238 23.1907Z" fill="#F78C34"/>
<path id="Vector_7" fill-rule="evenodd" clip-rule="evenodd" d="M16.3275 18.3003C15.9493 18.6023 15.343 18.7533 14.5063 18.7533C13.8176 18.7533 13.2152 18.6212 12.6991 18.3552L13.0336 17.4233C13.5109 17.6473 14.0032 17.7593 14.5073 17.7593C14.9768 17.7593 15.3023 17.6912 15.4859 17.5562C15.6695 17.4202 15.7608 17.1923 15.7608 16.8713V16.4913C15.3856 16.8363 14.9321 17.0082 14.4012 17.0082C13.8384 17.0082 13.3958 16.8053 13.0733 16.3993C12.7507 15.9922 12.589 15.4083 12.589 14.6453C12.589 14.1683 12.6644 13.7472 12.8162 13.3842C12.9671 13.0202 13.1884 12.7392 13.4802 12.5402C13.7719 12.3412 14.1243 12.2423 14.5381 12.2423C14.7813 12.2423 15.0244 12.2962 15.2675 12.4032C15.5107 12.5112 15.7151 12.6473 15.8789 12.8123L16.0277 12.3752H16.8941V16.9202C16.8941 17.5373 16.7056 17.9983 16.3275 18.3003ZM15.7598 13.6593C15.4482 13.3823 15.1107 13.2443 14.7435 13.2443C14.4686 13.2443 14.2354 13.3703 14.0439 13.6243C13.8533 13.8773 13.7581 14.2112 13.7581 14.6272C13.7581 15.0982 13.8424 15.4462 14.0111 15.6702C14.1798 15.8942 14.3992 16.0053 14.6691 16.0053C15.0442 16.0053 15.4085 15.8542 15.7598 15.5503V13.6593ZM11.0884 16.8442C10.8105 17.0442 10.4771 17.1443 10.09 17.1443C9.57991 17.1443 9.14424 16.9843 8.78398 16.6632V18.7533H7.64963V12.3743H8.69566V12.8293C8.90704 12.6463 9.12935 12.5033 9.36158 12.3983C9.5948 12.2933 9.86176 12.2413 10.1645 12.2413C10.748 12.2413 11.1916 12.4473 11.4963 12.8603C11.802 13.2723 11.9538 13.8712 11.9538 14.6582C11.9538 15.1562 11.8794 15.5953 11.7295 15.9753C11.5817 16.3543 11.3673 16.6442 11.0884 16.8442ZM10.5525 13.6213C10.3967 13.3693 10.1654 13.2443 9.85779 13.2443C9.6732 13.2443 9.48365 13.2873 9.28814 13.3743C9.09362 13.4613 8.92491 13.5683 8.78498 13.6943V15.7222C8.90506 15.8313 9.05392 15.9283 9.23157 16.0123C9.40921 16.0963 9.59182 16.1383 9.77939 16.1383C10.09 16.1383 10.3361 16.0052 10.5158 15.7382C10.6954 15.4712 10.7857 15.1173 10.7857 14.6763C10.7847 14.2243 10.7073 13.8733 10.5525 13.6213ZM5.97838 11.6892C5.73721 11.6892 5.57346 11.6393 5.48514 11.5393C5.3978 11.4393 5.35314 11.2963 5.35314 11.1103C5.35314 10.9043 5.39979 10.7563 5.49407 10.6663C5.58835 10.5763 5.74912 10.5312 5.97838 10.5312C6.20663 10.5312 6.37039 10.5743 6.46864 10.6613C6.56689 10.7483 6.61552 10.8973 6.61552 11.1093C6.61552 11.3243 6.56292 11.4743 6.45772 11.5603C6.35252 11.6463 6.19175 11.6892 5.97838 11.6892ZM5.41964 12.3743H6.55399V17.2073C6.55399 17.7613 6.43092 18.1573 6.1848 18.3953C5.93868 18.6343 5.53575 18.7533 4.97503 18.7533C4.84899 18.7533 4.68325 18.7393 4.47782 18.7113C4.27238 18.6833 4.11459 18.6532 4.00244 18.6213L4.24856 17.6313C4.46293 17.7163 4.68424 17.7593 4.9125 17.7593C5.14076 17.7593 5.28268 17.6883 5.33726 17.5473C5.39185 17.4063 5.41864 17.1723 5.41864 16.8453L5.41964 12.3743Z" fill="white"/>
</g>
<defs>
<clipPath id="clip0_356_5166">
<rect width="32" height="30" fill="white"/>
</clipPath>
</defs>
</svg>
