<svg width="32" height="30" viewBox="0 0 32 30" fill="none" xmlns="http://www.w3.org/2000/svg">
<g id="pdf" clip-path="url(#clip0_356_5140)">
<path id="Vector" d="M32 7.487H7.38074V1.462C7.38074 0.655 8.03078 0 8.83167 0H30.5233C31.3242 0 31.9742 0.655 31.9742 1.462V7.487H32Z" fill="#BF1919"/>
<path id="Vector_2" d="M32 7.48438H7.38074V14.9974H32V7.48438Z" fill="#AC0E0E"/>
<path id="Vector_3" d="M32 15H7.38074V22.513H32V15Z" fill="#9B1212"/>
<path id="Vector_4" d="M30.5481 30.0026H8.85645C8.05556 30.0026 7.40552 29.3476 7.40552 28.5406V22.5156H32V28.5406C32 29.3476 31.3489 30.0026 30.5481 30.0026Z" fill="#910A0A"/>
<path id="Vector_5" opacity="0.2" d="M21.4246 8.26562C21.4246 8.31563 21.4246 8.36663 21.4246 8.41663V21.5766C21.4246 22.4586 20.6992 23.1896 19.8238 23.1896H7.40552V24.6266H21.1745C22.0499 24.6266 22.7753 23.8956 22.7753 23.0136V9.85363C22.7763 9.04663 22.2007 8.36663 21.4246 8.26562Z" fill="black"/>
<path id="Vector_6" d="M19.8238 23.1907H1.60079C0.725468 23.1907 0 22.4597 0 21.5777V8.41769C0 7.53569 0.725468 6.80469 1.60079 6.80469H19.8229C20.6982 6.80469 21.4236 7.53569 21.4236 8.41769V21.5777C21.4246 22.4597 20.724 23.1907 19.8238 23.1907Z" fill="#C63939"/>
<path id="Vector_7" fill-rule="evenodd" clip-rule="evenodd" d="M16.929 11.7689C16.7196 11.6989 16.5171 11.6639 16.3216 11.6639C16.1003 11.6639 15.9484 11.7099 15.8651 11.8019C15.7827 11.8939 15.741 12.0569 15.741 12.2909V12.7389H16.6709V13.6379H15.741V17.3399H14.6136V13.6379H14.033V12.7389H14.6136V12.2909C14.6136 11.7209 14.7545 11.3089 15.0354 11.0539C15.3163 10.7989 15.739 10.6719 16.3037 10.6719C16.5687 10.6719 16.8496 10.7079 17.1473 10.7819L16.929 11.7689ZM12.207 16.8929C11.9976 17.0709 11.7753 17.2139 11.543 17.3189C11.3098 17.4239 11.0458 17.4769 10.7481 17.4769C10.1715 17.4769 9.72986 17.2679 9.42419 16.8499C9.11852 16.4319 8.96569 15.8409 8.96569 15.0779C8.96569 14.2969 9.13341 13.6909 9.46984 13.2579C9.80628 12.8249 10.2787 12.6089 10.887 12.6089C11.1024 12.6089 11.3237 12.6539 11.551 12.7429C11.7782 12.8319 11.9658 12.9459 12.1147 13.0829V10.8109H13.2421V17.3429H12.207V16.8929ZM12.1157 14.0149C11.9966 13.9069 11.8487 13.8109 11.6721 13.7269C11.4964 13.6439 11.3158 13.6019 11.1322 13.6019C10.8295 13.6019 10.5863 13.7329 10.4027 13.9939C10.2191 14.2559 10.1278 14.6099 10.1278 15.0579C10.1278 15.4999 10.2033 15.8459 10.3521 16.0979C10.502 16.3499 10.7342 16.4749 11.0488 16.4749C11.2354 16.4749 11.4249 16.4319 11.6185 16.3459C11.812 16.2599 11.9777 16.1529 12.1137 16.0279V14.0149H12.1157ZM7.2984 17.1779C7.02151 17.3769 6.69103 17.4759 6.30696 17.4759C5.79983 17.4759 5.36812 17.3169 5.00985 16.9979V19.0729H3.88245V12.7389H4.92152V13.1899C5.13093 13.0089 5.35224 12.8659 5.58348 12.7619C5.81471 12.6579 6.08068 12.6059 6.3804 12.6059C6.95998 12.6059 7.40161 12.8109 7.7043 13.2199C8.007 13.6289 8.15884 14.2239 8.15884 15.0049C8.15884 15.4999 8.08441 15.9349 7.93554 16.3119C7.78668 16.6909 7.5743 16.9789 7.2984 17.1779ZM6.76546 13.9779C6.61064 13.7279 6.38139 13.6029 6.07572 13.6029C5.89212 13.6029 5.70356 13.6459 5.51004 13.7319C5.31651 13.8179 5.14978 13.9249 5.00985 14.0499V16.0629C5.12894 16.1719 5.27681 16.2669 5.45347 16.3509C5.62913 16.4339 5.81074 16.4759 5.99732 16.4759C6.30597 16.4759 6.55011 16.3439 6.72874 16.0789C6.90738 15.8139 6.99769 15.4629 6.99769 15.0239C6.9967 14.5769 6.91929 14.2279 6.76546 13.9779Z" fill="white"/>
</g>
<defs>
<clipPath id="clip0_356_5140">
<rect width="32" height="30" fill="white"/>
</clipPath>
</defs>
</svg>
