<svg width="60" height="60" viewBox="0 0 60 60" fill="none" xmlns="http://www.w3.org/2000/svg">
<g id="ico" clip-path="url(#clip0_322_10522)">
<path id="Vector" d="M46.905 49.3145H13.095V59.9995H46.905V49.3145Z" fill="url(#paint0_linear_322_10522)"/>
<g id="Group">
<path id="Vector_2" d="M30.364 56.9213H29.636C16.733 56.9213 6.27301 46.4613 6.27301 33.5583V22.5913C6.27301 11.2803 15.442 2.11133 26.753 2.11133H33.245C44.556 2.11133 53.725 11.2803 53.725 22.5913V33.5583C53.727 46.4613 43.267 56.9213 30.364 56.9213Z" fill="url(#paint1_linear_322_10522)"/>
<path id="Vector_3" d="M49.142 10.4871C49.142 10.4871 53.193 13.1901 47.866 18.1881C40.968 24.6601 28.958 19.7951 20.842 22.0151C10.307 24.8971 7.01398 32.2651 7.01398 32.2651L7.96798 15.4481C7.96798 15.4481 12.535 7.04311 23.11 2.55011C28.084 0.437114 36.669 -0.000885963 44.465 5.90511C45.769 6.89311 49.142 10.4871 49.142 10.4871Z" fill="url(#paint2_linear_322_10522)"/>
<path id="Vector_4" d="M8.34198 24.301C8.34198 12.556 17.898 3 29.644 3H30.357C42.103 3 51.658 12.556 51.658 24.301V26.021H54.658V24.301C54.658 10.88 43.778 0 30.356 0H29.643C16.222 0 5.34198 10.88 5.34198 24.301V26.021H8.34198V24.301Z" fill="url(#paint3_linear_322_10522)"/>
<path id="Vector_5" d="M8.297 23.4336H5.238C2.897 23.4336 1 25.3316 1 27.6716V34.8806C1 37.2216 2.897 39.1186 5.238 39.1186H8.297C10.638 39.1186 12.535 37.2216 12.535 34.8806V27.6716C12.535 25.3316 10.638 23.4336 8.297 23.4336Z" fill="url(#paint4_linear_322_10522)"/>
<path id="Vector_6" d="M54.762 23.4336H51.703C49.362 23.4336 47.465 25.3306 47.465 27.6716V34.8806C47.465 37.0966 49.172 38.8946 51.339 39.0816C50.509 41.5566 48.177 43.3466 45.426 43.3466H35.74V43.0586C35.74 41.9886 34.873 41.1216 33.803 41.1216H26.197C25.127 41.1216 24.26 41.9886 24.26 43.0586V46.3896C24.26 47.4596 25.127 48.3266 26.197 48.3266H33.803C34.873 48.3266 35.74 47.4596 35.74 46.3896V46.3466H45.426C49.838 46.3466 53.516 43.2526 54.437 39.1186H54.762C57.103 39.1186 59 37.2216 59 34.8806V27.6716C59 25.3316 57.103 23.4336 54.762 23.4336Z" fill="url(#paint5_linear_322_10522)"/>
</g>
</g>
<defs>
<linearGradient id="paint0_linear_322_10522" x1="30" y1="44.1521" x2="30" y2="75.2562" gradientUnits="userSpaceOnUse">
<stop stop-color="#AAAAAA"/>
<stop offset="1" stop-color="white"/>
</linearGradient>
<linearGradient id="paint1_linear_322_10522" x1="30" y1="4.92143" x2="30" y2="71.7038" gradientUnits="userSpaceOnUse">
<stop stop-color="#AAAAAA"/>
<stop offset="1" stop-color="white"/>
</linearGradient>
<linearGradient id="paint2_linear_322_10522" x1="28.8155" y1="2.71451" x2="28.8155" y2="40.6659" gradientUnits="userSpaceOnUse">
<stop stop-color="#AAAAAA"/>
<stop offset="1" stop-color="white"/>
</linearGradient>
<linearGradient id="paint3_linear_322_10522" x1="5.34218" y1="13.0106" x2="54.6579" y2="13.0106" gradientUnits="userSpaceOnUse">
<stop stop-color="#AAAAAA"/>
<stop offset="1" stop-color="white"/>
</linearGradient>
<linearGradient id="paint4_linear_322_10522" x1="4.6583" y1="24.5917" x2="10.115" y2="41.883" gradientUnits="userSpaceOnUse">
<stop stop-color="#930000"/>
<stop offset="1" stop-color="#6D0707"/>
</linearGradient>
<linearGradient id="paint5_linear_322_10522" x1="39.9605" y1="33.3582" x2="50.6613" y2="55.1849" gradientUnits="userSpaceOnUse">
<stop stop-color="#930000"/>
<stop offset="1" stop-color="#6D0707"/>
</linearGradient>
<clipPath id="clip0_322_10522">
<rect width="60" height="60" fill="white"/>
</clipPath>
</defs>
</svg>
