<svg width="60" height="60" viewBox="0 0 60 60" fill="none" xmlns="http://www.w3.org/2000/svg">
<g id="ico" clip-path="url(#clip0_322_10485)">
<path id="Vector" d="M59.993 40.7284C59.993 37.6854 57.911 34.0464 51.095 32.0574C50.777 31.9644 39.291 19.6094 38.956 19.6094C29.988 19.6094 3.084 19.6094 3.084 19.6094C1.381 19.6094 0 20.9904 0 22.6934V38.8244V40.5464V49.8944C0 51.5974 1.381 52.9784 3.084 52.9784H53.237H56.906C58.609 52.9784 59.99 51.5974 59.99 49.8944V42.2744C60.012 41.7284 59.993 41.5374 59.993 40.7284Z" fill="url(#paint0_linear_322_10485)"/>
<path id="Vector_2" d="M43.371 32.0592L28.518 32.0652C27.68 32.0652 27 31.3862 27 30.5472V23.5922C27 22.7542 27.68 22.0742 28.518 22.0742H37.404L44.471 29.4952C45.389 30.4612 44.705 32.0592 43.371 32.0592Z" fill="url(#paint1_linear_322_10485)"/>
<path id="Vector_3" d="M19 32.064H6.83499C5.88999 32.064 5.12299 31.298 5.12299 30.352V30.294C5.12299 29.349 5.88899 28.582 6.83499 28.582H19C19.945 28.582 20.712 29.348 20.712 30.294V30.352C20.711 31.298 19.945 32.064 19 32.064Z" fill="url(#paint2_linear_322_10485)"/>
<path id="Vector_4" d="M19 25.5562H6.83499C5.88999 25.5562 5.12299 24.7902 5.12299 23.8442V23.7862C5.12299 22.8412 5.88899 22.0742 6.83499 22.0742H19C19.945 22.0742 20.712 22.8402 20.712 23.7862V23.8442C20.711 24.7892 19.945 25.5562 19 25.5562Z" fill="url(#paint3_linear_322_10485)"/>
<path id="Vector_5" d="M13.256 60C17.6284 60 21.173 56.4555 21.173 52.083C21.173 47.7106 17.6284 44.166 13.256 44.166C8.88355 44.166 5.33899 47.7106 5.33899 52.083C5.33899 56.4555 8.88355 60 13.256 60Z" fill="url(#paint4_linear_322_10485)"/>
<path id="Vector_6" d="M13.256 56.4734C15.6805 56.4734 17.646 54.5079 17.646 52.0834C17.646 49.6588 15.6805 47.6934 13.256 47.6934C10.8315 47.6934 8.866 49.6588 8.866 52.0834C8.866 54.5079 10.8315 56.4734 13.256 56.4734Z" fill="url(#paint5_linear_322_10485)"/>
<path id="Vector_7" d="M46.256 60C50.6284 60 54.173 56.4555 54.173 52.083C54.173 47.7106 50.6284 44.166 46.256 44.166C41.8836 44.166 38.339 47.7106 38.339 52.083C38.339 56.4555 41.8836 60 46.256 60Z" fill="url(#paint6_linear_322_10485)"/>
<path id="Vector_8" d="M46.256 56.4734C48.6806 56.4734 50.646 54.5079 50.646 52.0834C50.646 49.6588 48.6806 47.6934 46.256 47.6934C43.8315 47.6934 41.866 49.6588 41.866 52.0834C41.866 54.5079 43.8315 56.4734 46.256 56.4734Z" fill="url(#paint7_linear_322_10485)"/>
<g id="Group">
<path id="Vector_9" d="M34.501 0.616232C33.132 0.234232 31.756 -0.0407684 30.396 0.00523155C29.036 -0.0417684 27.66 0.233232 26.291 0.616232C19.778 2.43523 15 8.41223 15 15.5062C15 24.7952 26.423 31.6212 29.63 38.9182C29.782 39.2642 30.085 39.4222 30.396 39.4362C30.707 39.4212 31.01 39.2632 31.162 38.9182C34.369 31.6212 45.792 24.7962 45.792 15.5062C45.792 8.41223 41.014 2.43523 34.501 0.616232Z" fill="url(#paint8_linear_322_10485)"/>
<path id="Vector_10" d="M30.396 23.8733C34.9783 23.8733 38.693 20.1586 38.693 15.5763C38.693 10.994 34.9783 7.2793 30.396 7.2793C25.8137 7.2793 22.099 10.994 22.099 15.5763C22.099 20.1586 25.8137 23.8733 30.396 23.8733Z" fill="url(#paint9_linear_322_10485)"/>
<path id="Vector_11" d="M30.396 20.5844C33.1618 20.5844 35.404 18.3422 35.404 15.5764C35.404 12.8105 33.1618 10.5684 30.396 10.5684C27.6302 10.5684 25.388 12.8105 25.388 15.5764C25.388 18.3422 27.6302 20.5844 30.396 20.5844Z" fill="url(#paint10_linear_322_10485)"/>
</g>
</g>
<defs>
<linearGradient id="paint0_linear_322_10485" x1="30" y1="16.3283" x2="30" y2="62.217" gradientUnits="userSpaceOnUse">
<stop stop-color="#AAAAAA"/>
<stop offset="1" stop-color="white"/>
</linearGradient>
<linearGradient id="paint1_linear_322_10485" x1="34.6309" y1="23.1632" x2="36.6504" y2="34.5009" gradientUnits="userSpaceOnUse">
<stop stop-color="#AAAAAA"/>
<stop offset="1" stop-color="white"/>
</linearGradient>
<linearGradient id="paint2_linear_322_10485" x1="12.9172" y1="28.4685" x2="12.9172" y2="32.4367" gradientUnits="userSpaceOnUse">
<stop stop-color="#AAAAAA"/>
<stop offset="1" stop-color="white"/>
</linearGradient>
<linearGradient id="paint3_linear_322_10485" x1="12.9172" y1="21.9603" x2="12.9172" y2="25.9285" gradientUnits="userSpaceOnUse">
<stop stop-color="#AAAAAA"/>
<stop offset="1" stop-color="white"/>
</linearGradient>
<linearGradient id="paint4_linear_322_10485" x1="13.2559" y1="60.1599" x2="13.2559" y2="42.6473" gradientUnits="userSpaceOnUse">
<stop stop-color="#AAAAAA"/>
<stop offset="1" stop-color="white"/>
</linearGradient>
<linearGradient id="paint5_linear_322_10485" x1="13.2559" y1="46.9351" x2="13.2559" y2="57.1407" gradientUnits="userSpaceOnUse">
<stop stop-color="#AAAAAA"/>
<stop offset="1" stop-color="white"/>
</linearGradient>
<linearGradient id="paint6_linear_322_10485" x1="46.2559" y1="60.1599" x2="46.2559" y2="42.6473" gradientUnits="userSpaceOnUse">
<stop stop-color="#AAAAAA"/>
<stop offset="1" stop-color="white"/>
</linearGradient>
<linearGradient id="paint7_linear_322_10485" x1="46.2559" y1="46.9351" x2="46.2559" y2="57.1407" gradientUnits="userSpaceOnUse">
<stop stop-color="#AAAAAA"/>
<stop offset="1" stop-color="white"/>
</linearGradient>
<linearGradient id="paint8_linear_322_10485" x1="33.5856" y1="8.10493" x2="20.7171" y2="36.4987" gradientUnits="userSpaceOnUse">
<stop stop-color="#AAAAAA"/>
<stop offset="1" stop-color="white"/>
</linearGradient>
<linearGradient id="paint9_linear_322_10485" x1="30.3956" y1="24.3647" x2="30.3956" y2="8.9318" gradientUnits="userSpaceOnUse">
<stop stop-color="#930000"/>
<stop offset="1" stop-color="#6D0707"/>
</linearGradient>
<linearGradient id="paint10_linear_322_10485" x1="30.3956" y1="9.14766" x2="30.3956" y2="18.6641" gradientUnits="userSpaceOnUse">
<stop stop-color="#930000"/>
<stop offset="1" stop-color="#6D0707"/>
</linearGradient>
<clipPath id="clip0_322_10485">
<rect width="60.002" height="60" fill="white"/>
</clipPath>
</defs>
</svg>
