<svg width="60" height="60" viewBox="0 0 60 60" fill="none" xmlns="http://www.w3.org/2000/svg">
<g id="Frame" clip-path="url(#clip0_322_10543)">
<path id="Vector" d="M30 60C46.5685 60 60 46.5685 60 30C60 13.4315 46.5685 0 30 0C13.4315 0 0 13.4315 0 30C0 46.5685 13.4315 60 30 60Z" fill="url(#paint0_linear_322_10543)"/>
<path id="Vector_2" d="M30 52.2356C42.2801 52.2356 52.235 42.2807 52.235 30.0006C52.235 17.7206 42.2801 7.76562 30 7.76562C17.72 7.76562 7.76501 17.7206 7.76501 30.0006C7.76501 42.2807 17.72 52.2356 30 52.2356Z" fill="url(#paint1_linear_322_10543)"/>
<path id="Vector_3" d="M39.47 22.9228C39.47 25.3798 38.325 27.7978 36.037 30.1788L33.259 32.9148C32.611 33.6518 32.168 34.6098 31.93 35.7878C31.686 36.9948 30.627 37.8658 29.395 37.8658C27.78 37.8658 26.548 36.3978 26.843 34.8108C26.964 34.1578 27.131 33.5788 27.342 33.0728C27.839 31.8818 28.823 30.5758 30.288 29.1508C31.759 27.7268 32.688 26.7128 33.079 26.1098C33.682 25.1938 33.982 24.2018 33.982 23.1338C33.982 21.7208 33.63 20.6418 32.933 19.8978C32.23 19.1538 31.204 18.7818 29.849 18.7818C28.555 18.7818 27.513 19.1468 26.719 19.8738C26.325 20.2378 26.029 20.6658 25.832 21.1588C25.439 22.1398 24.553 22.8328 23.496 22.8328H23.143C21.323 22.8328 20.02 20.9848 20.725 19.3068C21.179 18.2278 21.86 17.2928 22.77 16.5018C24.551 14.9498 26.913 14.1738 29.849 14.1738C32.875 14.1738 35.237 14.9418 36.928 16.4788C38.625 18.0168 39.47 20.1658 39.47 22.9228ZM29.373 40.4288C28.541 40.4288 27.882 40.6808 27.393 41.1838C26.904 41.6878 26.66 42.3448 26.66 43.1598C26.66 43.9178 26.895 44.5528 27.364 45.0628C27.831 45.5728 28.501 45.8278 29.372 45.8278C30.243 45.8278 30.916 45.5728 31.392 45.0628C31.867 44.5528 32.105 43.9178 32.105 43.1598C32.105 42.3738 31.862 41.7228 31.372 41.2048C30.884 40.6868 30.219 40.4288 29.373 40.4288Z" fill="url(#paint2_linear_322_10543)"/>
</g>
<defs>
<linearGradient id="paint0_linear_322_10543" x1="48.5304" y1="6.975" x2="11.3762" y2="53.141" gradientUnits="userSpaceOnUse">
<stop stop-color="#AAAAAA"/>
<stop offset="1" stop-color="white"/>
</linearGradient>
<linearGradient id="paint1_linear_322_10543" x1="30" y1="7.76613" x2="30" y2="52.2353" gradientUnits="userSpaceOnUse">
<stop stop-color="#AAAAAA"/>
<stop offset="1" stop-color="white"/>
</linearGradient>
<linearGradient id="paint2_linear_322_10543" x1="30" y1="23.7674" x2="30" y2="55.3125" gradientUnits="userSpaceOnUse">
<stop stop-color="#930000"/>
<stop offset="1" stop-color="#6D0707"/>
</linearGradient>
<clipPath id="clip0_322_10543">
<rect width="60" height="60" fill="white"/>
</clipPath>
</defs>
</svg>
