<svg width="32" height="30" viewBox="0 0 32 30" fill="none" xmlns="http://www.w3.org/2000/svg">
<g id="word" clip-path="url(#clip0_356_5126)">
<path id="Vector" d="M32 7.487H7.38074V1.462C7.38074 0.655 8.03078 0 8.83167 0H30.5233C31.3242 0 31.9742 0.655 31.9742 1.462V7.487H32Z" fill="#6AA2E9"/>
<path id="Vector_2" d="M32 7.48438H7.38074V14.9974H32V7.48438Z" fill="#4E7AD0"/>
<path id="Vector_3" d="M32 15H7.38074V22.513H32V15Z" fill="#385AB9"/>
<path id="Vector_4" d="M30.549 30.0026H8.85645C8.05556 30.0026 7.40552 29.3476 7.40552 28.5406V22.5156H32V28.5406C32 29.3476 31.3489 30.0026 30.549 30.0026Z" fill="#28408C"/>
<path id="Vector_5" d="M14.8617 23.1907H1.60079C0.725468 23.1907 0 22.4597 0 21.5777V8.41769C0 7.53569 0.725468 6.80469 1.60079 6.80469H14.8607C15.736 6.80469 16.4615 7.53569 16.4615 8.41769V21.5777C16.4625 22.4597 15.7618 23.1907 14.8617 23.1907Z" fill="#4166BE"/>
<g id="Group">
<path id="Vector_6" d="M4.80344 19.6359L2.57642 10.5859H4.35287L5.2282 14.6949C5.45348 15.8039 5.67876 16.9389 5.82862 17.8459H5.85343C6.00329 16.8879 6.25338 15.8289 6.50347 14.6699L7.47903 10.5859H9.23068L10.1318 14.7459C10.3571 15.8299 10.5576 16.8129 10.6826 17.7959H10.7074C10.8573 16.7879 11.0826 15.7789 11.3327 14.6699L12.2834 10.5859H13.9844L11.5321 19.6359H9.73285L8.7821 15.3749C8.55682 14.3669 8.38215 13.5089 8.2571 12.5259H8.2313C8.08144 13.4839 7.90578 14.3659 7.63088 15.3999L6.57989 19.6609H4.80344V19.6359Z" fill="white"/>
</g>
<path id="Vector_7" opacity="0.2" d="M16.4625 8.26562C16.4625 8.31563 16.4625 8.36663 16.4625 8.41663V21.5766C16.4625 22.4586 15.737 23.1896 14.8617 23.1896H7.40552V24.6266H16.2124C17.0877 24.6266 17.8132 23.8956 17.8132 23.0136V9.85363C17.8142 9.04663 17.2385 8.36663 16.4625 8.26562Z" fill="black"/>
</g>
<defs>
<clipPath id="clip0_356_5126">
<rect width="32" height="30" fill="white"/>
</clipPath>
</defs>
</svg>
