<svg width="285" height="221" viewBox="0 0 285 221" fill="none" xmlns="http://www.w3.org/2000/svg">
<path d="M115.498 46.0056L0.00109863 142.914L34.3374 183.826L149.834 86.9178L115.498 46.0056Z" fill="#930000"/>
<path d="M219.526 -20.5363L24.4707 143.032L89.9443 221L285 57.4311L219.526 -20.5363Z" fill="#ECECEC"/>
<path d="M174.359 145.145C175.964 145.145 177.131 144.724 177.958 143.93C178.785 143.135 179.174 141.873 179.174 140.237C179.174 138.601 178.785 137.339 177.958 136.544C177.131 135.75 175.915 135.329 174.359 135.282H172.316V145.192L174.359 145.145ZM168.911 154.681C168.474 154.681 168.279 154.493 168.279 154.073V133.085C168.279 132.665 168.474 132.477 168.911 132.477H174.991C176.207 132.477 177.325 132.665 178.347 133.085C179.368 133.506 180.195 134.02 180.924 134.721C181.654 135.422 182.238 136.264 182.627 137.199C183.016 138.133 183.259 139.162 183.259 140.237C183.259 141.265 183.064 142.294 182.627 143.228C182.238 144.163 181.654 145.005 180.924 145.659C180.195 146.36 179.319 146.921 178.298 147.342C177.277 147.763 176.158 147.95 174.991 147.95H172.316V154.073C172.316 154.494 172.121 154.681 171.684 154.681L168.911 154.681ZM152.764 154.681C152.326 154.681 152.132 154.493 152.132 154.073V133.085C152.132 132.665 152.326 132.477 152.764 132.477H164.096C164.534 132.477 164.729 132.665 164.729 133.085V134.628C164.729 135.048 164.534 135.236 164.096 135.236H156.169V142.06H162.491C162.929 142.06 163.124 142.247 163.124 142.668V144.21C163.124 144.631 162.929 144.818 162.491 144.818H156.169V151.876H164.096C164.534 151.876 164.729 152.063 164.729 152.484V154.027C164.729 154.447 164.534 154.634 164.096 154.634L152.764 154.681ZM145.712 154.681C145.274 154.681 144.934 154.493 144.691 154.166L136.957 144.584V154.073C136.957 154.494 136.763 154.681 136.325 154.681H133.553C133.115 154.681 132.921 154.494 132.921 154.073V133.085C132.921 132.665 133.115 132.477 133.553 132.477H136.325C136.763 132.477 136.957 132.665 136.957 133.085V142.574L144.934 132.945C145.177 132.618 145.517 132.431 145.955 132.431H149.262C149.7 132.431 149.797 132.618 149.506 132.945L140.556 143.322L149.749 154.214C149.992 154.541 149.943 154.728 149.505 154.728L145.712 154.681ZM126.306 154.681C125.868 154.681 125.674 154.493 125.674 154.073V144.677H117.406V154.073C117.406 154.493 117.211 154.681 116.773 154.681H114.001C113.563 154.681 113.369 154.493 113.369 154.073V133.085C113.369 132.665 113.563 132.477 114.001 132.477H116.773C117.211 132.477 117.406 132.665 117.406 133.085V141.92H125.674V133.085C125.674 132.665 125.868 132.477 126.306 132.477H129.078C129.516 132.477 129.711 132.665 129.711 133.085V154.073C129.711 154.494 129.516 154.681 129.078 154.681L126.306 154.681ZM109.867 154.073C109.867 154.494 109.672 154.681 109.235 154.681H106.463C106.025 154.681 105.83 154.494 105.83 154.073V139.77H105.782L96.638 154.213C96.3463 154.54 96.0056 154.728 95.5679 154.728H93.3308C92.8931 154.728 92.6984 154.54 92.6984 154.12V133.132C92.6984 132.711 92.8931 132.524 93.3308 132.524H96.103C96.5407 132.524 96.7353 132.711 96.7353 133.132V147.435H96.784L105.928 132.992C106.219 132.665 106.56 132.477 106.998 132.477H109.235C109.672 132.477 109.867 132.665 109.867 133.085V154.073ZM65.6568 154.681C65.2191 154.681 64.8787 154.493 64.6354 154.166L56.9022 144.584V154.073C56.9022 154.494 56.7076 154.681 56.2699 154.681H53.4977C53.06 154.681 52.8654 154.494 52.8654 154.073V133.085C52.8654 132.665 53.06 132.477 53.4977 132.477H56.2699C56.7076 132.477 56.9022 132.665 56.9022 133.085V142.574L64.8787 132.945C65.1217 132.618 65.4624 132.431 65.9001 132.431H69.2073C69.645 132.431 69.7423 132.618 69.4506 132.945L60.5017 143.275L69.6939 154.167C69.9372 154.494 69.8886 154.681 69.4506 154.681H65.6568V154.681ZM265.843 152.577C265.94 152.858 265.989 153.091 265.989 153.185C265.989 153.325 265.94 153.419 265.794 153.512C265.6 153.652 265.308 153.792 264.87 153.979C264.433 154.167 263.946 154.307 263.363 154.494C262.779 154.634 262.147 154.774 261.466 154.868C260.785 154.961 260.104 155.008 259.374 155.008C257.769 155.008 256.261 154.774 254.9 154.307C253.538 153.839 252.322 153.138 251.301 152.157C250.279 151.222 249.501 150.007 248.917 148.558C248.334 147.108 248.042 145.426 248.042 143.509C248.042 141.593 248.334 139.91 248.917 138.461C249.501 137.012 250.279 135.844 251.301 134.862C252.322 133.927 253.538 133.179 254.9 132.712C256.261 132.244 257.769 132.011 259.374 132.011C260.104 132.011 260.785 132.058 261.466 132.151C262.147 132.245 262.779 132.385 263.363 132.525C263.946 132.665 264.433 132.852 264.87 133.039C265.308 133.226 265.648 133.366 265.794 133.507C265.892 133.6 265.94 133.694 265.989 133.834C265.989 133.927 265.94 134.114 265.843 134.348L265.308 135.657C265.211 135.75 265.113 135.797 264.968 135.797C264.822 135.797 264.676 135.75 264.481 135.703C263.995 135.563 263.265 135.423 262.341 135.236C261.417 135.049 260.444 134.956 259.374 134.956C258.402 134.956 257.477 135.096 256.651 135.423C255.775 135.703 255.046 136.218 254.365 136.872C253.684 137.527 253.198 138.415 252.857 139.536C252.468 140.612 252.273 141.967 252.273 143.51C252.273 145.052 252.468 146.408 252.857 147.483C253.246 148.558 253.733 149.446 254.414 150.147C255.046 150.848 255.824 151.315 256.699 151.596C257.575 151.876 258.45 152.063 259.423 152.063C260.493 152.063 261.466 151.97 262.39 151.783C263.314 151.596 263.995 151.456 264.53 151.316C264.676 151.269 264.822 151.269 265.016 151.222C265.162 151.222 265.308 151.269 265.405 151.362L265.843 152.577ZM235.105 154.681C234.716 154.681 234.57 154.493 234.716 154.12L236.953 148.557L230.728 132.991C230.582 132.618 230.728 132.43 231.117 132.43H233.451C233.889 132.43 234.181 132.617 234.278 133.038L239.093 144.818L243.908 133.038C244.054 132.664 244.346 132.43 244.783 132.43H247.556C247.945 132.43 248.091 132.618 247.945 132.991L238.898 154.073C238.752 154.447 238.461 154.634 238.023 154.634L235.105 154.681ZM220.222 137.806L216.721 146.641H223.724L220.222 137.806ZM227.615 154.681C227.177 154.681 226.886 154.493 226.74 154.073L224.745 149.211H215.651L213.656 154.073C213.51 154.447 213.219 154.681 212.781 154.681H210.69C210.495 154.681 210.349 154.634 210.252 154.54C210.155 154.447 210.155 154.306 210.301 154.12L219.055 133.038C219.201 132.664 219.493 132.477 219.931 132.477H221.341C221.779 132.477 222.07 132.664 222.216 133.038L230.971 154.12C231.166 154.493 231.02 154.681 230.582 154.681H227.615ZM204.805 154.681C204.27 154.681 203.881 154.493 203.638 154.073L199.066 146.407L194.299 154.073C194.153 154.306 194.008 154.447 193.764 154.54C193.57 154.634 193.327 154.681 193.035 154.681H190.749C190.409 154.681 190.214 154.634 190.165 154.54C190.165 154.447 190.214 154.26 190.36 154.026L196.926 143.369L190.749 133.132C190.603 132.898 190.554 132.711 190.603 132.617C190.652 132.524 190.798 132.477 191.138 132.477H194.154C194.737 132.477 195.126 132.664 195.321 133.085L199.406 140.143L203.784 133.085C204.027 132.711 204.416 132.477 205.048 132.477H207.285C207.626 132.477 207.82 132.524 207.869 132.617C207.869 132.711 207.82 132.898 207.626 133.132L201.4 142.995L208.161 153.979C208.355 154.213 208.404 154.353 208.355 154.493C208.307 154.587 208.112 154.681 207.772 154.681H204.805ZM80.4423 137.806C75.4813 150.334 78.4968 142.808 73.8765 154.12C73.7305 154.494 73.4388 154.728 73.0011 154.728H70.9097C70.715 154.728 70.5693 154.681 70.472 154.587C70.3747 154.494 70.3747 154.353 70.5206 154.167L79.2752 133.085C79.4212 132.711 79.7129 132.524 80.1506 132.524H81.561C81.9987 132.524 82.2904 132.711 82.4364 133.085L91.1909 154.167C91.3856 154.54 91.2396 154.728 90.8019 154.728H87.7377C87.3 154.728 87.0081 154.54 86.8623 154.12C83.2145 144.864 84.6736 148.464 80.4423 137.806Z" fill="#1F1F1F"/>
<path d="M231.02 169.614L229.548 173.597H232.441L231.02 169.614ZM233.079 175.208H229.009L228.028 177.863H226.116L230.137 167.007H231.951L235.972 177.863H234.01L233.079 175.208ZM187.674 169.614L186.203 173.597H189.096L187.674 169.614ZM189.685 175.208H185.615L184.634 177.863H182.722L186.743 167.007H188.557L192.578 177.863H190.616L189.685 175.208ZM177.28 172.506H179.584C180.761 172.506 181.595 171.748 181.595 170.563C181.595 169.425 180.761 168.666 179.584 168.666H177.28V172.506ZM177.28 174.118V177.863H175.417V167.102H179.83C181.938 167.102 183.507 168.572 183.507 170.61C183.507 172.649 181.938 174.118 179.83 174.118L177.28 174.118ZM148.203 172.222V168.666H145.604C144.526 168.666 143.839 169.425 143.839 170.42C143.839 171.416 144.477 172.222 145.604 172.222H148.203ZM144.036 173.549C142.712 173.028 141.976 171.843 141.976 170.42C141.976 168.477 143.398 167.055 145.409 167.055H150.018V177.816H148.154V173.739H145.801L143.791 177.816H141.731L144.036 173.549ZM135.504 169.614L134.033 173.597H136.926L135.504 169.614ZM137.514 175.208H133.444L132.464 177.863H130.601L134.621 167.007H136.435L140.456 177.863H138.495L137.514 175.208ZM218.908 171.653H220.526L223.076 167.055H225.136L222.145 172.412L225.234 177.863H223.125L220.624 173.312H219.006V177.863H217.143V167.102H219.006L218.908 171.653ZM213.27 170.42L208.464 177.863H206.797V167.102H208.611V173.881V174.45L213.417 167.055H215.035V177.816H213.221V171.558L213.27 170.42ZM199.393 174.118L202.629 167.055H204.64V177.816H202.826V171.084V170.752L200.129 176.678H198.658L195.912 170.752V171.084V177.816H194.098V167.055H196.157L199.393 174.118ZM168.307 168.666V171.795H173.063L173.112 173.407H168.307V176.299H173.945V177.911H166.443V167.149H173.749V168.761H168.306V168.666H168.307ZM158.696 171.653H160.315L162.864 167.055H164.924L161.933 172.412L165.022 177.863H162.913L160.413 173.312H158.795V177.863H156.931V167.102H158.795L158.696 171.653ZM127.315 173.312H122.755V177.863H120.892V167.102H122.755V171.7H127.315V167.102H129.179V177.863H127.315V173.312ZM116.087 168.666V177.863H114.224V168.666H110.988V167.054H119.372V168.666H116.087ZM107.457 170.42L102.652 177.863H100.985V167.102H102.799V173.881V174.45L107.604 167.055H109.222V177.816H107.408V171.558L107.457 170.42ZM94.6107 169.662L91.6197 177.863H89.7075L93.7282 167.007H95.5423L99.5631 177.863H97.6018L94.6107 169.662ZM87.5502 171.748C87.3049 169.852 86.0792 168.619 83.9707 168.619C83.2354 168.619 82.3526 168.809 81.6663 169.093L81.0288 169.377L80.9797 167.576L81.2738 167.481C82.1563 167.149 83.137 167.007 84.1176 167.007C87.5499 167.007 89.5112 169.283 89.5112 172.506C89.5112 175.73 87.5009 178.005 84.0686 178.005C83.0879 178.005 82.0582 177.863 81.1757 177.531L80.8816 177.437V175.635L81.5191 175.919C82.2057 176.251 83.1372 176.394 83.9217 176.394C85.9811 176.394 87.2558 175.256 87.5011 173.407H82.7941V171.795L87.5502 171.748Z" fill="#930000"/>
<path d="M168.108 105.905L206.759 74.0186L217.961 87.1259L179.31 119.013L168.108 105.905ZM134.501 105.905L173.151 74.0186L184.354 87.1259L145.703 119.013L134.501 105.905ZM100.893 105.905L139.544 74.0186L150.747 87.1259L112.096 119.013L100.893 105.905Z" fill="#930000"/>
<path d="M115.496 -45.0003L0 51.9082L34.3363 92.8204L149.833 -4.08806L115.496 -45.0003Z" fill="#1F1F1F"/>
</svg>
