<svg width="110" height="53" viewBox="0 0 110 53" fill="none" xmlns="http://www.w3.org/2000/svg">
<path d="M62.7066 36.2489C63.5351 36.2489 64.1375 36.0345 64.5643 35.6295C64.991 35.2246 65.1918 34.5812 65.1918 33.7474C65.1918 32.9137 64.991 32.2703 64.5643 31.8653C64.1376 31.4604 63.5099 31.246 62.7066 31.2221H61.6523V36.2729L62.7066 36.2489ZM59.8951 41.109C59.6692 41.109 59.5687 41.0136 59.5687 40.7992V30.1023C59.5687 29.8879 59.6692 29.7926 59.8951 29.7926H63.0329C63.6604 29.7926 64.2378 29.8879 64.765 30.1023C65.2921 30.3167 65.7188 30.5788 66.0954 30.9361C66.4719 31.2935 66.7732 31.7223 66.974 32.1988C67.1748 32.6753 67.3003 33.1995 67.3003 33.7473C67.3003 34.2715 67.1999 34.7956 66.974 35.2721C66.7732 35.7486 66.4719 36.1774 66.0954 36.511C65.719 36.8683 65.267 37.1542 64.7398 37.3686C64.2127 37.583 63.6353 37.6784 63.0329 37.6784H61.6523V40.7994C61.6523 41.0138 61.5518 41.1091 61.3259 41.1091L59.8951 41.109ZM51.561 41.109C51.3351 41.109 51.2346 41.0136 51.2346 40.7992V30.1023C51.2346 29.8879 51.3351 29.7926 51.561 29.7926H57.4099C57.6358 29.7926 57.7363 29.8879 57.7363 30.1023V30.8885C57.7363 31.1029 57.6358 31.1983 57.4099 31.1983H53.3182V34.6766H56.5815C56.8074 34.6766 56.9079 34.7719 56.9079 34.9863V35.7726C56.9079 35.987 56.8074 36.0823 56.5815 36.0823H53.3182V39.6798H57.4099C57.6358 39.6798 57.7363 39.7751 57.7363 39.9895V40.7758C57.7363 40.9902 57.6358 41.0855 57.4099 41.0855L51.561 41.109ZM47.9211 41.109C47.6952 41.109 47.5195 41.0136 47.394 40.8469L43.4026 35.963V40.7994C43.4026 41.0138 43.3022 41.1091 43.0763 41.1091H41.6454C41.4195 41.1091 41.3191 41.0138 41.3191 40.7994V30.1023C41.3191 29.8879 41.4195 29.7926 41.6454 29.7926H43.0763C43.3022 29.7926 43.4026 29.8879 43.4026 30.1023V34.9386L47.5194 30.0309C47.6449 29.8642 47.8207 29.7688 48.0466 29.7688H49.7535C49.9795 29.7688 50.0297 29.8642 49.8791 30.0309L45.2602 35.3199L50.0046 40.871C50.13 41.0377 50.105 41.1331 49.879 41.1331L47.9211 41.109ZM37.9051 41.109C37.6792 41.109 37.5788 41.0136 37.5788 40.7992V36.0106H33.3113V40.7992C33.3113 41.0136 33.2108 41.109 32.9849 41.109H31.5541C31.3282 41.109 31.2277 41.0136 31.2277 40.7992V30.1023C31.2277 29.8879 31.3282 29.7926 31.5541 29.7926H32.9849C33.2108 29.7926 33.3113 29.8879 33.3113 30.1023V34.6051H37.5788V30.1023C37.5788 29.8879 37.6792 29.7926 37.9051 29.7926H39.336C39.5619 29.7926 39.6623 29.8879 39.6623 30.1023V40.7994C39.6623 41.0138 39.5619 41.1091 39.336 41.1091L37.9051 41.109ZM29.4204 40.7994C29.4204 41.0138 29.32 41.1091 29.0941 41.1091H27.6633C27.4373 41.1091 27.3369 41.0138 27.3369 40.7994V33.5092H27.3118L22.5925 40.8709C22.4419 41.0376 22.2661 41.1329 22.0402 41.1329H20.8855C20.6596 41.1329 20.5591 41.0376 20.5591 40.8232V30.1261C20.5591 29.9117 20.6596 29.8164 20.8855 29.8164H22.3163C22.5422 29.8164 22.6427 29.9117 22.6427 30.1261V37.4163H22.6678L27.3871 30.0546C27.5377 29.8879 27.7135 29.7926 27.9394 29.7926H29.0941C29.32 29.7926 29.4204 29.8879 29.4204 30.1023V40.7994ZM6.60206 41.109C6.37615 41.109 6.20047 41.0136 6.07489 40.8469L2.08357 35.963V40.7994C2.08357 41.0138 1.9831 41.1091 1.75719 41.1091H0.326374C0.100463 41.1091 0 41.0138 0 40.7994V30.1023C0 29.8879 0.100463 29.7926 0.326374 29.7926H1.75719C1.9831 29.7926 2.08357 29.8879 2.08357 30.1023V34.9386L6.20047 30.0309C6.32592 29.8642 6.50173 29.7688 6.72764 29.7688H8.4346C8.66051 29.7688 8.71074 29.8642 8.56018 30.0309L3.94135 35.2961L8.68576 40.8472C8.81134 41.0139 8.78622 41.1092 8.56018 41.1092H6.60206V41.109ZM109.925 40.037C109.975 40.1799 110 40.299 110 40.3467C110 40.4182 109.975 40.4658 109.9 40.5134C109.799 40.585 109.649 40.6563 109.423 40.7517C109.197 40.847 108.946 40.9184 108.644 41.0138C108.343 41.0853 108.017 41.1567 107.665 41.2043C107.314 41.252 106.963 41.2758 106.586 41.2758C105.758 41.2758 104.979 41.1568 104.276 40.9185C103.574 40.6803 102.946 40.323 102.419 39.8227C101.892 39.3462 101.49 38.7268 101.189 37.9882C100.888 37.2497 100.737 36.3921 100.737 35.4153C100.737 34.4385 100.888 33.5808 101.189 32.8423C101.49 32.1037 101.892 31.5082 102.419 31.0078C102.946 30.5314 103.573 30.1502 104.276 29.912C104.979 29.6737 105.758 29.5547 106.586 29.5547C106.963 29.5547 107.314 29.5785 107.665 29.6262C108.017 29.6739 108.343 29.7453 108.644 29.8168C108.946 29.8883 109.197 29.9835 109.423 30.0788C109.649 30.1742 109.824 30.2456 109.9 30.3171C109.95 30.3648 109.975 30.4124 110 30.4838C110 30.5315 109.975 30.6267 109.925 30.7459L109.649 31.4129C109.598 31.4606 109.548 31.4845 109.473 31.4845C109.397 31.4845 109.322 31.4606 109.222 31.4368C108.971 31.3653 108.594 31.2939 108.117 31.1985C107.64 31.1032 107.138 31.0556 106.586 31.0556C106.084 31.0556 105.607 31.1272 105.18 31.2939C104.728 31.4368 104.352 31.6989 104 32.0324C103.649 32.366 103.398 32.8187 103.222 33.3904C103.021 33.9384 102.921 34.6293 102.921 35.4154C102.921 36.2016 103.021 36.8925 103.222 37.4404C103.423 37.9884 103.674 38.441 104.026 38.7983C104.352 39.1556 104.754 39.3939 105.205 39.5369C105.657 39.6798 106.109 39.7751 106.611 39.7751C107.163 39.7751 107.665 39.7275 108.142 39.6322C108.619 39.5369 108.971 39.4655 109.247 39.394C109.322 39.3701 109.397 39.3702 109.498 39.3463C109.573 39.3463 109.649 39.3702 109.699 39.4178L109.925 40.037ZM94.0598 41.109C93.859 41.109 93.7837 41.0136 93.859 40.8231L95.0137 37.988L91.8006 30.0545C91.7252 29.8639 91.8006 29.7686 92.0014 29.7686H93.2063C93.4322 29.7686 93.5828 29.8639 93.633 30.0783L96.1181 36.0821L98.6033 30.0783C98.6786 29.8878 98.8292 29.7686 99.0551 29.7686H100.486C100.687 29.7686 100.762 29.8639 100.687 30.0545L96.0177 40.7992C95.9423 40.9898 95.7918 41.0851 95.5659 41.0851L94.0598 41.109ZM86.3784 32.5086L84.571 37.0113H88.1859L86.3784 32.5086ZM90.1939 41.109C89.968 41.109 89.8175 41.0136 89.7421 40.7992L88.7129 38.3215H84.0187L82.9895 40.7992C82.9142 40.9898 82.7636 41.109 82.5377 41.109H81.4582C81.3577 41.109 81.2825 41.0851 81.2323 41.0375C81.1821 40.9898 81.1821 40.9183 81.2574 40.8231L85.7759 30.0783C85.8513 29.8878 86.0018 29.7924 86.2277 29.7924H86.9557C87.1816 29.7924 87.3322 29.8878 87.4075 30.0783L91.926 40.8231C92.0265 41.0136 91.9511 41.109 91.7252 41.109H90.1939ZM78.4209 41.109C78.1448 41.109 77.944 41.0136 77.8184 40.7992L75.4587 36.8921L72.9986 40.7992C72.9233 40.9183 72.8481 40.9898 72.7225 41.0375C72.622 41.0851 72.4966 41.109 72.346 41.109H71.1662C70.9905 41.109 70.8901 41.0851 70.865 41.0375C70.865 40.9898 70.8901 40.8946 70.9654 40.7754L74.3542 35.3435L71.1662 30.126C71.0909 30.007 71.0658 29.9116 71.0909 29.8639C71.116 29.8163 71.1913 29.7924 71.367 29.7924H72.9234C73.2247 29.7924 73.4255 29.8878 73.5259 30.1022L75.6346 33.6996L77.8939 30.1022C78.0193 29.9116 78.2202 29.7924 78.5465 29.7924H79.7011C79.8768 29.7924 79.9773 29.8163 80.0024 29.8639C80.0024 29.9116 79.9773 30.0068 79.8768 30.126L76.6637 35.1529L80.153 40.7516C80.2534 40.8706 80.2786 40.9421 80.2534 41.0136C80.2283 41.0613 80.128 41.109 79.9522 41.109H78.4209ZM14.2333 32.5086C11.6728 38.8934 13.2292 35.0577 10.8445 40.8232C10.7692 41.0138 10.6186 41.1329 10.3927 41.1329H9.31326C9.2128 41.1329 9.13758 41.1091 9.08735 41.0614C9.03712 41.0138 9.03712 40.9422 9.11247 40.847L13.631 30.1023C13.7063 29.9117 13.8569 29.8164 14.0828 29.8164H14.8107C15.0367 29.8164 15.1872 29.9117 15.2626 30.1023L19.7811 40.847C19.8815 41.0376 19.8062 41.1329 19.5803 41.1329H17.9988C17.7728 41.1329 17.6222 41.0376 17.5469 40.8232C15.6642 36.1059 16.4172 37.9404 14.2333 32.5086Z" fill="#1F1F1F"/>
<path d="M91.951 48.7196L91.1918 50.7493H92.6849L91.951 48.7196ZM93.0138 51.5708H90.9132L90.4071 52.9239H89.4201L91.4953 47.3906H92.4317L94.5069 52.9239H93.4946L93.0138 51.5708ZM69.5792 48.7196L68.82 50.7493H70.3131L69.5792 48.7196ZM70.6168 51.5708H68.5163L68.0101 52.9239H67.0232L69.0984 47.3906H70.0347L72.11 52.9239H71.0977L70.6168 51.5708ZM64.2142 50.1936H65.4036C66.011 50.1936 66.4412 49.807 66.4412 49.2029C66.4412 48.6229 66.011 48.2364 65.4036 48.2364H64.2142V50.1936ZM64.2142 51.0152V52.924H63.2525V47.4391H65.5302C66.6184 47.4391 67.4282 48.1882 67.4282 49.2272C67.4282 50.2662 66.6183 51.0153 65.5302 51.0153L64.2142 51.0152ZM49.2069 50.0486V48.2365H47.8655C47.3088 48.2365 46.9545 48.6231 46.9545 49.1305C46.9545 49.6379 47.2836 50.0486 47.8655 50.0486H49.2069ZM47.0558 50.7252C46.3726 50.4594 45.9929 49.8554 45.9929 49.1305C45.9929 48.1398 46.7268 47.4149 47.7644 47.4149H50.1433V52.8998H49.1817V50.8219H47.967L46.9293 52.8998H45.8664L47.0558 50.7252ZM42.6523 48.7196L41.8931 50.7493H43.3862L42.6523 48.7196ZM43.6899 51.5708H41.5893L41.0832 52.9239H40.1215L42.1968 47.3906H43.1331L45.2083 52.9239H44.196L43.6899 51.5708ZM85.7 49.7587H86.5352L87.8512 47.4149H88.9141L87.3703 50.1453L88.9647 52.924H87.8765L86.5858 50.6044H85.7506V52.924H84.789V47.4391H85.7506L85.7 49.7587ZM82.7897 49.1305L80.3096 52.924H79.4491V47.4391H80.3854V50.8944V51.1844L82.8655 47.415H83.7007V52.8999H82.7644V49.7103L82.7897 49.1305ZM75.6277 51.0152L77.2979 47.4149H78.3355V52.8998H77.3992V49.4687V49.2996L76.0073 52.3199H75.2481L73.831 49.2996V49.4687V52.8998H72.8946V47.4149H73.9576L75.6277 51.0152ZM59.5829 48.2364V49.8311H62.0377L62.063 50.6526H59.5829V52.1266H62.4932V52.9482H58.6211V47.4633H62.3919V48.2849H59.5828V48.2364H59.5829ZM54.6227 49.7587H55.4579L56.7739 47.4149H57.8368L56.2931 50.1453L57.8875 52.924H56.7992L55.5085 50.6044H54.6733V52.924H53.7117V47.4391H54.6733L54.6227 49.7587ZM38.426 50.6044H36.0724V52.924H35.1107V47.4391H36.0724V49.7828H38.426V47.4391H39.3876V52.924H38.426V50.6044ZM32.6306 48.2364V52.9239H31.669V48.2364H29.9987V47.4148H34.3263V48.2364H32.6306ZM28.1766 49.1305L25.6965 52.924H24.836V47.4391H25.7723V50.8944V51.1844L28.2524 47.415H29.0876V52.8999H28.1513V49.7103L28.1766 49.1305ZM21.546 48.7438L20.0023 52.924H19.0153L21.0905 47.3907H22.0268L24.1021 52.924H23.0898L21.546 48.7438ZM17.9018 49.807C17.7752 48.8405 17.1426 48.2123 16.0544 48.2123C15.6748 48.2123 15.2192 48.309 14.865 48.454L14.5359 48.5989L14.5106 47.6807L14.6624 47.6324C15.1179 47.4633 15.624 47.3907 16.1302 47.3907C17.9017 47.3907 18.914 48.5505 18.914 50.1936C18.914 51.8366 17.8764 52.9964 16.1049 52.9964C15.5987 52.9964 15.0673 52.9239 14.6118 52.7548L14.46 52.7064V51.7883L14.789 51.9332C15.1434 52.1023 15.6242 52.1748 16.029 52.1748C17.092 52.1748 17.7499 51.5949 17.8765 50.6525H15.4471V49.8309L17.9018 49.807Z" fill="#930000"/>
<path d="M59.4802 16.252L79.4291 0L85.2111 6.68053L65.2621 22.9327L59.4802 16.252ZM42.1344 16.252L62.0833 0L67.8653 6.68053L47.9163 22.9327L42.1344 16.252ZM24.7886 16.252L44.7376 0L50.5195 6.68053L30.5705 22.9327L24.7886 16.252Z" fill="#930000"/>
</svg>
