<svg width="0" height="0" class="hidden">
  <symbol fill="none" xmlns="http://www.w3.org/2000/svg" viewBox="0 0 20 20" id="ic_add">
    <path d="M14.5696 10.0004C14.5696 10.4604 14.1971 10.8337 13.7362 10.8337H10.8338V13.7371C10.8338 14.1971 10.4604 14.5704 10.0004 14.5704C9.77042 14.5704 9.56208 14.4771 9.41125 14.3262C9.26042 14.1754 9.16708 13.9671 9.16708 13.7362V10.8337H6.26458C6.03458 10.8337 5.82625 10.7404 5.67542 10.5896C5.52458 10.4396 5.43125 10.2312 5.43125 10.0004C5.43125 9.54042 5.80458 9.16708 6.26458 9.16708H9.16708V6.26375C9.16708 5.80375 9.54042 5.43042 10.0004 5.43042C10.4604 5.43042 10.8338 5.80292 10.8338 6.26375V9.16708H13.7362C14.1971 9.16708 14.5696 9.53958 14.5696 10.0004ZM17.0713 17.0712C13.1663 20.9762 6.83458 20.9762 2.92875 17.0712C-0.97625 13.1663 -0.97625 6.83458 2.92875 2.92875C6.83375 -0.97625 13.1654 -0.97625 17.0713 2.92875C20.9771 6.83458 20.9771 13.1663 17.0713 17.0712ZM15.8929 4.10792C12.6438 0.85875 7.35708 0.85875 4.10792 4.10792C0.85875 7.35708 0.85875 12.6437 4.10792 15.8929C7.35708 19.1421 12.6438 19.1421 15.8929 15.8929C19.1421 12.6437 19.1421 7.35708 15.8929 4.10792Z" fill="currentColor"></path>
  </symbol>
  <symbol fill="none" xmlns="http://www.w3.org/2000/svg" viewBox="0 0 10 16" id="ic_arr_hor">
    <path d="M9.85679 1.51072L8.46591 0.140588C8.27562 -0.0468627 7.96665 -0.0468627 7.77636 0.140588L0.143205 7.65988C-0.0470841 7.84733 -0.0470841 8.1517 0.143205 8.33915L1.87935 10.0494L7.77734 15.8594C7.96763 16.0469 8.2766 16.0469 8.46689 15.8594L9.85777 14.4893C10.0481 14.3018 10.0481 13.9975 9.85777 13.81L3.95978 7.99903L9.85777 2.18902C10.0471 2.00254 10.0471 1.69817 9.85679 1.51072Z" fill="currentColor"></path>
  </symbol>
  <symbol fill="none" xmlns="http://www.w3.org/2000/svg" viewBox="0 0 16 9" id="ic_arr_ver">
    <path d="M15.7058 8.70607C15.3138 9.09798 14.6801 9.09798 14.2881 8.70607L8.00044 2.42058L1.71178 8.70607C1.31975 9.09798 0.686067 9.09798 0.294029 8.70607C-0.0980096 8.31417 -0.0980096 7.68071 0.294029 7.2888L7.29156 0.293677C7.48708 0.0982265 7.74376 0 8.00044 0C8.25712 0 8.5128 0.0982265 8.70932 0.293677L15.7068 7.2888C16.0979 7.68071 16.0979 8.31417 15.7058 8.70607Z" fill="currentColor"></path>
  </symbol>
  <symbol fill="none" xmlns="http://www.w3.org/2000/svg" viewBox="0 0 22 14" id="ic_arr_ver2">
    <path d="M19.9218 13.7998L21.8057 11.8526C22.0635 11.5862 22.0635 11.1536 21.8057 10.8872L11.4667 0.20078C11.2089 -0.0656252 10.7904 -0.0656252 10.5327 0.20078L8.1811 2.63138L0.192333 10.8886C-0.065413 11.155 -0.065413 11.5875 0.192333 11.8539L2.07626 13.8012C2.33401 14.0676 2.75251 14.0676 3.01026 13.8012L11.0004 5.54399L18.9891 13.8012C19.2455 14.0662 19.664 14.0662 19.9218 13.7998Z" fill="currentColor"></path>
  </symbol>
  <symbol fill="none" xmlns="http://www.w3.org/2000/svg" viewBox="0 0 73 15" id="ic_arrow_big_hor">
    <path d="M72.9598 7.69197C73.0372 7.51118 73.002 7.29561 72.8532 7.14859L65.7624 0.145281C65.5663 -0.0484271 65.2475 -0.0484271 65.0514 0.145281C64.8553 0.33899 64.8553 0.653891 65.0514 0.847599L71.3015 7.02045H0.502824C0.225265 7.02045 0 7.24296 0 7.51714C0 7.79131 0.225265 8.01382 0.502824 8.01382H71.2663L65.0524 14.1519C64.8563 14.3456 64.8563 14.6605 65.0524 14.8542C65.1509 14.9516 65.2796 14.9993 65.4084 14.9993C65.5371 14.9993 65.6658 14.9506 65.7644 14.8542L72.8089 7.89462C72.8753 7.83998 72.9286 7.77343 72.9598 7.69197Z" fill="currentColor"></path>
  </symbol>
  <symbol fill="none" xmlns="http://www.w3.org/2000/svg" viewBox="0 0 14 10" id="ic_arrow_hor">
    <path d="M13.9617 5.19988C14.0365 5.01102 14.002 4.78689 13.8564 4.63332L9.60628 0.151755C9.41439 -0.050585 9.10245 -0.050585 8.91056 0.151755C8.71867 0.354095 8.71867 0.683027 8.91056 0.885367L12.3311 4.4922H0.492024C0.220427 4.49324 0 4.72464 0 5.01206C0 5.29949 0.220427 5.53088 0.492024 5.53088H12.3104L8.91154 9.11489C8.71965 9.31723 8.71965 9.64616 8.91154 9.84851C9.00798 9.95019 9.13393 10 9.25989 10C9.38585 10 9.51181 9.94916 9.60825 9.84851L13.8298 5.39599C13.8869 5.34203 13.9331 5.27666 13.9617 5.19988Z" fill="currentColor"></path>
  </symbol>
  <symbol fill="none" xmlns="http://www.w3.org/2000/svg" viewBox="0 0 24 24" id="ic_buy">
    <path d="M9.62418 18.596C8.16153 18.596 6.9751 19.806 6.9751 21.298C6.9751 22.79 8.16055 24 9.62418 24C11.0878 24 12.2733 22.79 12.2733 21.298C12.2733 19.806 11.0868 18.596 9.62418 18.596ZM9.62418 22C9.24771 22 8.94102 21.685 8.94102 21.298C8.94102 20.911 9.24771 20.596 9.62418 20.596C10.0007 20.596 10.3073 20.911 10.3073 21.298C10.3073 21.685 10.0007 22 9.62418 22ZM17.4171 18.596C15.9545 18.596 14.768 19.806 14.768 21.298C14.768 22.79 15.9545 24 17.4171 24C18.8797 24 20.0662 22.79 20.0662 21.298C20.0662 19.806 18.8797 18.596 17.4171 18.596ZM17.4171 22C17.0406 22 16.7339 21.685 16.7339 21.298C16.7339 20.911 17.0406 20.596 17.4171 20.596C17.7936 20.596 18.1003 20.911 18.1003 21.298C18.1003 21.685 17.7936 22 17.4171 22ZM23.9174 6.968L21.6881 15.348C21.4109 16.397 20.4682 17.131 19.3968 17.131H8.09174C7.02228 17.131 6.07962 16.399 5.80046 15.35L2.83585 4.234H0.982962C0.439384 4.234 0 3.786 0 3.234C0 2.682 0.439384 2.234 0.982962 2.234H3.58683C4.03014 2.234 4.4194 2.536 4.53539 2.972L7.69758 14.826C7.74574 15.005 7.90793 15.131 8.09174 15.131H19.3968C19.5816 15.131 19.7438 15.006 19.79 14.827L22.0193 6.446C22.0636 6.277 21.9948 6.151 21.9495 6.091C21.9043 6.029 21.8021 5.928 21.6252 5.928H19.2651C18.7215 5.928 18.2821 5.48 18.2821 4.928C18.2821 4.376 18.7215 3.928 19.2651 3.928H21.6252C22.3712 3.928 23.0583 4.273 23.5105 4.874C23.9626 5.475 24.1101 6.237 23.9174 6.968ZM7.59338 4.93C7.59338 4.378 8.03277 3.93 8.57634 3.93H11.4574V1C11.4574 0.448 11.8968 0 12.4404 0C12.9839 0 13.4233 0.448 13.4233 1V3.93H16.3044C16.848 3.93 17.2874 4.378 17.2874 4.93C17.2874 5.482 16.848 5.93 16.3044 5.93H13.4233V8.861C13.4233 9.413 12.9839 9.861 12.4404 9.861C11.8968 9.861 11.4574 9.413 11.4574 8.861V5.93H8.57634C8.03277 5.93 7.59338 5.482 7.59338 4.93Z" fill="currentColor"></path>
  </symbol>
  <symbol fill="none" xmlns="http://www.w3.org/2000/svg" viewBox="0 0 25 24" id="ic_buy_a">
    <path d="M9.791 18.6003C8.303 18.6003 7.096 19.8102 7.096 21.3022C7.096 22.7943 8.303 24.0042 9.791 24.0042C11.279 24.0042 12.486 22.7943 12.486 21.3022C12.486 19.8102 11.279 18.6003 9.791 18.6003ZM9.791 22.0042C9.408 22.0042 9.096 21.6892 9.096 21.3022C9.096 20.9153 9.408 20.6003 9.791 20.6003C10.174 20.6003 10.486 20.9153 10.486 21.3022C10.486 21.6892 10.174 22.0042 9.791 22.0042ZM17.719 18.6003C16.231 18.6003 15.024 19.8102 15.024 21.3022C15.024 22.7943 16.231 24.0042 17.719 24.0042C19.207 24.0042 20.414 22.7943 20.414 21.3022C20.414 19.8102 19.207 18.6003 17.719 18.6003ZM17.719 22.0042C17.336 22.0042 17.024 21.6892 17.024 21.3022C17.024 20.9153 17.336 20.6003 17.719 20.6003C18.102 20.6003 18.414 20.9153 18.414 21.3022C18.414 21.6892 18.102 22.0042 17.719 22.0042ZM24.332 6.97225L22.064 15.3523C21.782 16.4013 20.823 17.1353 19.733 17.1353H8.232C7.144 17.1353 6.185 16.4032 5.901 15.3542L2.885 4.23825H1C0.447 4.23825 0 3.79025 0 3.23825C0 2.68625 0.447 2.23825 1 2.23825H3.649C4.1 2.23825 4.496 2.54025 4.614 2.97625L7.831 14.8303C7.88 15.0093 8.045 15.1353 8.232 15.1353H19.733C19.921 15.1353 20.086 15.0103 20.133 14.8313L22.401 6.45025C22.446 6.28125 22.376 6.15525 22.33 6.09525C22.284 6.03325 22.18 5.93225 22 5.93225H21.885C21.332 5.93225 20.885 5.48425 20.885 4.93225C20.885 4.38025 21.332 3.93225 21.885 3.93225H22C22.759 3.93225 23.458 4.27725 23.918 4.87825C24.378 5.47825 24.528 6.24125 24.332 6.97225ZM8.513 5.53725C8.122 5.14725 8.122 4.51425 8.513 4.12325C8.904 3.73225 9.536 3.73225 9.927 4.12325L12.653 6.84925L19.21 0.29325C19.601 -0.09775 20.233 -0.09775 20.624 0.29325C21.015 0.68425 21.015 1.31625 20.624 1.70725L13.364 8.96625L13.362 8.96725L13.36 8.97025C13.165 9.16525 12.909 9.26325 12.653 9.26325C12.397 9.26325 12.141 9.16525 11.946 8.97025L8.513 5.53725Z" fill="currentColor"></path>
  </symbol>
  <symbol fill="none" xmlns="http://www.w3.org/2000/svg" viewBox="0 0 20 20" id="ic_calc">
    <path d="M17.5 0H2.5C1.11917 0 0 1.11917 0 2.5V17.5C0 18.8808 1.11917 20 2.5 20H17.5C18.8808 20 20 18.8808 20 17.5V2.5C20 1.11917 18.8808 0 17.5 0ZM18.3333 17.5C18.3333 17.9592 17.9592 18.3333 17.5 18.3333H2.5C2.04083 18.3333 1.66667 17.9592 1.66667 17.5V6.66667H18.3333V17.5ZM18.3333 5H1.66667V2.5C1.66667 2.04083 2.04083 1.66667 2.5 1.66667H17.5C17.9592 1.66667 18.3333 2.04083 18.3333 2.5V5ZM3.33333 9.16667C3.33333 8.70667 3.70667 8.33333 4.16667 8.33333H5.83333C6.29333 8.33333 6.66667 8.70667 6.66667 9.16667C6.66667 9.62667 6.29333 10 5.83333 10H4.16667C3.70667 10 3.33333 9.62667 3.33333 9.16667ZM8.33333 9.16667C8.33333 8.70667 8.70667 8.33333 9.16667 8.33333H10.8333C11.2933 8.33333 11.6667 8.70667 11.6667 9.16667C11.6667 9.62667 11.2933 10 10.8333 10H9.16667C8.70667 10 8.33333 9.62667 8.33333 9.16667ZM13.3333 9.16667C13.3333 8.70667 13.7067 8.33333 14.1667 8.33333H15.8333C16.2933 8.33333 16.6667 8.70667 16.6667 9.16667C16.6667 9.62667 16.2933 10 15.8333 10H14.1667C13.7067 10 13.3333 9.62667 13.3333 9.16667ZM3.33333 12.5C3.33333 12.04 3.70667 11.6667 4.16667 11.6667H5.83333C6.29333 11.6667 6.66667 12.04 6.66667 12.5C6.66667 12.96 6.29333 13.3333 5.83333 13.3333H4.16667C3.70667 13.3333 3.33333 12.96 3.33333 12.5ZM8.33333 12.5C8.33333 12.04 8.70667 11.6667 9.16667 11.6667H10.8333C11.2933 11.6667 11.6667 12.04 11.6667 12.5C11.6667 12.96 11.2933 13.3333 10.8333 13.3333H9.16667C8.70667 13.3333 8.33333 12.96 8.33333 12.5ZM13.3333 12.5C13.3333 12.04 13.7067 11.6667 14.1667 11.6667H15.8333C16.2933 11.6667 16.6667 12.04 16.6667 12.5C16.6667 12.96 16.2933 13.3333 15.8333 13.3333H14.1667C13.7067 13.3333 13.3333 12.96 13.3333 12.5ZM3.33333 15.8333C3.33333 15.3733 3.70667 15 4.16667 15H5.83333C6.29333 15 6.66667 15.3733 6.66667 15.8333C6.66667 16.2933 6.29333 16.6667 5.83333 16.6667H4.16667C3.70667 16.6667 3.33333 16.2933 3.33333 15.8333ZM8.33333 15.8333C8.33333 15.3733 8.70667 15 9.16667 15H10.8333C11.2933 15 11.6667 15.3733 11.6667 15.8333C11.6667 16.2933 11.2933 16.6667 10.8333 16.6667H9.16667C8.70667 16.6667 8.33333 16.2933 8.33333 15.8333ZM13.3333 15.8333C13.3333 15.3733 13.7067 15 14.1667 15H15.8333C16.2933 15 16.6667 15.3733 16.6667 15.8333C16.6667 16.2933 16.2933 16.6667 15.8333 16.6667H14.1667C13.7067 16.6667 13.3333 16.2933 13.3333 15.8333Z" fill="currentColor"></path>
  </symbol>
  <symbol fill="none" xmlns="http://www.w3.org/2000/svg" viewBox="0 0 30 26" id="ic_cart">
    <path d="M12.7062 19.495C10.9253 19.495 9.48221 20.9513 9.48221 22.7475C9.48221 24.5437 10.9253 26 12.7062 26C14.487 26 15.9301 24.5437 15.9301 22.7475C15.9301 20.9513 14.487 19.495 12.7062 19.495ZM12.7062 24.0009C12.0238 24.0009 11.4686 23.4382 11.4686 22.7475C11.4686 22.0568 12.0238 21.4941 12.7062 21.4941C13.3885 21.4941 13.9437 22.0568 13.9437 22.7475C13.9437 23.4382 13.3885 24.0009 12.7062 24.0009ZM22.1904 19.495C20.4095 19.495 18.9664 20.9513 18.9664 22.7475C18.9664 24.5437 20.4095 26 22.1904 26C23.9712 26 25.4143 24.5437 25.4143 22.7475C25.4143 20.9513 23.9712 19.495 22.1904 19.495ZM22.1904 24.0009C21.508 24.0009 20.9528 23.4382 20.9528 22.7475C20.9528 22.0568 21.508 21.4941 22.1904 21.4941C22.8727 21.4941 23.4279 22.0568 23.4279 22.7475C23.4279 23.4382 22.8727 24.0009 22.1904 24.0009ZM29.9056 5.44149L27.1942 15.5308C26.8783 16.7063 25.8106 17.5269 24.6009 17.5269H10.8419C9.63119 17.5269 8.56547 16.7073 8.24963 15.5328L4.59957 1.99908H0.993213C0.443966 1.99908 0 1.55128 0 0.999539C0 0.447793 0.443966 0 0.993213 0H5.35938C5.80732 0 6.19964 0.301861 6.31684 0.73766L10.1655 15.0091C10.248 15.3139 10.5261 15.5268 10.8419 15.5268H24.6009C24.9167 15.5268 25.1958 15.3139 25.2783 15.0071L27.9887 4.91973C28.0652 4.63086 27.947 4.41696 27.8696 4.31501C27.7355 4.13909 27.5319 4.03914 27.3114 4.03914H11.4349C10.8856 4.03914 10.4416 3.59134 10.4416 3.0396C10.4416 2.48785 10.8856 2.04006 11.4349 2.04006H27.3114C28.1556 2.04006 28.9333 2.42688 29.4458 3.10057C29.9573 3.77126 30.1251 4.62487 29.9056 5.44149Z" fill="currentColor"></path>
  </symbol>
  <symbol fill="none" xmlns="http://www.w3.org/2000/svg" viewBox="0 0 20 20" id="ic_cheaper">
    <path d="M10 0C4.4775 0 0 4.4775 0 10C0 15.5225 4.4775 20 10 20C15.5225 20 20 15.5225 20 10C20 4.4775 15.5225 0 10 0ZM10 18.3333C5.405 18.3333 1.66667 14.595 1.66667 10C1.66667 5.405 5.405 1.66667 10 1.66667C14.595 1.66667 18.3333 5.405 18.3333 10C18.3333 14.595 14.595 18.3333 10 18.3333ZM14.62 5.79C13.8117 5.17167 12.6867 4.86333 11.2442 4.86333H6.795V12.9892H5.25167V14.07H6.79583V15.6767H8.805V14.07H12.2033V12.9892H8.805V12.1083H11.245C12.6867 12.1083 13.8125 11.7992 14.6208 11.1808C15.4283 10.5633 15.8333 9.6675 15.8333 8.49333C15.8333 7.30917 15.4283 6.4075 14.62 5.79ZM13.1375 9.96833C12.6883 10.3133 12.0525 10.4858 11.2292 10.4858H8.80417V6.5625H11.2292C12.0642 6.5625 12.7017 6.73 13.145 7.065C13.5875 7.39917 13.8092 7.88167 13.8092 8.50917C13.8092 9.13667 13.585 9.62333 13.1375 9.96833Z" fill="currentColor"></path>
  </symbol>
  <symbol fill="none" xmlns="http://www.w3.org/2000/svg" viewBox="0 0 12 9" id="ic_check">
    <path d="M11.6845 0.318788C11.2634 -0.106263 10.5827 -0.106263 10.1616 0.318788L4.15942 6.37604L1.83847 4.03228C1.41736 3.60723 0.736697 3.60723 0.315588 4.03228C-0.105521 4.45733 -0.105521 5.14437 0.315588 5.56942L3.39798 8.68067C3.608 8.89265 3.88371 8.99918 4.15942 8.99918C4.43514 8.99918 4.71085 8.89265 4.92087 8.68067L4.92302 8.67849L4.92517 8.67741L11.6834 1.85702C12.1045 1.43197 12.1045 0.74384 11.6845 0.318788Z" fill="currentColor"></path>
  </symbol>
  <symbol fill="none" xmlns="http://www.w3.org/2000/svg" viewBox="0 0 24 24" id="ic_checkout">
    <path d="M9.62414 18.6003C8.1615 18.6003 6.97507 19.8102 6.97507 21.3022C6.97507 22.7943 8.1615 24.0042 9.62414 24.0042C11.0868 24.0042 12.2732 22.7943 12.2732 21.3022C12.2732 19.8102 11.0868 18.6003 9.62414 18.6003ZM9.62414 22.0042C9.24767 22.0042 8.94098 21.6892 8.94098 21.3022C8.94098 20.9153 9.24767 20.6003 9.62414 20.6003C10.0006 20.6003 10.3073 20.9153 10.3073 21.3022C10.3073 21.6892 10.0006 22.0042 9.62414 22.0042ZM17.417 18.6003C15.9544 18.6003 14.768 19.8102 14.768 21.3022C14.768 22.7943 15.9544 24.0042 17.417 24.0042C18.8797 24.0042 20.0661 22.7943 20.0661 21.3022C20.0661 19.8102 18.8797 18.6003 17.417 18.6003ZM17.417 22.0042C17.0406 22.0042 16.7339 21.6892 16.7339 21.3022C16.7339 20.9153 17.0406 20.6003 17.417 20.6003C17.7935 20.6003 18.1002 20.9153 18.1002 21.3022C18.1002 21.6892 17.7935 22.0042 17.417 22.0042ZM23.9173 6.97225L21.688 15.3523C21.4108 16.4013 20.4681 17.1353 19.3967 17.1353H8.09171C7.02225 17.1353 6.07959 16.4032 5.80043 15.3542L2.83583 4.23825H0.982958C0.439382 4.23825 0 3.79025 0 3.23825C0 2.68625 0.439382 2.23825 0.982958 2.23825H3.58681C4.03013 2.23825 4.41938 2.54025 4.53537 2.97625L7.69754 14.8303C7.74571 15.0093 7.90789 15.1353 8.09171 15.1353H19.3967C19.5815 15.1353 19.7437 15.0103 19.7899 14.8313L22.0192 6.45025C22.0635 6.28125 21.9947 6.15525 21.9494 6.09525C21.9042 6.03325 21.802 5.93225 21.6251 5.93225H21.512C20.9685 5.93225 20.5291 5.48425 20.5291 4.93225C20.5291 4.38025 20.9685 3.93225 21.512 3.93225H21.6251C22.3711 3.93225 23.0582 4.27725 23.5104 4.87825C23.9625 5.47825 24.11 6.24125 23.9173 6.97225ZM8.36792 5.53725C7.98358 5.14725 7.98358 4.51425 8.36792 4.12325C8.75225 3.73225 9.37348 3.73225 9.75782 4.12325L12.4374 6.84925L18.8826 0.29325C19.267 -0.09775 19.8882 -0.09775 20.2725 0.29325C20.6569 0.68425 20.6569 1.31625 20.2725 1.70725L13.1362 8.96625L13.1343 8.96725L13.1323 8.97025C12.9406 9.16525 12.689 9.26325 12.4374 9.26325C12.1857 9.26325 11.9341 9.16525 11.7424 8.97025L8.36792 5.53725Z" fill="currentColor"></path>
  </symbol>
  <symbol fill="none" xmlns="http://www.w3.org/2000/svg" viewBox="0 0 12 12" id="ic_close">
    <path d="M7.05221 5.99988L11.782 1.27061C12.0727 0.979931 12.0727 0.508691 11.782 0.21801C11.4913 -0.0726702 11.02 -0.0726702 10.7293 0.21801L6.0005 4.94827L1.27074 0.219003C0.980032 -0.0716781 0.508744 -0.0716781 0.218033 0.219003C-0.0726777 0.509683 -0.0726777 0.980923 0.218033 1.2716L4.94779 6.00087L0.219025 10.7291C-0.0716855 11.0198 -0.0716855 11.4911 0.219025 11.7817C0.363884 11.9266 0.554384 12 0.744884 12C0.935384 12 1.12588 11.9276 1.27074 11.7817L6.0005 7.05248L10.7302 11.7817C10.8751 11.9266 11.0656 12 11.2561 12C11.4466 12 11.6371 11.9276 11.782 11.7817C12.0727 11.4911 12.0727 11.0198 11.782 10.7291L7.05221 5.99988Z" fill="currentColor"></path>
  </symbol>
  <symbol fill="none" xmlns="http://www.w3.org/2000/svg" viewBox="0 0 22 26" id="ic_compare">
    <path d="M11 0C10.448 0 10 0.448 10 1V25C10 25.552 10.448 26 11 26C11.552 26 12 25.552 12 25V1C12 0.448 11.552 0 11 0ZM21 6C20.448 6 20 6.448 20 7V25C20 25.552 20.448 26 21 26C21.552 26 22 25.552 22 25V7C22 6.448 21.552 6 21 6ZM1 11.441C0.448 11.441 0 11.889 0 12.441V25C0 25.552 0.448 26 1 26C1.552 26 2 25.552 2 25V12.441C2 11.889 1.552 11.441 1 11.441Z" fill="currentColor"></path>
  </symbol>
  <symbol fill="none" xmlns="http://www.w3.org/2000/svg" viewBox="0 0 22 20" id="ic_compare_a">
    <path d="M21.707 13.357L19.244 15.82L21.707 18.283C22.098 18.674 22.098 19.306 21.707 19.697C21.512 19.892 21.256 19.99 21 19.99C20.744 19.99 20.488 19.892 20.293 19.697L17.83 17.234L15.367 19.697C15.172 19.892 14.916 19.99 14.66 19.99C14.404 19.99 14.148 19.892 13.953 19.697C13.562 19.306 13.562 18.674 13.953 18.283L16.416 15.82L13.953 13.357C13.562 12.966 13.562 12.334 13.953 11.943C14.344 11.552 14.976 11.552 15.367 11.943L17.83 14.406L20.293 11.943C20.684 11.552 21.316 11.552 21.707 11.943C22.098 12.334 22.098 12.966 21.707 13.357ZM1 11.441C0.448 11.441 0 11.889 0 12.441V19C0 19.552 0.448 20 1 20C1.552 20 2 19.552 2 19V12.441C2 11.889 1.552 11.441 1 11.441ZM21 6C20.448 6 20 6.448 20 7V10.926C20.302 10.75 20.642 10.649 21 10.649C21.358 10.649 21.698 10.75 22 10.926V7C22 6.448 21.552 6 21 6ZM11 0C10.448 0 10 0.448 10 1V19C10 19.552 10.448 20 11 20C11.552 20 12 19.552 12 19V1C12 0.448 11.552 0 11 0Z" fill="currentColor"></path>
  </symbol>
  <symbol fill="none" xmlns="http://www.w3.org/2000/svg" viewBox="0 0 22 24" id="ic_delete">
    <path d="M1 6H6H16H21C21.552 6 22 5.552 22 5C22 4.448 21.552 4 21 4H16V3C16 1.343 14.657 0 13 0H9C7.343 0 6 1.343 6 3V4H1C0.448 4 0 4.448 0 5C0 5.552 0.448 6 1 6ZM8 3C8 2.449 8.449 2 9 2H13C13.551 2 14 2.449 14 3V4H8V3ZM21 8H20H2H1C0.448 8 0 8.448 0 9C0 9.552 0.448 10 1 10H2V21C2 22.657 3.343 24 5 24H17C18.657 24 20 22.657 20 21V10H21C21.552 10 22 9.552 22 9C22 8.448 21.552 8 21 8ZM18 21C18 21.551 17.551 22 17 22H8V13C8 12.448 7.552 12 7 12C6.448 12 6 12.448 6 13V22H5C4.449 22 4 21.551 4 21V10H18V21Z" fill="currentColor"></path>
  </symbol>
  <symbol fill="none" xmlns="http://www.w3.org/2000/svg" viewBox="0 0 20 20" id="ic_delete2">
    <path d="M10 0C4.4775 0 0 4.4775 0 10C0 15.5225 4.4775 20 10 20C15.5225 20 20 15.5225 20 10C20 4.4775 15.5225 0 10 0ZM10 18.3333C5.405 18.3333 1.66667 14.595 1.66667 10C1.66667 5.405 5.405 1.66667 10 1.66667C14.595 1.66667 18.3333 5.405 18.3333 10C18.3333 14.595 14.595 18.3333 10 18.3333ZM13.2308 7.9475L11.1783 10L13.2308 12.0525C13.5567 12.3783 13.5567 12.9058 13.2308 13.2308C13.0683 13.3933 12.855 13.475 12.6417 13.475C12.4283 13.475 12.215 13.3933 12.0525 13.2308L10 11.1783L7.9475 13.2308C7.785 13.3942 7.57167 13.475 7.35833 13.475C7.145 13.475 6.93167 13.3933 6.76917 13.2308C6.44333 12.9058 6.44333 12.3783 6.76917 12.0525L8.82167 10L6.76917 7.9475C6.44333 7.62167 6.44333 7.09417 6.76917 6.76917C7.095 6.44333 7.62167 6.44333 7.9475 6.76917L10 8.82167L12.0525 6.76917C12.3783 6.44333 12.905 6.44333 13.2308 6.76917C13.5567 7.09417 13.5567 7.62167 13.2308 7.9475Z" fill="currentColor"></path>
  </symbol>
  <symbol fill="none" xmlns="http://www.w3.org/2000/svg" viewBox="0 0 21 3" id="ic_dots">
    <circle cx="1.5" cy="1.5" r="1.5" fill="currentColor"></circle>
    <circle cx="10.5" cy="1.5" r="1.5" fill="currentColor"></circle>
    <circle cx="19.5" cy="1.5" r="1.5" fill="currentColor"></circle>
  </symbol>
  <symbol fill="none" xmlns="http://www.w3.org/2000/svg" viewBox="0 0 26 26" id="ic_dzen">
    <path d="M15.5076 15.5076C13.4651 17.6155 13.3159 20.2434 13.1396 26C18.5072 26 22.2117 25.9817 24.1241 24.1241C25.9817 22.2117 26 18.33 26 13.1396C20.2424 13.3245 17.6155 13.4641 15.5076 15.5076ZM0 13.1396C0 18.33 0.0182962 22.2117 1.87585 24.1251C3.7883 25.9817 7.49378 26 12.8604 26C12.6745 20.2424 12.5359 17.6155 10.4924 15.5076C8.38548 13.4641 5.75756 13.3159 0 13.1396ZM12.8604 0C7.50244 0 3.7883 0.0182962 1.87585 1.87585C0.0182962 3.7883 0 7.67 0 12.8604C5.75756 12.6745 8.38452 12.5359 10.4924 10.4924C12.5359 8.38548 12.6841 5.75756 12.8604 0ZM15.5076 10.4924C13.4641 8.38452 13.3159 5.75756 13.1396 0C18.5072 0 22.2117 0.0182962 24.1251 1.87585C25.9817 3.7883 26 7.67 26 12.8604C20.2424 12.6755 17.6155 12.5359 15.5076 10.4924Z" fill="currentColor"></path>
  </symbol>
  <symbol fill="none" xmlns="http://www.w3.org/2000/svg" viewBox="0 0 20 16" id="ic_email">
    <path d="M18 0H2C0.896 0 0 0.895 0 2V14C0 15.105 0.896 16 2 16H18C19.105 16 20 15.105 20 14V2C20 0.895 19.105 0 18 0ZM10.003 6.96L2.499 1.5H17.576L10.003 6.96ZM18 14.5H2C1.724 14.5 1.5 14.276 1.5 14V2.629L9.559 8.493C9.582 8.509 9.609 8.516 9.633 8.53C9.657 8.544 9.679 8.555 9.704 8.566C9.8 8.608 9.899 8.636 10 8.636H10.001C10.101 8.636 10.201 8.608 10.296 8.567C10.321 8.556 10.343 8.545 10.367 8.531C10.391 8.518 10.417 8.511 10.439 8.495L18.5 2.683V14C18.5 14.276 18.276 14.5 18 14.5ZM7.443 11.915C7.443 12.329 7.107 12.665 6.693 12.665H4.061C3.647 12.665 3.311 12.329 3.311 11.915C3.311 11.501 3.647 11.165 4.061 11.165H6.693C7.107 11.165 7.443 11.501 7.443 11.915Z" fill="currentColor"></path>
  </symbol>
  <symbol fill="none" xmlns="http://www.w3.org/2000/svg" viewBox="0 0 22 16" id="ic_eye">
    <path d="M21.7822 7.70396C21.5786 7.43092 16.7551 1 11 1C5.24491 1 0.421448 7.43092 0.21879 7.70396L0 8L0.21879 8.29604C0.421448 8.56908 5.24491 15 11 15C16.7551 15 21.5786 8.56908 21.7812 8.29604L22 8L21.7822 7.70396ZM11 13.9999C6.42154 13.9999 2.2736 9.24618 1.26434 8C2.27259 6.75282 6.41549 2.00014 11 2.00014C15.5785 2.00014 19.7264 6.75382 20.7357 8C19.7274 9.24718 15.5845 13.9999 11 13.9999ZM11 4.25046C8.91595 4.25046 7.22007 5.9327 7.22007 8.001C7.22007 10.0693 8.91595 11.7515 11 11.7515C13.0841 11.7515 14.7809 10.0693 14.7809 8.001C14.7809 5.9327 13.0851 4.25046 11 4.25046ZM11 10.7504C9.47149 10.7504 8.22832 9.51722 8.22832 8C8.22832 6.48278 9.47149 5.24961 11 5.24961C12.5295 5.24961 13.7727 6.48278 13.7727 8C13.7727 9.51722 12.5295 10.7504 11 10.7504Z" fill="currentColor"></path>
  </symbol>
  <symbol fill="none" xmlns="http://www.w3.org/2000/svg" viewBox="0 0 22 16" id="ic_eye_a">
    <path d="M3.18304 16.0002C3.05399 16.0002 2.92493 15.9512 2.82612 15.8542C2.62951 15.6592 2.62951 15.3422 2.82612 15.1472L17.9499 0.147227C18.1465 -0.0477734 18.4661 -0.0477734 18.6627 0.147227C18.8593 0.342227 18.8593 0.659227 18.6627 0.854227L3.53895 15.8542C3.44115 15.9512 3.3121 16.0002 3.18304 16.0002ZM1.26434 7.72423C2.27259 6.47723 6.41549 1.72523 11 1.72523C12.1071 1.72523 13.1879 2.00723 14.2062 2.44623L14.9725 1.68623C13.7374 1.10823 12.3974 0.725227 11 0.725227C5.24491 0.725227 0.421448 7.15523 0.21879 7.42823L0 7.72423L0.21879 8.02023C0.334739 8.17623 1.96205 10.3392 4.40504 12.1672L5.13501 11.4432C3.23043 10.0392 1.80073 8.38723 1.26434 7.72423ZM21.7822 7.42823C21.6663 7.27223 20.0521 5.12423 17.6232 3.30023L16.8922 4.02523C18.7837 5.42523 20.2023 7.06423 20.7367 7.72423C19.7284 8.97123 15.5855 13.7232 11.001 13.7232C9.90605 13.7232 8.83731 13.4462 7.82805 13.0152L7.06178 13.7752C8.28781 14.3452 9.61668 14.7222 11.001 14.7222C16.7561 14.7222 21.5796 8.29223 21.7822 8.01923L22.001 7.72323L21.7822 7.42823ZM7.22007 7.72423C7.22007 8.21223 7.3209 8.67623 7.49331 9.10423L8.29487 8.30923C8.25353 8.12023 8.22832 7.92523 8.22832 7.72423C8.22832 6.20823 9.47149 4.97423 11 4.97423C11.2027 4.97423 11.3993 4.99923 11.5898 5.04023L12.3914 4.24523C11.9599 4.07423 11.492 3.97423 11 3.97423C8.91595 3.97523 7.22007 5.65723 7.22007 7.72423ZM14.7809 7.72423C14.7809 7.24823 14.6821 6.79723 14.5188 6.37823L13.7162 7.17323C13.7525 7.35123 13.7727 7.53523 13.7727 7.72323C13.7727 9.23923 12.5295 10.4732 11 10.4732C10.8104 10.4732 10.6249 10.4542 10.4455 10.4172L9.6429 11.2132C10.0654 11.3752 10.5201 11.4732 10.999 11.4732C13.0851 11.4742 14.7809 9.79223 14.7809 7.72423Z" fill="currentColor"></path>
  </symbol>
  <symbol fill="none" xmlns="http://www.w3.org/2000/svg" viewBox="0 0 28 26" id="ic_favorite">
    <path d="M8.97681 2C10.6568 2 12.1828 2.538 13.1668 2.989C13.4308 3.11 13.7158 3.171 13.9998 3.171C14.2838 3.171 14.5678 3.11 14.8328 2.989C15.8168 2.538 17.3438 2 19.0238 2C20.1548 2 21.2228 2.248 22.1968 2.737C23.8218 3.551 25.2158 5.392 25.7498 7.427C26.3018 9.532 25.9228 11.707 24.6828 13.55C24.6658 13.575 24.6498 13.601 24.6338 13.626C24.0748 14.545 20.9488 17.65 13.9988 23.411C8.23281 18.633 4.09781 14.832 3.3648 13.627C3.3488 13.601 3.3318 13.574 3.31481 13.549C2.07481 11.708 1.69681 9.534 2.24881 7.427C2.78181 5.392 4.17581 3.551 5.80181 2.736C6.7768 2.248 7.84481 2 8.97681 2ZM8.97681 0C7.67681 0 6.28781 0.256 4.90581 0.949C2.75681 2.026 0.997805 4.315 0.314805 6.921C-0.385195 9.593 0.0908049 12.341 1.6568 14.667C2.9518 16.797 10.3648 23.014 13.5628 25.645L14.0048 26L14.4368 25.645C17.6358 23.012 25.0488 16.793 26.3428 14.667C27.9078 12.34 28.3848 9.592 27.6848 6.921C27.0008 4.314 25.2408 2.026 23.0928 0.95C21.7128 0.256 20.3228 0 19.0238 0C17.0068 0 15.2078 0.617 13.9998 1.171C12.7918 0.617 10.9938 0 8.97681 0Z" fill="currentColor"></path>
  </symbol>
  <symbol fill="none" xmlns="http://www.w3.org/2000/svg" viewBox="0 0 22 20" id="ic_favorite_a">
    <path d="M18.4159 18.29C18.8069 18.681 18.8069 19.314 18.4159 19.704C18.2209 19.899 17.9649 19.997 17.7089 19.997C17.4529 19.997 17.1969 19.899 17.0019 19.704L14.5389 17.241L12.0759 19.704C11.8809 19.899 11.6249 19.997 11.3689 19.997C11.1129 19.997 10.8569 19.899 10.6619 19.704C10.2709 19.314 10.2709 18.681 10.6619 18.29L13.1249 15.827L10.6619 13.364C10.2709 12.973 10.2709 12.34 10.6619 11.95C11.0529 11.559 11.6849 11.559 12.0759 11.95L14.5389 14.413L17.0019 11.95C17.3929 11.559 18.0249 11.559 18.4159 11.95C18.8069 12.34 18.8069 12.973 18.4159 13.364L15.9529 15.827L18.4159 18.29ZM21.2959 5.323C20.7699 3.318 19.4159 1.558 17.7639 0.73C16.7019 0.197 15.6329 0 14.6339 0C13.0819 0 11.6979 0.475 10.7689 0.9C9.83986 0.475 8.45686 0 6.90486 0C5.90586 0 4.83686 0.197 3.77386 0.73C2.11986 1.559 0.767857 3.319 0.241857 5.323C-0.297143 7.378 0.069857 9.492 1.27386 11.281C2.14686 12.717 6.62886 16.563 9.38186 18.856C9.41586 18.375 9.60986 17.926 9.95386 17.582L10.4199 17.116C5.87486 13.321 3.40686 10.941 2.98186 10.242C2.96586 10.216 2.94886 10.19 2.93186 10.164C2.05486 8.86 1.78586 7.321 2.17686 5.83C2.55486 4.387 3.53286 3.087 4.67086 2.517C5.35486 2.174 6.10686 2 6.90486 2C8.11386 2 9.22086 2.391 9.93586 2.719C10.2009 2.84 10.4849 2.9 10.7689 2.9C11.0529 2.9 11.3369 2.839 11.6019 2.718C12.3179 2.391 13.4249 2 14.6339 2C15.4319 2 16.1829 2.174 16.8679 2.518C18.0039 3.087 18.9829 4.388 19.3619 5.831C19.7519 7.32 19.4839 8.86 18.6049 10.167C18.5879 10.192 18.5719 10.218 18.5559 10.243C18.4879 10.354 18.3499 10.523 18.1789 10.719C18.5329 10.804 18.8589 10.979 19.1229 11.243C19.3659 11.485 19.5299 11.782 19.6219 12.103C19.9069 11.784 20.1309 11.503 20.2649 11.283C21.4679 9.492 21.8349 7.378 21.2959 5.323Z" fill="currentColor"></path>
  </symbol>
  <symbol fill="none" xmlns="http://www.w3.org/2000/svg" viewBox="0 0 20 20" id="ic_filter">
    <path d="M1 4.0016H2.476C2.89 5.16619 3.99 6.0049 5.296 6.0049C6.602 6.0049 7.702 5.16619 8.116 4.0026H19C19.552 4.0026 20 3.55476 20 3.00295C20 2.45114 19.552 2.0033 19 2.0033H8.116C7.703 0.838706 6.602 0 5.296 0C3.99 0 2.89 0.838706 2.476 2.0023H1C0.448 2.0023 0 2.45014 0 3.00195C0 3.55376 0.448 4.0016 1 4.0016ZM5.296 1.9993C5.849 1.9993 6.3 2.44914 6.3 3.00195C6.3 3.55476 5.85 4.0046 5.297 4.0046C4.744 4.0046 4.294 3.55476 4.294 3.00195C4.294 2.44914 4.743 1.9993 5.296 1.9993ZM19 8.99985H17.524C17.11 7.83626 16.01 6.99755 14.704 6.99755C13.398 6.99755 12.298 7.83626 11.884 8.99985H1C0.448 8.99985 0 9.44769 0 9.9995C0 10.5513 0.448 10.9992 1 10.9992H11.884C12.297 12.1627 13.398 13.0014 14.704 13.0014C16.01 13.0014 17.11 12.1627 17.524 10.9992H19C19.552 10.9992 20 10.5513 20 9.9995C20 9.44769 19.552 8.99985 19 8.99985ZM14.704 11.0031C14.151 11.0031 13.701 10.5533 13.701 10.0005C13.701 9.44769 14.151 8.99685 14.704 8.99685C15.257 8.99685 15.707 9.44669 15.707 9.9995C15.707 10.5523 15.257 11.0031 14.704 11.0031ZM19 15.9974H8.116C7.703 14.8338 6.602 13.9951 5.296 13.9951C3.99 13.9951 2.89 14.8338 2.476 15.9974H1C0.448 15.9974 0 16.4452 0 16.9971C0 17.5489 0.448 17.9967 1 17.9967H2.476C2.889 19.1603 3.99 19.999 5.296 19.999C6.602 19.999 7.702 19.1603 8.116 17.9967H19C19.552 17.9967 20 17.5489 20 16.9971C20 16.4452 19.552 15.9974 19 15.9974ZM5.296 18.0007C4.743 18.0007 4.293 17.5509 4.293 16.9981C4.293 16.4452 4.743 15.9944 5.296 15.9944C5.849 15.9944 6.3 16.4442 6.3 16.9971C6.3 17.5499 5.849 18.0007 5.296 18.0007Z" fill="currentColor"></path>
  </symbol>
  <symbol fill="none" xmlns="http://www.w3.org/2000/svg" viewBox="0 0 20 20" id="ic_filter_close">
    <path d="M19.7068 13.3453L17.2318 15.8195L19.7068 18.2936C20.0977 18.6845 20.0977 19.3172 19.7068 19.7071C19.5118 19.902 19.2558 20 18.9998 20C18.7438 20 18.4878 19.902 18.2928 19.7071L15.8178 17.233L13.3428 19.7071C13.1478 19.902 12.8918 20 12.6358 20C12.3798 20 12.1238 19.902 11.9289 19.7071C11.5379 19.3162 11.5379 18.6835 11.9289 18.2936L14.4038 15.8195L11.9289 13.3453C11.5379 12.9545 11.5379 12.3217 11.9289 11.9318C12.1238 11.7369 12.3798 11.6389 12.6358 11.6389C12.8918 11.6389 13.1478 11.7369 13.3428 11.9318L15.8178 14.406L18.2928 11.9318C18.4878 11.7369 18.7438 11.6389 18.9998 11.6389C19.2558 11.6389 19.5118 11.7369 19.7068 11.9318C20.0977 12.3217 20.0977 12.9545 19.7068 13.3453ZM0 3.00195C0 2.45014 0.447994 2.0023 0.999987 2.0023H2.47597C2.88996 0.838706 3.98995 0 5.29593 0C6.60192 0 7.7019 0.838706 8.1159 2.0023H18.9998C19.5518 2.0023 19.9998 2.45014 19.9998 3.00195C19.9998 3.55376 19.5518 4.0016 18.9998 4.0016H8.1159C7.7029 5.16519 6.60192 6.0039 5.29593 6.0039C3.98995 6.0039 2.88996 5.16619 2.47597 4.0016H0.999987C0.447994 4.0016 0 3.55476 0 3.00195ZM4.29295 3.00195C4.29295 3.55476 4.74294 4.0046 5.29593 4.0046C5.84893 4.0046 6.29992 3.55576 6.29992 3.00195C6.29992 2.44814 5.84893 1.9993 5.29593 1.9993C4.74294 1.9993 4.29295 2.44914 4.29295 3.00195ZM18.9998 8.99985H10.7999H8.2339H0.999987C0.447994 8.99985 0 9.44769 0 9.9995C0 10.5513 0.447994 10.9992 0.999987 10.9992H8.2339H10.7999H11.4959C11.8289 10.7672 12.2218 10.6383 12.6358 10.6383C13.0498 10.6383 13.4438 10.7662 13.7758 10.9992H17.8588C18.1918 10.7672 18.5848 10.6383 18.9988 10.6383C19.2208 10.6383 19.4348 10.6823 19.6388 10.7512C19.8548 10.5683 19.9988 10.3044 19.9988 9.9995C19.9998 9.44769 19.5518 8.99985 18.9998 8.99985ZM12.8108 15.9974L11.2219 17.5858C11.0979 17.7098 10.9999 17.8498 10.9149 17.9967H8.1159C7.7029 19.1603 6.60192 19.999 5.29593 19.999C3.98995 19.999 2.88996 19.1603 2.47597 17.9967H0.999987C0.447994 17.9967 0 17.5489 0 16.9971C0 16.4452 0.447994 15.9974 0.999987 15.9974H2.47597C2.88996 14.8338 3.98995 13.9951 5.29593 13.9951C6.60192 13.9951 7.7019 14.8338 8.1159 15.9974H12.8108ZM6.29992 16.9971C6.29992 16.4442 5.84893 15.9944 5.29593 15.9944C4.74294 15.9944 4.29295 16.4442 4.29295 16.9971C4.29295 17.5499 4.74294 17.9997 5.29593 17.9997C5.84893 17.9997 6.29992 17.5509 6.29992 16.9971Z" fill="currentColor"></path>
  </symbol>
  <symbol fill="none" xmlns="http://www.w3.org/2000/svg" viewBox="0 0 16 16" id="ic_grid">
    <path d="M14 0H2C0.895 0 0 0.895 0 2V14C0 15.105 0.895 16 2 16H14C15.105 16 16 15.105 16 14V2C16 0.895 15.105 0 14 0ZM14 7H9V2H14V7ZM7 2V7H2V2H7ZM2 9H7V14H2V9ZM9 14V9H14V14H9Z" fill="currentColor"></path>
  </symbol>
  <symbol fill="none" xmlns="http://www.w3.org/2000/svg" viewBox="0 0 20 16" id="ic_list">
    <path d="M4 1C4 0.448 4.448 0 5 0H19C19.552 0 20 0.448 20 1C20 1.552 19.552 2 19 2H5C4.448 2 4 1.552 4 1ZM19 7H5C4.448 7 4 7.448 4 8C4 8.552 4.448 9 5 9H19C19.552 9 20 8.552 20 8C20 7.448 19.552 7 19 7ZM19 14H5C4.448 14 4 14.448 4 15C4 15.552 4.448 16 5 16H19C19.552 16 20 15.552 20 15C20 14.448 19.552 14 19 14ZM1 0C0.448 0 0 0.448 0 1C0 1.552 0.448 2 1 2C1.552 2 2 1.552 2 1C2 0.448 1.552 0 1 0ZM1 7C0.448 7 0 7.448 0 8C0 8.552 0.448 9 1 9C1.552 9 2 8.552 2 8C2 7.448 1.552 7 1 7ZM1 14C0.448 14 0 14.448 0 15C0 15.552 0.448 16 1 16C1.552 16 2 15.552 2 15C2 14.448 1.552 14 1 14Z" fill="currentColor"></path>
  </symbol>
  <symbol fill="none" xmlns="http://www.w3.org/2000/svg" viewBox="0 0 20 25" id="ic_location">
    <path d="M10.197 1.46404C10.764 1.46404 11.42 1.57141 12.263 1.80077C15.935 2.8012 18.5 6.10311 18.5 9.82959C18.5 12.8728 15.943 15.6506 13.47 18.3367C12.173 19.7451 10.928 21.0969 10 22.5092C9.072 21.0969 7.827 19.7451 6.53 18.3367C4.057 15.6506 1.5 12.8738 1.5 9.82959C1.5 6.10311 4.065 2.8012 7.737 1.80077C8.579 1.57141 9.236 1.46404 9.803 1.46404C9.852 1.46404 9.9 1.46502 9.949 1.466L10 1.46795L10.052 1.466C10.1 1.46502 10.149 1.46404 10.197 1.46404ZM10.197 0C10.131 0 10.066 0.000976029 10 0.00292809C9.934 0.000976029 9.869 0 9.803 0C8.984 0 8.157 0.165925 7.334 0.390411C3.103 1.5431 0 5.33302 0 9.82959C0 15.7189 7.419 20.0457 9.502 24.6711C9.601 24.8907 9.798 24.9902 10 25C10.202 24.9902 10.399 24.8907 10.498 24.6711C12.581 20.0457 20 15.7189 20 9.82959C20 5.33302 16.897 1.5431 12.666 0.390411C11.844 0.165925 11.016 0 10.197 0ZM10 6.61943C11.758 6.61943 13.188 8.01515 13.188 9.73101C13.188 11.4469 11.758 12.8426 10 12.8426C8.242 12.8426 6.812 11.4469 6.812 9.73101C6.812 8.01515 8.242 6.61943 10 6.61943ZM10 5.15538C7.411 5.15538 5.312 7.20407 5.312 9.73101C5.312 12.2579 7.411 14.3057 10 14.3057C12.589 14.3057 14.688 12.257 14.688 9.73003C14.688 7.20309 12.589 5.15538 10 5.15538Z" fill="currentColor"></path>
  </symbol>
  <symbol fill="none" xmlns="http://www.w3.org/2000/svg" viewBox="0 0 16 14" id="ic_menu">
    <path d="M15 0H1C0.448 0 0 0.448 0 1C0 1.552 0.448 2 1 2H15C15.552 2 16 1.552 16 1C16 0.448 15.552 0 15 0ZM15 6H1C0.448 6 0 6.448 0 7C0 7.552 0.448 8 1 8H15C15.552 8 16 7.552 16 7C16 6.448 15.552 6 15 6ZM15 12H1C0.448 12 0 12.448 0 13C0 13.552 0.448 14 1 14H15C15.552 14 16 13.552 16 13C16 12.448 15.552 12 15 12Z" fill="currentColor"></path>
  </symbol>
  <symbol fill="none" xmlns="http://www.w3.org/2000/svg" viewBox="0 0 16 14" id="ic_menu_a">
    <path d="M0 1C0 0.448 0.448 0 1 0H15C15.552 0 16 0.448 16 1C16 1.552 15.552 2 15 2H1C0.448 2 0 1.552 0 1ZM15.707 5.929C15.512 5.734 15.256 5.636 15 5.636C14.744 5.636 14.488 5.734 14.293 5.929L11.818 8.404L9.343 5.929C9.148 5.734 8.892 5.636 8.636 5.636C8.38 5.636 8.124 5.734 7.929 5.929C7.538 6.32 7.538 6.953 7.929 7.343L10.404 9.818L7.929 12.293C7.538 12.684 7.538 13.317 7.929 13.707C8.124 13.902 8.38 14 8.636 14C8.892 14 9.148 13.902 9.343 13.707L11.818 11.232L14.293 13.707C14.488 13.902 14.744 14 15 14C15.256 14 15.512 13.902 15.707 13.707C16.098 13.316 16.098 12.683 15.707 12.293L13.232 9.818L15.707 7.343C16.098 6.953 16.098 6.319 15.707 5.929ZM6.748 6H1C0.448 6 0 6.448 0 7C0 7.552 0.448 8 1 8H7.181C6.832 7.628 6.636 7.148 6.636 6.636C6.636 6.415 6.68 6.203 6.748 6ZM6.913 12H1C0.448 12 0 12.448 0 13C0 13.552 0.448 14 1 14H6.913C6.737 13.698 6.636 13.358 6.636 13C6.636 12.642 6.737 12.302 6.913 12Z" fill="currentColor"></path>
  </symbol>
  <symbol fill="none" xmlns="http://www.w3.org/2000/svg" viewBox="0 0 14 2" id="ic_minus">
    <path d="M12.99 2H1.01003C0.451483 2 0 1.552 0 1C0 0.448 0.451483 0 1.01003 0H12.99C13.5485 0 14 0.448 14 1C14 1.552 13.5485 2 12.99 2Z" fill="currentColor"></path>
  </symbol>
  <symbol fill="none" xmlns="http://www.w3.org/2000/svg" viewBox="0 0 26 26" id="ic_odnokl">
    <path d="M10.5647 7.27711C10.5647 5.93282 11.6538 4.8437 12.999 4.8437C14.3433 4.8437 15.4324 5.93282 15.4324 7.27711C15.4324 8.62141 14.3433 9.71148 12.999 9.71148C11.6538 9.71244 10.5647 8.62141 10.5647 7.27711ZM26 13C26 20.1799 20.1799 26 13 26C5.82015 26 0 20.1799 0 13C0 5.82015 5.82015 0 13 0C20.1799 0 26 5.82015 26 13ZM8.13126 7.27711C8.13126 9.96474 10.3124 12.1449 12.999 12.1449C15.6867 12.1449 17.8678 9.96474 17.8678 7.27711C17.8678 4.58852 15.6876 2.40837 12.999 2.40837C10.3124 2.40933 8.13126 4.58852 8.13126 7.27711ZM19.2593 14.2316C19.2593 13.4641 18.6353 12.8401 17.8678 12.8401C17.1716 12.8401 15.781 14.2316 12.999 14.2316C10.218 14.2316 8.82652 12.8401 8.13126 12.8401C7.36474 12.8401 6.74074 13.4651 6.74074 14.2316C6.74074 14.9279 7.13556 15.2601 7.43696 15.4382C8.26126 15.9197 10.9133 17.0136 10.9133 17.0136L7.95793 20.7942C7.95793 20.7942 7.43696 21.4461 7.43696 21.8804C7.43696 22.6479 8.05904 23.2719 8.82748 23.2719C9.53719 23.2719 9.85978 22.8155 9.85978 22.8155C9.85978 22.8155 12.9952 19.0956 13 19.0984C13.0039 19.0956 16.1402 22.8155 16.1402 22.8155C16.1402 22.8155 16.4628 23.2719 17.1725 23.2719C17.941 23.2719 18.563 22.647 18.563 21.8804C18.563 21.4461 18.0421 20.7942 18.0421 20.7942L15.0867 17.0136C15.0867 17.0136 17.7407 15.9207 18.564 15.4382C18.8625 15.2601 19.2593 14.9279 19.2593 14.2316Z" fill="currentColor"></path>
  </symbol>
  <symbol fill="none" xmlns="http://www.w3.org/2000/svg" viewBox="0 0 20 20" id="ic_password">
    <path d="M17.5 4.16667H15.8333V2.5C15.8333 1.11917 14.7142 0 13.3333 0H6.66667C5.28583 0 4.16667 1.11917 4.16667 2.5V4.16667H2.5C1.11917 4.16667 0 5.28583 0 6.66667V17.5C0 18.8808 1.11917 20 2.5 20H17.5C18.8808 20 20 18.8808 20 17.5V6.66667C20 5.28583 18.8808 4.16667 17.5 4.16667ZM5.83333 2.5C5.83333 2.04083 6.2075 1.66667 6.66667 1.66667H13.3333C13.7925 1.66667 14.1667 2.04083 14.1667 2.5V4.16667H5.83333V2.5ZM18.3333 17.5C18.3333 17.9592 17.9592 18.3333 17.5 18.3333H2.5C2.04083 18.3333 1.66667 17.9592 1.66667 17.5V6.66667C1.66667 6.2075 2.04083 5.83333 2.5 5.83333H4.16667H15.8333H17.5C17.9592 5.83333 18.3333 6.2075 18.3333 6.66667V17.5ZM10 7.7775C8.17333 7.7775 6.68583 9.26417 6.68583 11.0917C6.68583 12.0092 7.07167 12.8825 7.73583 13.505V14.19C7.73583 15.4025 8.7225 16.3892 9.935 16.3892C11.1475 16.3892 12.1342 15.4025 12.1342 14.19V13.6183C12.8808 12.9933 13.3142 12.0783 13.3142 11.0917C13.3133 9.26417 11.8267 7.7775 10 7.7775ZM10.8617 12.4867C10.6158 12.6383 10.4667 12.9067 10.4667 13.195V14.1892C10.4667 14.4825 10.2283 14.7217 9.93417 14.7217C9.64 14.7217 9.40167 14.4825 9.40167 14.1892V13.1117C9.40167 12.8417 9.27083 12.5883 9.05083 12.4325C8.61333 12.1217 8.35167 11.6208 8.35167 11.0917C8.35167 10.1833 9.09083 9.44417 9.99917 9.44417C10.9075 9.44417 11.6467 10.1833 11.6467 11.0917C11.6467 11.6608 11.3533 12.1825 10.8617 12.4867Z" fill="currentColor"></path>
  </symbol>
  <symbol fill="none" xmlns="http://www.w3.org/2000/svg" viewBox="0 0 20 21" id="ic_phone">
    <path d="M14.4593 21C14.2339 21 14.0578 20.9843 13.9417 20.9695C9.27354 20.7121 -0.252682 10.0686 0.00512902 5.3708C0.100578 3.61687 1.26466 1.87079 2.22604 0.715254L2.29689 0.631734C2.65802 0.202338 3.18152 -0.033485 3.74634 0.00385369C4.2659 0.032349 4.74806 0.290772 5.0659 0.712307L7.95004 4.5523C8.21671 4.86673 8.36332 5.30497 8.33872 5.755C8.31216 6.22861 8.1065 6.658 7.75717 6.96458C7.65484 7.05792 7.5092 7.20728 7.3616 7.35663C7.17759 7.54431 6.99161 7.73297 6.85287 7.85579C6.54487 8.20756 6.44549 9.02803 6.98866 9.7355L11.03 14.1631C11.6175 14.7271 12.6103 14.3341 12.8416 14.1277C12.8416 14.1277 13.5117 13.5146 13.5865 13.4478C13.9496 13.1402 14.3756 12.983 14.848 13.0193C15.2494 13.041 15.6362 13.2041 15.9343 13.4762L19.2081 16.5046C19.584 16.8662 19.7759 17.3605 19.7474 17.8704C19.7218 18.3892 19.4649 18.8697 19.0428 19.1871C17.0994 20.7475 15.3705 21 14.4593 21ZM3.64794 1.47578C3.52789 1.47578 3.45212 1.55046 3.42359 1.58289L3.35667 1.66248C2.20538 3.04794 1.53625 4.39607 1.48016 5.45039C1.25974 9.43286 10.0716 19.2795 14.0509 19.4996C14.5715 19.5634 16.1537 19.6214 18.1277 18.0316L18.1513 18.0129C18.1946 17.9815 18.2674 17.9107 18.2733 17.7918C18.2782 17.7054 18.2497 17.6287 18.1946 17.5756L14.9346 14.561C14.9109 14.5384 14.8519 14.4962 14.7663 14.4913C14.6531 14.4824 14.598 14.5247 14.5567 14.5591C14.4986 14.6121 13.8354 15.2194 13.8354 15.2194C13.1633 15.8247 11.2878 16.4525 9.97317 15.1909L5.85705 10.6798C4.78152 9.28056 5.03146 7.68875 5.81277 6.81326C5.99186 6.64818 6.15028 6.48507 6.30871 6.3249C6.47796 6.15098 6.64721 5.98001 6.77414 5.86603C6.83023 5.8169 6.86074 5.7491 6.86467 5.67344C6.86959 5.59778 6.84499 5.52998 6.79579 5.47004L3.88607 1.59861C3.83097 1.52688 3.74831 1.4807 3.66467 1.47578C3.65876 1.47578 3.65384 1.47578 3.64794 1.47578ZM14.2221 10.7662C14.5104 10.4783 14.5104 10.0116 14.2221 9.72371L11.4856 6.99012C11.1973 6.70222 10.7299 6.70222 10.4416 6.99012C10.1532 7.27802 10.1532 7.74476 10.4416 8.03266L13.1781 10.7662C13.3218 10.9097 13.5107 10.9824 13.6996 10.9824C13.8885 10.9824 14.0775 10.9107 14.2221 10.7662ZM17.0029 9.43679C17.2913 9.14889 17.2913 8.68216 17.0029 8.39425L12.817 4.21428C12.5286 3.92638 12.0612 3.92638 11.7729 4.21428C11.4846 4.50219 11.4846 4.96892 11.7729 5.25682L15.9589 9.43679C16.1026 9.58025 16.2915 9.65296 16.4804 9.65296C16.6694 9.65296 16.8583 9.58025 17.0029 9.43679ZM19.7838 8.10635C20.0721 7.81845 20.0721 7.35172 19.7838 7.06382L14.1483 1.43648C13.86 1.14858 13.3926 1.14858 13.1043 1.43648C12.816 1.72438 12.816 2.19112 13.1043 2.47902L18.7397 8.10635C18.8834 8.24981 19.0723 8.32253 19.2613 8.32253C19.4502 8.32253 19.6391 8.2508 19.7838 8.10635Z" fill="currentColor"></path>
  </symbol>
  <symbol fill="none" xmlns="http://www.w3.org/2000/svg" viewBox="0 0 20 20" id="ic_phone2">
    <path d="M13.9238 20C10.7732 20 6.49793 15.9714 5.26254 14.737C4.02715 13.5027 -0.00179764 9.22683 6.01761e-07 6.0757C0.000899721 2.28266 3.25661 0 4.10628 0H4.10897C4.65294 0 5.16993 0.241841 5.52598 0.664389L8.38159 4.06455C8.6729 4.36932 8.85362 4.82064 8.85362 5.29444C8.85183 5.7943 8.66031 6.25551 8.31325 6.59624C8.22514 6.68525 8.10106 6.82909 7.97429 6.97294C7.83222 7.13477 7.68926 7.29659 7.57328 7.41616C7.32962 7.756 7.31163 8.37634 7.7585 8.89778L11.1581 12.2934C11.6256 12.689 12.2442 12.6701 12.5841 12.4265C12.7045 12.3096 12.8673 12.1649 13.0309 12.0219C13.1739 11.8961 13.316 11.7729 13.4113 11.6785C13.7457 11.3387 14.2079 11.1472 14.7033 11.1463H14.7051C15.178 11.1463 15.6294 11.3261 15.9755 11.6524L19.3347 14.4718C19.7572 14.826 20 15.3439 20 15.8923C20.0009 16.7428 17.7189 19.9973 13.9238 20ZM4.17551 1.85202C3.56141 2.23681 1.79914 3.70673 1.79824 6.0766C1.79734 7.6616 3.70077 10.6311 6.5348 13.4649C9.36882 16.2978 12.3386 18.2019 13.9238 18.2019H13.9247C16.2759 18.201 17.7405 16.4668 18.1397 15.8401L14.7797 12.9956L14.7078 12.9452C14.6934 12.9452 14.6862 12.9488 14.6844 12.9497C14.563 13.0702 14.3922 13.2213 14.2187 13.3741C14.0667 13.5071 13.9139 13.6402 13.8141 13.7409L13.7358 13.811C12.8187 14.5428 11.2174 14.7083 9.93347 13.6078L6.44668 10.125C5.29311 8.7845 5.45765 7.18331 6.18953 6.2654L6.25877 6.18808C6.35857 6.08918 6.49164 5.93725 6.62291 5.78621C6.77666 5.6109 6.93041 5.43828 7.0455 5.32231L7.00503 5.22071L4.17551 1.85202Z" fill="currentColor"></path>
  </symbol>
  <symbol fill="none" xmlns="http://www.w3.org/2000/svg" viewBox="0 0 14 14" id="ic_plus">
    <path d="M12.99 5.98947H8.01053V1.01003C8.01053 0.452493 7.55905 0 7.0005 0C6.44196 0 5.99048 0.452493 5.99048 1.01003V5.98947H1.01003C0.451483 5.98947 0 6.44196 0 6.99949C0 7.55703 0.451483 8.00952 1.01003 8.00952H5.99048V12.99C5.99048 13.5475 6.44196 14 7.0005 14C7.55905 14 8.01053 13.5475 8.01053 12.99V8.00952H12.991C13.5495 8.00952 14.001 7.55703 14.001 6.99949C14.001 6.44196 13.5485 5.98947 12.99 5.98947Z" fill="currentColor"></path>
  </symbol>
  <symbol fill="none" xmlns="http://www.w3.org/2000/svg" viewBox="0 0 24 24" id="ic_question">
    <path d="M12 0C5.373 0 0 5.373 0 12C0 18.627 5.373 24 12 24C18.627 24 24 18.627 24 12C24 5.373 18.627 0 12 0ZM12 22C6.486 22 2 17.514 2 12C2 6.486 6.486 2 12 2C17.514 2 22 6.486 22 12C22 17.514 17.514 22 12 22ZM12.672 16.327C12.877 16.534 12.979 16.794 12.979 17.108C12.979 17.411 12.879 17.665 12.68 17.869C12.481 18.073 12.199 18.175 11.833 18.175C11.467 18.175 11.187 18.073 10.991 17.869C10.794 17.665 10.696 17.411 10.696 17.108C10.696 16.782 10.798 16.52 11.003 16.318C11.208 16.117 11.484 16.016 11.833 16.016C12.188 16.017 12.467 16.12 12.672 16.327ZM14.635 6.672C15.259 7.237 15.569 8.027 15.569 9.04C15.569 9.943 15.148 10.832 14.307 11.707L13.286 12.712C12.921 13.128 12.732 13.734 12.722 14.531H10.838C10.838 13.795 10.929 13.207 11.112 12.77C11.295 12.333 11.656 11.852 12.195 11.329C12.736 10.806 13.077 10.433 13.221 10.212C13.443 9.875 13.553 9.511 13.553 9.118C13.553 8.599 13.424 8.202 13.168 7.929C12.91 7.656 12.533 7.519 12.035 7.519C11.56 7.519 11.176 7.653 10.885 7.92C10.596 8.187 10.45 8.55 10.45 9.007H8.431C8.442 8.027 8.775 7.252 9.432 6.681C10.087 6.111 10.954 5.826 12.033 5.826C13.145 5.825 14.013 6.107 14.635 6.672Z" fill="currentColor"></path>
  </symbol>
  <symbol fill="none" xmlns="http://www.w3.org/2000/svg" viewBox="0 0 20 20" id="ic_sample">
    <path d="M17.5 0H9.16667C7.78583 0 6.66667 1.11917 6.66667 2.5V17.5C6.66667 18.8808 7.78583 20 9.16667 20H17.5C18.8808 20 20 18.8808 20 17.5V2.5C20 1.11917 18.8808 0 17.5 0ZM18.3333 17.5C18.3333 17.9592 17.9592 18.3333 17.5 18.3333H9.16667C8.7075 18.3333 8.33333 17.9592 8.33333 17.5V2.5C8.33333 2.04083 8.7075 1.66667 9.16667 1.66667H17.5C17.9592 1.66667 18.3333 2.04083 18.3333 2.5V17.5ZM1.66667 2.5V17.5C1.66667 17.9592 2.04083 18.3333 2.5 18.3333H5.11833C5.28917 18.9917 5.65417 19.5658 6.15167 20H2.5C1.11917 20 0 18.8808 0 17.5V2.5C0 1.11917 1.11917 0 2.5 0H6.15167C5.65417 0.434167 5.28917 1.00833 5.11833 1.66667H2.5C2.04083 1.66667 1.66667 2.04083 1.66667 2.5ZM11.6667 4.16667V15.8333C11.6667 16.2933 11.2933 16.6667 10.8333 16.6667C10.3733 16.6667 10 16.2933 10 15.8333V4.16667C10 3.70667 10.3733 3.33333 10.8333 3.33333C11.2933 3.33333 11.6667 3.70667 11.6667 4.16667Z" fill="currentColor"></path>
  </symbol>
  <symbol fill="none" xmlns="http://www.w3.org/2000/svg" viewBox="0 0 20 20" id="ic_search">
    <path d="M11.5442 0C6.88153 0 3.08836 3.79317 3.08836 8.45582C3.08836 10.4257 3.77109 12.2359 4.90463 13.6747L0.294184 18.2861C-0.0983867 18.6787 -0.0983867 19.3133 0.294184 19.7058C0.489967 19.9016 0.746995 20 1.00402 20C1.26105 20 1.51808 19.9016 1.71386 19.7058L6.3243 15.0944C7.76306 16.2279 9.5743 16.9106 11.5442 16.9106C16.2068 16.9106 20 13.1175 20 8.45482C20 3.79217 16.2068 0 11.5442 0ZM11.5442 14.9036C7.98896 14.9036 5.09639 12.011 5.09639 8.45582C5.09639 4.9006 7.98896 2.00803 11.5442 2.00803C15.0994 2.00803 17.992 4.9006 17.992 8.45582C17.992 12.011 15.0994 14.9036 11.5442 14.9036Z" fill="currentColor"></path>
  </symbol>
  <symbol fill="none" xmlns="http://www.w3.org/2000/svg" viewBox="0 0 19 20" id="ic_share">
    <path d="M14.954 12.9495C13.97 12.9495 13.081 13.355 12.44 14.0062L6.958 10.807C7.019 10.5473 7.06 10.2797 7.06 10.001C7.06 9.72233 7.019 9.45465 6.958 9.19397L12.441 5.99481C13.082 6.64602 13.971 7.05154 14.955 7.05154C16.901 7.05154 18.484 5.47044 18.484 3.52577C18.484 1.5811 16.9 0 14.954 0C13.008 0 11.424 1.5811 11.424 3.52577C11.424 3.76848 11.449 4.00419 11.496 4.23292L5.966 7.45905C5.331 6.85278 4.476 6.47423 3.53 6.47423C1.584 6.47423 0 8.05633 0 10C0 11.9437 1.584 13.5258 3.53 13.5258C4.475 13.5258 5.331 13.1482 5.965 12.5409L11.495 15.7681C11.448 15.9968 11.423 16.2325 11.423 16.4752C11.423 18.4189 13.007 20 14.953 20C16.899 20 18.482 18.4189 18.482 16.4752C18.482 14.5316 16.9 12.9495 14.954 12.9495ZM14.954 1.9976C15.797 1.9976 16.483 2.68278 16.483 3.52577C16.483 4.36876 15.796 5.05394 14.954 5.05394C14.11 5.05394 13.424 4.36876 13.424 3.52577C13.424 2.68278 14.11 1.9976 14.954 1.9976ZM3.53 11.5282C2.686 11.5282 2 10.843 2 10C2 9.15701 2.687 8.47183 3.53 8.47183C4.373 8.47183 5.059 9.15701 5.059 10C5.059 10.843 4.373 11.5282 3.53 11.5282ZM14.954 18.0024C14.11 18.0024 13.424 17.3172 13.424 16.4752C13.424 15.6322 14.111 14.9471 14.954 14.9471C15.797 14.9471 16.483 15.6322 16.483 16.4752C16.483 17.3172 15.797 18.0024 14.954 18.0024Z" fill="currentColor"></path>
  </symbol>
  <symbol fill="none" xmlns="http://www.w3.org/2000/svg" viewBox="0 0 24 24" id="ic_success">
    <path d="M18.5965 7.029C18.9875 7.42 18.9875 8.052 18.5965 8.443L11.3375 15.702L11.3335 15.705L11.3325 15.706C11.1375 15.902 10.8815 16 10.6255 16C10.3695 16 10.1135 15.902 9.9185 15.707L6.4855 12.274C6.0945 11.883 6.0945 11.25 6.4855 10.86C6.8765 10.469 7.5085 10.469 7.8995 10.86L10.6255 13.587L17.1815 7.03C17.5725 6.639 18.2055 6.639 18.5965 7.029ZM20.4845 20.485C18.1415 22.828 15.0705 24 11.9995 24C8.9285 24 5.8575 22.828 3.5145 20.485C-1.1715 15.799 -1.1715 8.201 3.5145 3.514C5.8575 1.172 8.9285 0 11.9995 0C15.0705 0 18.1415 1.172 20.4845 3.515C25.1715 8.201 25.1715 15.799 20.4845 20.485ZM19.0705 4.929C17.1815 3.04 14.6705 2 11.9995 2C9.3285 2 6.8175 3.04 4.9285 4.929C1.0295 8.828 1.0295 15.172 4.9285 19.071C6.8175 20.96 9.3285 22 11.9995 22C14.6705 22 17.1815 20.96 19.0705 19.071C22.9695 15.172 22.9695 8.828 19.0705 4.929Z" fill="currentColor"></path>
  </symbol>
  <symbol fill="none" xmlns="http://www.w3.org/2000/svg" viewBox="0 0 20 20" id="ic_support">
    <path d="M17.5 5.83333H17.375C16.7842 2.51917 13.9008 0 10.4167 0H9.58333C6.09917 0 3.21583 2.51917 2.625 5.83333H2.5C1.11917 5.83333 0 6.9525 0 8.33333V11.6667C0 13.0475 1.11917 14.1667 2.5 14.1667H4.16667C5.5475 14.1667 6.66667 13.0475 6.66667 11.6667V8.33333C6.66667 7.005 5.6275 5.92917 4.32 5.84917C4.88 3.45667 7.0225 1.66667 9.58333 1.66667H10.4167C12.9775 1.66667 15.12 3.45667 15.68 5.84917C14.3725 5.92917 13.3333 7.005 13.3333 8.33333V11.6667C13.3333 12.995 14.3725 14.0708 15.68 14.1508C15.2775 15.8692 14.0608 17.2767 12.4558 17.9325C12.4808 17.7917 12.5 17.6483 12.5 17.5C12.5 16.1192 11.3808 15 10 15C8.61917 15 7.5 16.1192 7.5 17.5C7.5 18.8808 8.61917 20 10 20H10.4167C13.9008 20 16.7842 17.4808 17.375 14.1667H17.5C18.8808 14.1667 20 13.0475 20 11.6667V8.33333C20 6.9525 18.8808 5.83333 17.5 5.83333ZM5 8.33333V11.6667C5 12.1258 4.62583 12.5 4.16667 12.5H2.5C2.04083 12.5 1.66667 12.1258 1.66667 11.6667V8.33333C1.66667 7.87417 2.04083 7.5 2.5 7.5H4.16667C4.62583 7.5 5 7.87417 5 8.33333ZM9.16667 17.5C9.16667 17.0408 9.54083 16.6667 10 16.6667C10.4592 16.6667 10.8333 17.0408 10.8333 17.5C10.8333 17.9592 10.4592 18.3333 10 18.3333C9.54083 18.3333 9.16667 17.9592 9.16667 17.5ZM18.3333 11.6667C18.3333 12.1258 17.9592 12.5 17.5 12.5H15.8333C15.3742 12.5 15 12.1258 15 11.6667V8.33333C15 7.87417 15.3742 7.5 15.8333 7.5H17.5C17.9592 7.5 18.3333 7.87417 18.3333 8.33333V11.6667Z" fill="currentColor"></path>
  </symbol>
  <symbol fill="none" xmlns="http://www.w3.org/2000/svg" viewBox="0 0 22 18" id="ic_telegram">
    <path d="M21.9373 1.63918L18.6172 16.914C18.3663 17.9922 17.7132 18.2604 16.7851 17.7528L11.727 14.1159L9.28604 16.4064C9.01574 16.6701 8.78973 16.8906 8.26943 16.8906L8.6329 11.8641L18.0084 3.59938C18.4161 3.24478 17.9198 3.04858 17.3746 3.40318L5.78419 10.5222L0.795261 8.99848C-0.290532 8.66818 -0.309905 7.93918 1.02128 7.43158L20.5379 0.0956769C21.441 -0.234623 22.2316 0.292777 21.9373 1.63918Z" fill="currentColor"></path>
  </symbol>
  <symbol fill="none" xmlns="http://www.w3.org/2000/svg" viewBox="0 0 20 20" id="ic_time">
    <path d="M17.002 10C17.002 10.414 16.666 10.75 16.252 10.75H10C9.586 10.75 9.25 10.414 9.25 10V3.748C9.25 3.334 9.586 2.998 10 2.998C10.414 2.998 10.75 3.334 10.75 3.748V9.25H16.252C16.666 9.25 17.002 9.586 17.002 10ZM20 10C20 15.523 15.523 20 10 20C4.477 20 0 15.523 0 10C0 4.477 4.477 0 10 0C15.523 0 20 4.477 20 10ZM18.5 10C18.5 5.313 14.687 1.5 10 1.5C5.313 1.5 1.5 5.313 1.5 10C1.5 14.687 5.313 18.5 10 18.5C14.687 18.5 18.5 14.687 18.5 10Z" fill="currentColor"></path>
  </symbol>
  <symbol fill="none" xmlns="http://www.w3.org/2000/svg" viewBox="0 0 24 26" id="ic_user">
    <path d="M16.249 12.831C17.991 11.532 19.123 9.463 19.123 7.123C19.124 3.189 15.934 0 12 0C8.066 0 4.877 3.189 4.877 7.124C4.877 9.463 6.01 11.533 7.751 12.832C3.262 14.332 0 18.577 0 23.553V26H24V23.553C24 18.577 20.738 14.332 16.249 12.831ZM6.877 7.124C6.877 4.298 9.175 2 12 2C14.825 2 17.124 4.298 17.124 7.124C17.124 9.945 14.832 12.239 12.013 12.246H11.988C9.168 12.239 6.877 9.944 6.877 7.124ZM22 24H2V23.553C2 18.421 6.175 14.245 11.308 14.245H11.975C11.984 14.245 11.992 14.246 12 14.246C12.008 14.246 12.017 14.245 12.025 14.245H12.692C17.824 14.245 22 18.42 22 23.553V24Z" fill="currentColor"></path>
  </symbol>
  <symbol fill="none" xmlns="http://www.w3.org/2000/svg" viewBox="0 0 36 22" id="ic_vk">
    <path d="M19.2228 21.988C20.4203 21.988 20.4203 20.2275 20.4203 19.5443C20.4203 18.3235 21.6189 17.1027 22.8175 17.1027C24.015 17.1027 26.0713 19.1967 27.6119 20.7672C28.8095 21.988 28.8095 21.988 30.0081 21.988C31.2056 21.988 33.6028 21.988 33.6028 21.988C33.6028 21.988 36 21.893 36 19.5443C36 18.7801 35.1794 17.487 32.4031 14.659C30.007 12.2153 28.7798 13.4771 32.4031 8.55299C34.6119 5.55016 36.2202 2.83229 35.9428 2.04974C35.6802 1.30173 29.5358 0.109017 28.8084 1.22186C26.4112 4.88634 25.9718 5.78331 25.2136 7.33006C24.014 9.77377 23.8954 10.9945 22.8164 10.9945C21.7258 10.9945 21.6168 8.62423 21.6168 7.33006C21.6168 3.28994 22.1907 0.436069 20.4182 0C20.4182 0 18.022 0 16.8245 0C14.8942 0 13.2276 1.22186 13.2276 1.22186C13.2276 1.22186 11.741 2.40485 12.0301 2.44263C12.3859 2.4912 14.4273 1.9364 14.4273 3.66449C14.4273 4.88634 14.4273 6.1082 14.4273 6.1082C14.4273 6.1082 14.4379 10.9935 13.2276 10.9935C12.0301 10.9935 9.63289 6.1082 7.23781 2.44155C6.29756 1.0049 6.04132 1.22078 4.84166 1.22078C3.55624 1.22078 2.44764 1.27259 1.24692 1.27259C0.049378 1.27259 -0.104153 2.05082 0.0493781 2.44155C2.44552 8.55191 4.16719 12.3869 8.72018 17.2182C12.8973 21.6512 15.6873 21.8865 18.0242 21.988C18.6213 22.015 18.0242 21.988 19.2228 21.988Z" fill="currentColor"></path>
  </symbol>
  <symbol fill="none" xmlns="http://www.w3.org/2000/svg" viewBox="0 0 20 16" id="ic_warning">
    <path d="M19.5819 13.751L10.8159 0.476C10.6199 0.179 10.3279 0.007 10.0139 0.002L10.0959 0.011L10.0479 0H9.95291C9.93591 0.004 9.91791 0.008 9.90091 0.012L9.98391 0.002C9.67091 0.008 9.37991 0.179 9.18391 0.476L0.417913 13.751C0.0249135 14.326 -0.0970865 14.884 0.0789135 15.315C0.173913 15.549 0.400913 15.852 0.936913 15.968C0.989913 15.982 1.04491 15.992 1.09991 15.996L1.12491 16H18.8739L18.9009 15.997C18.9829 15.987 19.0499 15.975 19.0969 15.962C19.6009 15.854 19.8269 15.55 19.9219 15.317C20.0969 14.884 19.9749 14.326 19.5819 13.751ZM9.99991 13.889C9.50491 13.889 9.10391 13.495 9.10391 13.009C9.10391 12.523 9.50491 12.129 9.99991 12.128C10.4949 12.128 10.8959 12.523 10.8959 13.009C10.8949 13.495 10.4949 13.888 9.99991 13.889ZM10.9609 7.841C10.5789 9.591 10.0669 11.276 10.0669 11.276C10.0619 11.31 10.0339 11.337 9.99891 11.341V11.344L9.99591 11.343L9.99191 11.344V11.34C9.95691 11.336 9.92891 11.31 9.92391 11.275C9.92391 11.275 9.41191 9.59 9.02991 7.84C8.79791 6.749 8.61291 4.328 9.99191 4.306V4.305H9.99891V4.306C11.3779 4.328 11.1929 6.749 10.9609 7.841Z" fill="currentColor"></path>
  </symbol>
  <symbol fill="none" xmlns="http://www.w3.org/2000/svg" viewBox="0 0 18 18" id="ic_whatsapp">
    <path fill-rule="evenodd" clip-rule="evenodd" d="M15.3774 2.6154C13.6854 0.9297 11.4354 0.0009 9.03798 0C4.09757 0 0.076869 4.0014 0.0750603 8.919C0.0741559 10.4913 0.48744 12.0258 1.2715 13.3785L0 18L4.75141 16.7598C6.06089 17.4708 7.53406 17.8452 9.03436 17.8452H9.03798C13.9775 17.8452 17.9982 13.8438 18.0009 8.9262C18.0009 6.543 17.0694 4.302 15.3774 2.6154ZM13.4222 12.1068C13.2359 12.627 12.3406 13.1022 11.9111 13.1661C11.5249 13.2237 11.0366 13.2471 10.5003 13.0779C10.1747 12.9753 9.75784 12.8385 9.22337 12.6081C6.97699 11.6424 5.51015 9.3915 5.39801 9.243C5.28587 9.0945 4.48372 8.0343 4.48372 6.9372C4.48372 5.8401 5.0625 5.301 5.26779 5.0778C5.47307 4.8546 5.71543 4.7988 5.86465 4.7988C6.01387 4.7988 6.16308 4.7997 6.29421 4.8069C6.43167 4.815 6.61616 4.7556 6.79793 5.1903C6.98422 5.6367 7.43187 6.7338 7.48794 6.8454C7.54401 6.957 7.58199 7.0866 7.50693 7.2351C7.43187 7.3845 7.39479 7.4772 7.28266 7.6077C7.17142 7.7373 7.04753 7.8975 6.94715 7.9974C6.83501 8.109 6.71835 8.2296 6.84857 8.4528C6.9797 8.676 7.42826 9.4059 8.09476 9.9972C8.95026 10.7568 9.67193 10.9917 9.8953 11.1033C10.1196 11.2149 10.2498 11.196 10.38 11.0475C10.5102 10.899 10.9398 10.3968 11.089 10.1736C11.2382 9.9504 11.3875 9.9873 11.5927 10.062C11.798 10.1367 12.8986 10.6758 13.1229 10.7874C13.3472 10.899 13.4964 10.9548 13.5525 11.0475C13.6094 11.1402 13.6094 11.5857 13.4222 12.1068Z" fill="currentColor"></path>
  </symbol>
  <symbol fill="none" xmlns="http://www.w3.org/2000/svg" viewBox="0 0 24 24" id="ic_zoom">
    <path d="M13.8887 0C8.31359 0 3.77832 4.53632 3.77832 10.1114C3.77832 12.5413 4.641 14.7731 6.07481 16.5194L0.291788 22.3025C-0.0972627 22.6915 -0.0972627 23.3204 0.291788 23.7095C0.485816 23.9025 0.74054 24 0.995263 24C1.24999 24 1.50471 23.9025 1.69874 23.7085L7.48176 17.9254C9.22702 19.3592 11.4588 20.2219 13.8887 20.2219C19.4647 20.2219 24 15.6856 24 10.1104C24 4.53532 19.4647 0 13.8887 0ZM13.8887 18.2318C9.4111 18.2318 5.76835 14.5891 5.76835 10.1104C5.76835 5.63184 9.4111 1.99005 13.8887 1.99005C18.3672 1.99005 22.01 5.63284 22.01 10.1114C22.01 14.59 18.3672 18.2318 13.8887 18.2318ZM19.7125 10.1114C19.7125 10.6607 19.2677 11.1065 18.7175 11.1065H14.8837V14.9393C14.8837 15.4886 14.4389 15.9343 13.8887 15.9343C13.3384 15.9343 12.8936 15.4886 12.8936 14.9393V11.1065H9.06085C8.51061 11.1065 8.06584 10.6607 8.06584 10.1114C8.06584 9.56219 8.51061 9.11642 9.06085 9.11642H12.8936V5.28358C12.8936 4.73433 13.3384 4.28856 13.8887 4.28856C14.4389 4.28856 14.8837 4.73433 14.8837 5.28358V9.11642H18.7175C19.2667 9.11642 19.7125 9.56119 19.7125 10.1114Z" fill="currentColor"></path>
  </symbol>
</svg>